<svg width="639" height="279" viewBox="0 0 639 279" fill="none" xmlns="http://www.w3.org/2000/svg">
<g clip-path="url(#clip0_544_160)">
<g filter="url(#filter0_dddddd_544_160)">
<path d="M298 120.155L304.12 116.913V129.113L316.653 136.186V143.966L298 133.121V120.155Z" fill="white"/>
<path d="M298 147.856V140.607L320.267 153.574L323.589 151.746V132.355L310.474 124.575V113.082L316.653 109.722V120.98L330.351 129.113V155.224L320.267 161L298 147.856Z" fill="white"/>
<path d="M323.589 116.913V109L343 120.155V147.856L336.18 151.746V124.575L323.589 116.913Z" fill="white"/>
</g>
<mask id="path-2-outside-1_544_160" maskUnits="userSpaceOnUse" x="233" y="192" width="178" height="29" fill="black">
<rect fill="white" x="233" y="192" width="178" height="29"/>
<path d="M253.727 219H250.577V207.345H237.767V219H234.617V194.01H237.767V204.58H250.577V194.01H253.727V219ZM275.889 219L272.879 211.265H262.974L259.999 219H256.814L266.579 193.905H269.414L279.144 219H275.889ZM269.134 200.905C269.064 200.718 268.947 200.38 268.784 199.89C268.621 199.4 268.457 198.898 268.294 198.385C268.154 197.848 268.037 197.44 267.944 197.16C267.827 197.627 267.699 198.105 267.559 198.595C267.442 199.062 267.314 199.493 267.174 199.89C267.057 200.287 266.952 200.625 266.859 200.905L264.024 208.465H271.934L269.134 200.905ZM311.682 219H282.212V194.01H285.362V216.2H295.337V194.01H298.487V216.2H308.497V194.01H311.682V219ZM325.878 219V194.01H344.638V219H341.523V196.775H329.028V219H325.878ZM361.593 211.895C360.847 213.552 360.088 214.94 359.318 216.06C358.572 217.157 357.685 217.985 356.658 218.545C355.632 219.082 354.325 219.35 352.738 219.35C352.085 219.35 351.467 219.303 350.883 219.21C350.323 219.117 349.81 218.988 349.343 218.825V215.71C349.81 215.92 350.312 216.095 350.848 216.235C351.385 216.352 351.945 216.41 352.528 216.41C353.392 216.41 354.127 216.293 354.733 216.06C355.363 215.803 355.912 215.395 356.378 214.835C356.868 214.275 357.323 213.528 357.743 212.595L348.118 194.01H351.583L358.548 207.765C358.642 207.928 358.735 208.127 358.828 208.36C358.922 208.57 359.015 208.792 359.108 209.025C359.225 209.258 359.318 209.48 359.388 209.69H359.528C359.598 209.527 359.668 209.34 359.738 209.13C359.832 208.897 359.913 208.675 359.983 208.465C360.077 208.232 360.158 208.033 360.228 207.87L366.248 194.01H369.573L361.593 211.895ZM380.529 219H377.379V196.775H369.574V194.01H388.299V196.775H380.529V219ZM391.717 219V194.01H394.867V204.58H399.557C401.891 204.58 403.746 204.895 405.122 205.525C406.499 206.155 407.491 207.007 408.097 208.08C408.704 209.153 409.007 210.355 409.007 211.685C409.007 213.155 408.669 214.438 407.992 215.535C407.339 216.632 406.347 217.483 405.017 218.09C403.687 218.697 401.996 219 399.942 219H391.717ZM399.627 216.305C401.657 216.305 403.186 215.932 404.212 215.185C405.239 214.415 405.752 213.248 405.752 211.685C405.752 210.612 405.496 209.76 404.982 209.13C404.492 208.477 403.757 208.01 402.777 207.73C401.821 207.45 400.619 207.31 399.172 207.31H394.867V216.305H399.627Z"/>
</mask>
<path d="M253.727 219V220H254.727V219H253.727ZM250.577 219H249.577V220H250.577V219ZM250.577 207.345H251.577V206.345H250.577V207.345ZM237.767 207.345V206.345H236.767V207.345H237.767ZM237.767 219V220H238.767V219H237.767ZM234.617 219H233.617V220H234.617V219ZM234.617 194.01V193.01H233.617V194.01H234.617ZM237.767 194.01H238.767V193.01H237.767V194.01ZM237.767 204.58H236.767V205.58H237.767V204.58ZM250.577 204.58V205.58H251.577V204.58H250.577ZM250.577 194.01V193.01H249.577V194.01H250.577ZM253.727 194.01H254.727V193.01H253.727V194.01ZM253.727 218H250.577V220H253.727V218ZM251.577 219V207.345H249.577V219H251.577ZM250.577 206.345H237.767V208.345H250.577V206.345ZM236.767 207.345V219H238.767V207.345H236.767ZM237.767 218H234.617V220H237.767V218ZM235.617 219V194.01H233.617V219H235.617ZM234.617 195.01H237.767V193.01H234.617V195.01ZM236.767 194.01V204.58H238.767V194.01H236.767ZM237.767 205.58H250.577V203.58H237.767V205.58ZM251.577 204.58V194.01H249.577V204.58H251.577ZM250.577 195.01H253.727V193.01H250.577V195.01ZM252.727 194.01V219H254.727V194.01H252.727ZM275.889 219L274.957 219.363L275.205 220H275.889V219ZM272.879 211.265L273.811 210.902L273.563 210.265H272.879V211.265ZM262.974 211.265V210.265H262.287L262.041 210.906L262.974 211.265ZM259.999 219V220H260.686L260.932 219.359L259.999 219ZM256.814 219L255.882 218.637L255.352 220H256.814V219ZM266.579 193.905V192.905H265.895L265.647 193.542L266.579 193.905ZM269.414 193.905L270.346 193.543L270.099 192.905H269.414V193.905ZM279.144 219V220H280.604L280.076 218.638L279.144 219ZM269.134 200.905L270.072 200.558L270.07 200.554L269.134 200.905ZM268.784 199.89L267.835 200.206L267.835 200.206L268.784 199.89ZM268.294 198.385L267.326 198.637L267.333 198.663L267.341 198.688L268.294 198.385ZM267.944 197.16L268.893 196.844L267.807 193.586L266.974 196.917L267.944 197.16ZM267.559 198.595L266.597 198.32L266.593 198.336L266.589 198.352L267.559 198.595ZM267.174 199.89L266.231 199.557L266.222 199.582L266.215 199.608L267.174 199.89ZM266.859 200.905L267.795 201.256L267.802 201.239L267.808 201.221L266.859 200.905ZM264.024 208.465L263.088 208.114L262.581 209.465H264.024V208.465ZM271.934 208.465V209.465H273.371L272.872 208.118L271.934 208.465ZM276.821 218.637L273.811 210.902L271.947 211.628L274.957 219.363L276.821 218.637ZM272.879 210.265H262.974V212.265H272.879V210.265ZM262.041 210.906L259.066 218.641L260.932 219.359L263.907 211.624L262.041 210.906ZM259.999 218H256.814V220H259.999V218ZM257.746 219.363L267.511 194.268L265.647 193.542L255.882 218.637L257.746 219.363ZM266.579 194.905H269.414V192.905H266.579V194.905ZM268.482 194.267L278.212 219.362L280.076 218.638L270.346 193.543L268.482 194.267ZM279.144 218H275.889V220H279.144V218ZM270.07 200.554C270.008 200.387 269.896 200.065 269.733 199.574L267.835 200.206C267.998 200.695 268.12 201.05 268.198 201.256L270.07 200.554ZM269.733 199.574C269.571 199.088 269.409 198.591 269.247 198.082L267.341 198.688C267.506 199.206 267.67 199.712 267.835 200.206L269.733 199.574ZM269.262 198.133C269.12 197.59 268.997 197.156 268.893 196.844L266.995 197.476C267.078 197.724 267.188 198.107 267.326 198.637L269.262 198.133ZM266.974 196.917C266.86 197.373 266.735 197.84 266.597 198.32L268.52 198.87C268.663 198.37 268.795 197.881 268.914 197.403L266.974 196.917ZM266.589 198.352C266.479 198.793 266.359 199.194 266.231 199.557L268.117 200.223C268.269 199.793 268.406 199.33 268.529 198.838L266.589 198.352ZM266.215 199.608C266.1 199.997 265.999 200.324 265.91 200.589L267.808 201.221C267.906 200.926 268.015 200.576 268.133 200.172L266.215 199.608ZM265.923 200.554L263.088 208.114L264.96 208.816L267.795 201.256L265.923 200.554ZM264.024 209.465H271.934V207.465H264.024V209.465ZM272.872 208.118L270.072 200.558L268.196 201.252L270.996 208.812L272.872 208.118ZM311.682 219V220H312.682V219H311.682ZM282.212 219H281.212V220H282.212V219ZM282.212 194.01V193.01H281.212V194.01H282.212ZM285.362 194.01H286.362V193.01H285.362V194.01ZM285.362 216.2H284.362V217.2H285.362V216.2ZM295.337 216.2V217.2H296.337V216.2H295.337ZM295.337 194.01V193.01H294.337V194.01H295.337ZM298.487 194.01H299.487V193.01H298.487V194.01ZM298.487 216.2H297.487V217.2H298.487V216.2ZM308.497 216.2V217.2H309.497V216.2H308.497ZM308.497 194.01V193.01H307.497V194.01H308.497ZM311.682 194.01H312.682V193.01H311.682V194.01ZM311.682 218H282.212V220H311.682V218ZM283.212 219V194.01H281.212V219H283.212ZM282.212 195.01H285.362V193.01H282.212V195.01ZM284.362 194.01V216.2H286.362V194.01H284.362ZM285.362 217.2H295.337V215.2H285.362V217.2ZM296.337 216.2V194.01H294.337V216.2H296.337ZM295.337 195.01H298.487V193.01H295.337V195.01ZM297.487 194.01V216.2H299.487V194.01H297.487ZM298.487 217.2H308.497V215.2H298.487V217.2ZM309.497 216.2V194.01H307.497V216.2H309.497ZM308.497 195.01H311.682V193.01H308.497V195.01ZM310.682 194.01V219H312.682V194.01H310.682ZM325.878 219H324.878V220H325.878V219ZM325.878 194.01V193.01H324.878V194.01H325.878ZM344.638 194.01H345.638V193.01H344.638V194.01ZM344.638 219V220H345.638V219H344.638ZM341.523 219H340.523V220H341.523V219ZM341.523 196.775H342.523V195.775H341.523V196.775ZM329.028 196.775V195.775H328.028V196.775H329.028ZM329.028 219V220H330.028V219H329.028ZM326.878 219V194.01H324.878V219H326.878ZM325.878 195.01H344.638V193.01H325.878V195.01ZM343.638 194.01V219H345.638V194.01H343.638ZM344.638 218H341.523V220H344.638V218ZM342.523 219V196.775H340.523V219H342.523ZM341.523 195.775H329.028V197.775H341.523V195.775ZM328.028 196.775V219H330.028V196.775H328.028ZM329.028 218H325.878V220H329.028V218ZM361.593 211.895L362.505 212.306L362.507 212.302L361.593 211.895ZM359.318 216.06L358.494 215.493L358.492 215.497L359.318 216.06ZM356.658 218.545L357.122 219.431L357.129 219.427L357.137 219.423L356.658 218.545ZM350.883 219.21L350.719 220.196L350.725 220.197L350.883 219.21ZM349.343 218.825H348.343V219.534L349.013 219.769L349.343 218.825ZM349.343 215.71L349.754 214.798L348.343 214.163V215.71H349.343ZM350.848 216.235L350.596 217.203L350.616 217.208L350.636 217.212L350.848 216.235ZM354.733 216.06L355.092 216.993L355.101 216.99L355.111 216.986L354.733 216.06ZM356.378 214.835L355.626 214.176L355.618 214.186L355.61 214.195L356.378 214.835ZM357.743 212.595L358.655 213.005L358.854 212.564L358.631 212.135L357.743 212.595ZM348.118 194.01V193.01H346.474L347.23 194.47L348.118 194.01ZM351.583 194.01L352.475 193.558L352.198 193.01H351.583V194.01ZM358.548 207.765L357.656 208.217L357.668 208.239L357.68 208.261L358.548 207.765ZM358.828 208.36L357.9 208.731L357.907 208.749L357.914 208.766L358.828 208.36ZM359.108 209.025L358.18 209.396L358.195 209.435L358.214 209.472L359.108 209.025ZM359.388 209.69L358.44 210.006L358.668 210.69H359.388V209.69ZM359.528 209.69V210.69H360.188L360.447 210.084L359.528 209.69ZM359.738 209.13L358.81 208.759L358.799 208.786L358.79 208.814L359.738 209.13ZM359.983 208.465L359.055 208.094L359.044 208.121L359.035 208.149L359.983 208.465ZM360.228 207.87L359.311 207.472L359.309 207.476L360.228 207.87ZM366.248 194.01V193.01H365.592L365.331 193.612L366.248 194.01ZM369.573 194.01L370.487 194.417L371.115 193.01H369.573V194.01ZM360.682 211.484C359.952 213.103 359.221 214.436 358.494 215.493L360.142 216.627C360.955 215.444 361.741 214 362.505 212.306L360.682 211.484ZM358.492 215.497C357.822 216.481 357.049 217.193 356.179 217.667L357.137 219.423C358.321 218.777 359.321 217.833 360.145 216.623L358.492 215.497ZM356.195 217.659C355.354 218.098 354.22 218.35 352.738 218.35V220.35C354.43 220.35 355.909 220.065 357.122 219.431L356.195 217.659ZM352.738 218.35C352.132 218.35 351.567 218.307 351.041 218.223L350.725 220.197C351.366 220.3 352.038 220.35 352.738 220.35V218.35ZM351.048 218.224C350.536 218.138 350.079 218.023 349.674 217.881L349.013 219.769C349.541 219.954 350.111 220.095 350.719 220.196L351.048 218.224ZM350.343 218.825V215.71H348.343V218.825H350.343ZM348.933 216.622C349.455 216.857 350.01 217.05 350.596 217.203L351.101 215.267C350.614 215.14 350.165 214.983 349.754 214.798L348.933 216.622ZM350.636 217.212C351.247 217.345 351.878 217.41 352.528 217.41V215.41C352.012 215.41 351.523 215.358 351.061 215.258L350.636 217.212ZM352.528 217.41C353.476 217.41 354.34 217.283 355.092 216.993L354.374 215.127C353.913 215.304 353.307 215.41 352.528 215.41V217.41ZM355.111 216.986C355.903 216.663 356.583 216.152 357.147 215.475L355.61 214.195C355.241 214.638 354.823 214.943 354.356 215.134L355.111 216.986ZM357.131 215.494C357.705 214.837 358.209 213.998 358.655 213.005L356.831 212.185C356.438 213.059 356.031 213.713 355.626 214.176L357.131 215.494ZM358.631 212.135L349.006 193.55L347.23 194.47L356.855 213.055L358.631 212.135ZM348.118 195.01H351.583V193.01H348.118V195.01ZM350.691 194.462L357.656 208.217L359.44 207.313L352.475 193.558L350.691 194.462ZM357.68 208.261C357.744 208.374 357.818 208.528 357.9 208.731L359.757 207.989C359.652 207.726 359.539 207.483 359.417 207.269L357.68 208.261ZM357.914 208.766C358.002 208.964 358.091 209.174 358.18 209.396L360.037 208.654C359.939 208.41 359.841 208.176 359.742 207.954L357.914 208.766ZM358.214 209.472C358.313 209.67 358.387 209.848 358.44 210.006L360.337 209.374C360.25 209.112 360.137 208.846 360.003 208.578L358.214 209.472ZM359.388 210.69H359.528V208.69H359.388V210.69ZM360.447 210.084C360.531 209.89 360.61 209.676 360.687 209.446L358.79 208.814C358.726 209.004 358.666 209.164 358.609 209.296L360.447 210.084ZM360.667 209.501C360.766 209.252 360.855 209.012 360.932 208.781L359.035 208.149C358.972 208.338 358.897 208.541 358.81 208.759L360.667 209.501ZM360.912 208.836C361.003 208.608 361.082 208.417 361.147 208.264L359.309 207.476C359.235 207.649 359.15 207.856 359.055 208.094L360.912 208.836ZM361.146 208.268L367.166 194.408L365.331 193.612L359.311 207.472L361.146 208.268ZM366.248 195.01H369.573V193.01H366.248V195.01ZM368.66 193.603L360.68 211.488L362.507 212.302L370.487 194.417L368.66 193.603ZM380.529 219V220H381.529V219H380.529ZM377.379 219H376.379V220H377.379V219ZM377.379 196.775H378.379V195.775H377.379V196.775ZM369.574 196.775H368.574V197.775H369.574V196.775ZM369.574 194.01V193.01H368.574V194.01H369.574ZM388.299 194.01H389.299V193.01H388.299V194.01ZM388.299 196.775V197.775H389.299V196.775H388.299ZM380.529 196.775V195.775H379.529V196.775H380.529ZM380.529 218H377.379V220H380.529V218ZM378.379 219V196.775H376.379V219H378.379ZM377.379 195.775H369.574V197.775H377.379V195.775ZM370.574 196.775V194.01H368.574V196.775H370.574ZM369.574 195.01H388.299V193.01H369.574V195.01ZM387.299 194.01V196.775H389.299V194.01H387.299ZM388.299 195.775H380.529V197.775H388.299V195.775ZM379.529 196.775V219H381.529V196.775H379.529ZM391.717 219H390.717V220H391.717V219ZM391.717 194.01V193.01H390.717V194.01H391.717ZM394.867 194.01H395.867V193.01H394.867V194.01ZM394.867 204.58H393.867V205.58H394.867V204.58ZM405.122 205.525L404.706 206.434L404.706 206.434L405.122 205.525ZM408.097 208.08L407.227 208.572L407.227 208.572L408.097 208.08ZM407.992 215.535L407.141 215.01L407.137 215.017L407.133 215.023L407.992 215.535ZM405.017 218.09L404.602 217.18L405.017 218.09ZM404.212 215.185L404.801 215.994L404.806 215.989L404.812 215.985L404.212 215.185ZM404.982 209.13L404.182 209.73L404.194 209.746L404.207 209.762L404.982 209.13ZM402.777 207.73L402.496 208.69L402.503 208.692L402.777 207.73ZM394.867 207.31V206.31H393.867V207.31H394.867ZM394.867 216.305H393.867V217.305H394.867V216.305ZM392.717 219V194.01H390.717V219H392.717ZM391.717 195.01H394.867V193.01H391.717V195.01ZM393.867 194.01V204.58H395.867V194.01H393.867ZM394.867 205.58H399.557V203.58H394.867V205.58ZM399.557 205.58C401.817 205.58 403.512 205.888 404.706 206.434L405.538 204.616C403.98 203.902 401.964 203.58 399.557 203.58V205.58ZM404.706 206.434C405.936 206.997 406.746 207.721 407.227 208.572L408.968 207.588C408.236 206.293 407.062 205.313 405.538 204.616L404.706 206.434ZM407.227 208.572C407.742 209.484 408.007 210.513 408.007 211.685H410.007C410.007 210.197 409.666 208.823 408.968 207.588L407.227 208.572ZM408.007 211.685C408.007 212.996 407.707 214.092 407.141 215.01L408.843 216.06C409.631 214.784 410.007 213.314 410.007 211.685H408.007ZM407.133 215.023C406.599 215.921 405.775 216.645 404.602 217.18L405.432 219C406.92 218.321 408.079 217.343 408.851 216.047L407.133 215.023ZM404.602 217.18C403.444 217.708 401.907 218 399.942 218V220C402.085 220 403.931 219.685 405.432 219L404.602 217.18ZM399.942 218H391.717V220H399.942V218ZM399.627 217.305C401.752 217.305 403.528 216.919 404.801 215.994L403.624 214.376C402.843 214.944 401.563 215.305 399.627 215.305V217.305ZM404.812 215.985C406.147 214.984 406.752 213.486 406.752 211.685H404.752C404.752 213.01 404.332 213.846 403.612 214.385L404.812 215.985ZM406.752 211.685C406.752 210.456 406.457 209.357 405.758 208.498L404.207 209.762C404.534 210.163 404.752 210.767 404.752 211.685H406.752ZM405.782 208.53C405.132 207.663 404.189 207.093 403.052 206.768L402.503 208.692C403.326 208.927 403.853 209.291 404.182 209.73L405.782 208.53ZM403.058 206.77C401.979 206.454 400.675 206.31 399.172 206.31V208.31C400.563 208.31 401.662 208.446 402.496 208.69L403.058 206.77ZM399.172 206.31H394.867V208.31H399.172V206.31ZM393.867 207.31V216.305H395.867V207.31H393.867ZM394.867 217.305H399.627V215.305H394.867V217.305Z" fill="white" mask="url(#path-2-outside-1_544_160)"/>
</g>
<defs>
<filter id="filter0_dddddd_544_160" x="85.816" y="-103.184" width="469.368" height="476.368" filterUnits="userSpaceOnUse" color-interpolation-filters="sRGB">
<feFlood flood-opacity="0" result="BackgroundImageFix"/>
<feColorMatrix in="SourceAlpha" type="matrix" values="0 0 0 0 0 0 0 0 0 0 0 0 0 0 0 0 0 0 127 0" result="hardAlpha"/>
<feOffset/>
<feGaussianBlur stdDeviation="2.526"/>
<feColorMatrix type="matrix" values="0 0 0 0 0.301961 0 0 0 0 0.301961 0 0 0 0 0.301961 0 0 0 1 0"/>
<feBlend mode="normal" in2="BackgroundImageFix" result="effect1_dropShadow_544_160"/>
<feColorMatrix in="SourceAlpha" type="matrix" values="0 0 0 0 0 0 0 0 0 0 0 0 0 0 0 0 0 0 127 0" result="hardAlpha"/>
<feOffset/>
<feGaussianBlur stdDeviation="5.052"/>
<feColorMatrix type="matrix" values="0 0 0 0 0.301961 0 0 0 0 0.301961 0 0 0 0 0.301961 0 0 0 1 0"/>
<feBlend mode="normal" in2="effect1_dropShadow_544_160" result="effect2_dropShadow_544_160"/>
<feColorMatrix in="SourceAlpha" type="matrix" values="0 0 0 0 0 0 0 0 0 0 0 0 0 0 0 0 0 0 127 0" result="hardAlpha"/>
<feOffset/>
<feGaussianBlur stdDeviation="17.682"/>
<feColorMatrix type="matrix" values="0 0 0 0 0.301961 0 0 0 0 0.301961 0 0 0 0 0.301961 0 0 0 1 0"/>
<feBlend mode="normal" in2="effect2_dropShadow_544_160" result="effect3_dropShadow_544_160"/>
<feColorMatrix in="SourceAlpha" type="matrix" values="0 0 0 0 0 0 0 0 0 0 0 0 0 0 0 0 0 0 127 0" result="hardAlpha"/>
<feOffset/>
<feGaussianBlur stdDeviation="35.364"/>
<feColorMatrix type="matrix" values="0 0 0 0 0.301961 0 0 0 0 0.301961 0 0 0 0 0.301961 0 0 0 1 0"/>
<feBlend mode="normal" in2="effect3_dropShadow_544_160" result="effect4_dropShadow_544_160"/>
<feColorMatrix in="SourceAlpha" type="matrix" values="0 0 0 0 0 0 0 0 0 0 0 0 0 0 0 0 0 0 127 0" result="hardAlpha"/>
<feOffset/>
<feGaussianBlur stdDeviation="60.624"/>
<feColorMatrix type="matrix" values="0 0 0 0 0.301961 0 0 0 0 0.301961 0 0 0 0 0.301961 0 0 0 1 0"/>
<feBlend mode="normal" in2="effect4_dropShadow_544_160" result="effect5_dropShadow_544_160"/>
<feColorMatrix in="SourceAlpha" type="matrix" values="0 0 0 0 0 0 0 0 0 0 0 0 0 0 0 0 0 0 127 0" result="hardAlpha"/>
<feOffset/>
<feGaussianBlur stdDeviation="106.092"/>
<feColorMatrix type="matrix" values="0 0 0 0 0.301961 0 0 0 0 0.301961 0 0 0 0 0.301961 0 0 0 1 0"/>
<feBlend mode="normal" in2="effect5_dropShadow_544_160" result="effect6_dropShadow_544_160"/>
<feBlend mode="normal" in="SourceGraphic" in2="effect6_dropShadow_544_160" result="shape"/>
</filter>
<clipPath id="clip0_544_160">
<rect width="639" height="279" fill="white"/>
</clipPath>
</defs>
</svg>
