<svg width="1121" height="900" viewBox="0 0 1121 900" fill="none" xmlns="http://www.w3.org/2000/svg">
<g clip-path="url(#clip0_24_6)" filter="url(#filter0_dddddd_24_6)">
<g opacity="0.9">
<path d="M1576.49 265.408C1666.5 144.488 1552.07 -97.9557 1320.9 -276.107C1089.73 -454.258 829.359 -500.653 739.345 -379.734C649.331 -258.815 763.761 -16.3707 994.932 161.78C1226.1 339.931 1486.47 386.327 1576.49 265.408Z" stroke="white" stroke-width="0.8" stroke-miterlimit="10"/>
<path d="M1577.35 228.521C1660.6 107.217 1538.75 -122.956 1305.17 -285.585C1071.6 -448.213 814.764 -481.714 731.508 -360.409C648.253 -239.105 770.108 -8.93216 1003.68 153.697C1237.25 316.325 1494.09 349.825 1577.35 228.521Z" stroke="white" stroke-width="0.8" stroke-miterlimit="10"/>
<path d="M1012.51 145.852C1248.44 292.937 1501.73 313.513 1578.24 191.809C1654.75 70.1049 1525.52 -147.792 1289.59 -294.877C1053.66 -441.963 800.372 -462.539 723.86 -340.835C647.349 -219.131 776.583 -1.23389 1012.51 145.852Z" stroke="white" stroke-width="0.8" stroke-miterlimit="10"/>
<path d="M1021.29 137.852C1259.6 269.406 1509.35 277.067 1579.12 154.962C1648.88 32.8574 1512.25 -172.774 1273.93 -304.328C1035.61 -435.883 785.862 -443.543 716.097 -321.438C646.331 -199.334 782.97 6.29759 1021.29 137.852Z" stroke="white" stroke-width="0.8" stroke-miterlimit="10"/>
<path d="M1029.99 129.856C1270.71 245.912 1516.94 240.703 1579.95 118.22C1642.97 -4.26281 1498.91 -197.637 1258.19 -313.693C1017.47 -429.75 771.246 -424.54 708.229 -302.058C645.211 -179.575 789.268 13.7993 1029.99 129.856Z" stroke="white" stroke-width="0.8" stroke-miterlimit="10"/>
<path d="M1038.59 121.906C1281.68 222.43 1524.37 204.286 1580.65 81.3807C1636.94 -41.5248 1485.51 -222.65 1242.42 -323.174C999.329 -423.698 756.639 -405.554 700.353 -282.648C644.068 -159.743 795.501 21.3825 1038.59 121.906Z" stroke="white" stroke-width="0.8" stroke-miterlimit="10"/>
<path d="M1047.4 113.913C1292.89 198.904 1532.05 167.868 1581.57 44.5915C1631.1 -78.6848 1472.23 -247.519 1226.74 -332.51C981.247 -417.501 742.089 -386.465 692.565 -263.188C643.041 -139.912 801.906 28.9219 1047.4 113.913Z" stroke="white" stroke-width="0.8" stroke-miterlimit="10"/>
<path d="M1056.08 105.966C1303.93 175.433 1539.55 131.472 1582.34 7.77775C1625.13 -115.917 1458.9 -272.505 1211.04 -341.972C963.193 -411.439 727.579 -367.478 684.788 -243.784C641.996 -120.089 808.23 36.4992 1056.08 105.966Z" stroke="white" stroke-width="0.8" stroke-miterlimit="10"/>
<path d="M1064.93 97.9155C1315.17 151.811 1547.23 94.9207 1583.25 -29.1535C1619.28 -153.228 1445.62 -297.501 1195.38 -351.397C945.143 -405.293 713.083 -348.402 677.061 -224.328C641.038 -100.254 814.694 44.0196 1064.93 97.9155Z" stroke="white" stroke-width="0.8" stroke-miterlimit="10"/>
<path d="M1073.67 89.9821C1326.3 128.365 1554.84 58.5735 1584.13 -65.9022C1613.41 -190.378 1432.35 -322.401 1179.72 -360.784C927.081 -399.167 698.54 -329.375 669.255 -204.9C639.97 -80.4242 821.032 51.5989 1073.67 89.9821Z" stroke="white" stroke-width="0.8" stroke-miterlimit="10"/>
<path d="M1082.35 82.0863C1337.35 104.959 1562.36 22.2514 1584.91 -102.647C1607.47 -227.544 1419.03 -347.336 1164.02 -370.209C909.013 -393.082 684.006 -310.374 661.453 -185.476C638.899 -60.5783 827.34 59.2135 1082.35 82.0863Z" stroke="white" stroke-width="0.8" stroke-miterlimit="10"/>
<path d="M1091.17 74.0676C1348.56 81.3865 1570.02 -14.2528 1585.82 -139.549C1601.61 -264.845 1405.76 -372.351 1148.37 -379.67C890.981 -386.989 669.519 -291.349 653.722 -166.053C637.925 -40.7572 833.776 66.7486 1091.17 74.0676Z" stroke="white" stroke-width="0.8" stroke-miterlimit="10"/>
<path d="M1099.86 66.0852C1359.63 57.8946 1577.56 -50.6189 1586.62 -176.286C1595.68 -301.954 1392.43 -397.188 1132.66 -388.997C872.884 -380.806 654.953 -272.293 645.895 -146.625C636.837 -20.9579 840.083 74.2759 1099.86 66.0852Z" stroke="white" stroke-width="0.8" stroke-miterlimit="10"/>
<path d="M1108.7 58.0537C1370.88 34.2965 1585.27 -87.1529 1587.57 -213.211C1589.87 -339.269 1379.2 -422.201 1117.02 -398.444C854.847 -374.686 640.45 -253.237 638.153 -127.179C635.855 -1.12052 846.527 81.8109 1108.7 58.0537Z" stroke="white" stroke-width="0.8" stroke-miterlimit="10"/>
<path d="M1117.42 49.9675C1381.98 10.685 1592.84 -123.69 1588.4 -250.168C1583.95 -376.646 1365.88 -447.332 1101.32 -408.05C836.761 -368.767 625.895 -234.392 630.339 -107.914C634.784 18.5641 852.856 89.25 1117.42 49.9675Z" stroke="white" stroke-width="0.8" stroke-miterlimit="10"/>
<path d="M1126.04 42.0114C1393 -12.7953 1600.35 -160.06 1589.17 -286.913C1577.98 -413.766 1352.5 -472.172 1085.54 -417.365C818.583 -362.558 611.235 -215.294 622.418 -88.4405C633.601 38.4128 859.081 96.8181 1126.04 42.0114Z" stroke="white" stroke-width="0.8" stroke-miterlimit="10"/>
<path d="M1133.58 35.1381C1402.89 -35.2062 1606.68 -195.378 1588.75 -322.616C1570.82 -449.854 1337.96 -495.975 1068.64 -425.63C799.325 -355.286 595.536 -195.114 613.467 -67.8763C631.398 59.3614 864.259 105.483 1133.58 35.1381Z" stroke="white" stroke-width="0.8" stroke-miterlimit="10"/>
<path d="M1143.56 26.047C1415.27 -59.8306 1615.53 -232.929 1590.86 -360.579C1566.18 -488.228 1325.91 -522.091 1054.2 -436.214C782.488 -350.336 582.227 -177.238 606.904 -49.5884C631.58 78.0615 871.85 111.925 1143.56 26.047Z" stroke="white" stroke-width="0.8" stroke-miterlimit="10"/>
<path d="M1152.28 18.0253C1426.38 -83.37 1623.12 -269.353 1591.71 -397.38C1560.3 -525.407 1312.64 -546.996 1038.54 -445.601C764.439 -344.205 567.7 -158.222 599.108 -30.1952C630.517 97.8316 878.179 119.421 1152.28 18.0253Z" stroke="white" stroke-width="0.8" stroke-miterlimit="10"/>
<path d="M1161.05 9.98922C1437.52 -106.942 1630.72 -305.839 1592.57 -434.261C1554.41 -562.683 1299.36 -571.998 1022.88 -455.067C746.413 -338.137 553.218 -139.239 591.372 -10.8172C629.526 117.605 884.581 126.92 1161.05 9.98922Z" stroke="white" stroke-width="0.8" stroke-miterlimit="10"/>
<path d="M1169.8 2.00422C1448.64 -130.452 1638.28 -342.257 1593.39 -471.075C1548.49 -599.892 1286.05 -596.942 1007.21 -464.486C728.374 -332.029 538.727 -120.224 583.624 8.59324C628.521 137.411 890.96 134.461 1169.8 2.00422Z" stroke="white" stroke-width="0.8" stroke-miterlimit="10"/>
<path d="M1178.45 -5.80376C1459.71 -153.758 1645.85 -378.469 1594.23 -507.71C1542.6 -636.952 1272.75 -621.782 991.495 -473.828C710.242 -325.875 524.093 -101.163 575.72 28.0779C627.347 157.319 897.2 142.15 1178.45 -5.80376Z" stroke="white" stroke-width="0.8" stroke-miterlimit="10"/>
</g>
</g>
<defs>
<filter id="filter0_dddddd_24_6" x="-77.0172" y="-1448.02" width="2593.58" height="2591.27" filterUnits="userSpaceOnUse" color-interpolation-filters="sRGB">
<feFlood flood-opacity="0" result="BackgroundImageFix"/>
<feColorMatrix in="SourceAlpha" type="matrix" values="0 0 0 0 0 0 0 0 0 0 0 0 0 0 0 0 0 0 127 0" result="hardAlpha"/>
<feOffset/>
<feGaussianBlur stdDeviation="13.4766"/>
<feColorMatrix type="matrix" values="0 0 0 0 1 0 0 0 0 1 0 0 0 0 1 0 0 0 1 0"/>
<feBlend mode="normal" in2="BackgroundImageFix" result="effect1_dropShadow_24_6"/>
<feColorMatrix in="SourceAlpha" type="matrix" values="0 0 0 0 0 0 0 0 0 0 0 0 0 0 0 0 0 0 127 0" result="hardAlpha"/>
<feOffset/>
<feGaussianBlur stdDeviation="47.1681"/>
<feColorMatrix type="matrix" values="0 0 0 0 1 0 0 0 0 1 0 0 0 0 1 0 0 0 1 0"/>
<feBlend mode="normal" in2="effect1_dropShadow_24_6" result="effect2_dropShadow_24_6"/>
<feColorMatrix in="SourceAlpha" type="matrix" values="0 0 0 0 0 0 0 0 0 0 0 0 0 0 0 0 0 0 127 0" result="hardAlpha"/>
<feOffset/>
<feGaussianBlur stdDeviation="94.3362"/>
<feColorMatrix type="matrix" values="0 0 0 0 1 0 0 0 0 1 0 0 0 0 1 0 0 0 1 0"/>
<feBlend mode="normal" in2="effect2_dropShadow_24_6" result="effect3_dropShadow_24_6"/>
<feColorMatrix in="SourceAlpha" type="matrix" values="0 0 0 0 0 0 0 0 0 0 0 0 0 0 0 0 0 0 127 0" result="hardAlpha"/>
<feOffset/>
<feGaussianBlur stdDeviation="161.719"/>
<feColorMatrix type="matrix" values="0 0 0 0 1 0 0 0 0 1 0 0 0 0 1 0 0 0 1 0"/>
<feBlend mode="normal" in2="effect3_dropShadow_24_6" result="effect4_dropShadow_24_6"/>
<feColorMatrix in="SourceAlpha" type="matrix" values="0 0 0 0 0 0 0 0 0 0 0 0 0 0 0 0 0 0 127 0" result="hardAlpha"/>
<feOffset/>
<feGaussianBlur stdDeviation="283.009"/>
<feColorMatrix type="matrix" values="0 0 0 0 1 0 0 0 0 1 0 0 0 0 1 0 0 0 1 0"/>
<feBlend mode="normal" in2="effect4_dropShadow_24_6" result="effect5_dropShadow_24_6"/>
<feColorMatrix in="SourceAlpha" type="matrix" values="0 0 0 0 0 0 0 0 0 0 0 0 0 0 0 0 0 0 127 0" result="hardAlpha"/>
<feOffset dy="4"/>
<feGaussianBlur stdDeviation="2"/>
<feComposite in2="hardAlpha" operator="out"/>
<feColorMatrix type="matrix" values="0 0 0 0 0 0 0 0 0 0 0 0 0 0 0 0 0 0 0.25 0"/>
<feBlend mode="normal" in2="effect5_dropShadow_24_6" result="effect6_dropShadow_24_6"/>
<feBlend mode="normal" in="SourceGraphic" in2="effect6_dropShadow_24_6" result="shape"/>
</filter>
<clipPath id="clip0_24_6">
<rect width="1059.71" height="1051.85" fill="white" transform="translate(1061.64 -882) rotate(32.9847)"/>
</clipPath>
</defs>
</svg>
