<svg width="639" height="279" viewBox="0 0 639 279" fill="none" xmlns="http://www.w3.org/2000/svg">
<g clip-path="url(#clip0_544_160)">
<g filter="url(#filter0_dddddd_544_160)">
<path d="M298 120.155L304.12 116.913V129.113L316.653 136.186V143.966L298 133.121V120.155Z" fill="white"/>
<path d="M298 147.856V140.607L320.267 153.574L323.589 151.746V132.355L310.474 124.575V113.082L316.653 109.722V120.98L330.351 129.113V155.224L320.267 161L298 147.856Z" fill="white"/>
<path d="M323.589 116.913V109L343 120.155V147.856L336.18 151.746V124.575L323.589 116.913Z" fill="white"/>
</g>
<mask id="path-2-outside-1_544_160" maskUnits="userSpaceOnUse" x="210" y="191" width="222" height="29" fill="black">
<rect fill="white" x="210" y="191" width="222" height="29"/>
<path d="M211.395 218V193.01H230.155V218H227.04V195.775H214.545V218H211.395ZM258.451 205.47C258.451 207.407 258.206 209.168 257.716 210.755C257.226 212.318 256.491 213.672 255.511 214.815C254.554 215.958 253.352 216.833 251.906 217.44C250.482 218.047 248.826 218.35 246.936 218.35C244.976 218.35 243.272 218.047 241.826 217.44C240.379 216.81 239.177 215.935 238.221 214.815C237.264 213.672 236.552 212.307 236.086 210.72C235.619 209.133 235.386 207.372 235.386 205.435C235.386 202.868 235.806 200.628 236.646 198.715C237.486 196.802 238.757 195.308 240.461 194.235C242.187 193.162 244.357 192.625 246.971 192.625C249.467 192.625 251.567 193.162 253.271 194.235C254.974 195.285 256.257 196.778 257.121 198.715C258.007 200.628 258.451 202.88 258.451 205.47ZM238.711 205.47C238.711 207.57 239.002 209.378 239.586 210.895C240.169 212.412 241.067 213.578 242.281 214.395C243.517 215.212 245.069 215.62 246.936 215.62C248.826 215.62 250.366 215.212 251.556 214.395C252.769 213.578 253.667 212.412 254.251 210.895C254.834 209.378 255.126 207.57 255.126 205.47C255.126 202.32 254.472 199.858 253.166 198.085C251.859 196.288 249.794 195.39 246.971 195.39C245.081 195.39 243.517 195.798 242.281 196.615C241.067 197.408 240.169 198.563 239.586 200.08C239.002 201.573 238.711 203.37 238.711 205.47ZM270.254 193.01C273.521 193.01 275.901 193.652 277.394 194.935C278.888 196.218 279.634 198.027 279.634 200.36C279.634 201.387 279.459 202.378 279.109 203.335C278.783 204.268 278.234 205.108 277.464 205.855C276.694 206.602 275.668 207.197 274.384 207.64C273.101 208.06 271.526 208.27 269.659 208.27H266.789V218H263.639V193.01H270.254ZM269.974 195.705H266.789V205.575H269.309C270.896 205.575 272.214 205.412 273.264 205.085C274.314 204.735 275.096 204.187 275.609 203.44C276.123 202.693 276.379 201.713 276.379 200.5C276.379 198.89 275.866 197.688 274.839 196.895C273.813 196.102 272.191 195.705 269.974 195.705ZM292.391 218H289.241V195.775H281.436V193.01H300.161V195.775H292.391V218ZM315.794 192.66V195.74C318.501 195.787 320.636 196.23 322.199 197.07C323.762 197.91 324.871 199.03 325.524 200.43C326.177 201.807 326.504 203.347 326.504 205.05C326.504 206.17 326.329 207.29 325.979 208.41C325.652 209.507 325.081 210.51 324.264 211.42C323.447 212.307 322.351 213.03 320.974 213.59C319.597 214.15 317.871 214.453 315.794 214.5V218.35H312.679V214.5C310.556 214.453 308.794 214.15 307.394 213.59C306.017 213.007 304.932 212.26 304.139 211.35C303.346 210.417 302.786 209.402 302.459 208.305C302.132 207.208 301.969 206.123 301.969 205.05C301.969 203.813 302.144 202.647 302.494 201.55C302.867 200.43 303.462 199.45 304.279 198.61C305.119 197.747 306.227 197.058 307.604 196.545C308.981 196.032 310.672 195.763 312.679 195.74V192.66H315.794ZM312.679 198.4C310.812 198.447 309.319 198.75 308.199 199.31C307.102 199.87 306.321 200.64 305.854 201.62C305.387 202.577 305.154 203.708 305.154 205.015C305.154 206.392 305.411 207.593 305.924 208.62C306.461 209.623 307.277 210.405 308.374 210.965C309.494 211.525 310.929 211.84 312.679 211.91V198.4ZM315.794 211.91C317.591 211.84 319.037 211.513 320.134 210.93C321.254 210.347 322.059 209.553 322.549 208.55C323.062 207.523 323.319 206.345 323.319 205.015C323.319 203.685 323.086 202.542 322.619 201.585C322.152 200.605 321.371 199.847 320.274 199.31C319.177 198.75 317.684 198.447 315.794 198.4V211.91ZM353.164 205.47C353.164 207.407 352.919 209.168 352.429 210.755C351.939 212.318 351.204 213.672 350.224 214.815C349.267 215.958 348.066 216.833 346.619 217.44C345.196 218.047 343.539 218.35 341.649 218.35C339.689 218.35 337.986 218.047 336.539 217.44C335.092 216.81 333.891 215.935 332.934 214.815C331.977 213.672 331.266 212.307 330.799 210.72C330.332 209.133 330.099 207.372 330.099 205.435C330.099 202.868 330.519 200.628 331.359 198.715C332.199 196.802 333.471 195.308 335.174 194.235C336.901 193.162 339.071 192.625 341.684 192.625C344.181 192.625 346.281 193.162 347.984 194.235C349.687 195.285 350.971 196.778 351.834 198.715C352.721 200.628 353.164 202.88 353.164 205.47ZM333.424 205.47C333.424 207.57 333.716 209.378 334.299 210.895C334.882 212.412 335.781 213.578 336.994 214.395C338.231 215.212 339.782 215.62 341.649 215.62C343.539 215.62 345.079 215.212 346.269 214.395C347.482 213.578 348.381 212.412 348.964 210.895C349.547 209.378 349.839 207.57 349.839 205.47C349.839 202.32 349.186 199.858 347.879 198.085C346.572 196.288 344.507 195.39 341.684 195.39C339.794 195.39 338.231 195.798 336.994 196.615C335.781 197.408 334.882 198.563 334.299 200.08C333.716 201.573 333.424 203.37 333.424 205.47ZM375.659 218H372.509V195.775H364.599C364.436 197.058 364.261 198.412 364.074 199.835C363.887 201.235 363.689 202.623 363.479 204C363.292 205.377 363.106 206.672 362.919 207.885C362.732 209.098 362.546 210.16 362.359 211.07C362.056 212.633 361.682 213.963 361.239 215.06C360.796 216.157 360.201 216.985 359.454 217.545C358.731 218.105 357.774 218.385 356.584 218.385C356.187 218.385 355.779 218.338 355.359 218.245C354.962 218.175 354.612 218.082 354.309 217.965V215.34C354.566 215.457 354.857 215.562 355.184 215.655C355.511 215.725 355.861 215.76 356.234 215.76C356.934 215.76 357.482 215.48 357.879 214.92C358.299 214.337 358.626 213.625 358.859 212.785C359.092 211.922 359.291 211.07 359.454 210.23C359.594 209.553 359.757 208.655 359.944 207.535C360.131 206.392 360.329 205.062 360.539 203.545C360.772 202.028 361.006 200.383 361.239 198.61C361.496 196.813 361.741 194.947 361.974 193.01H375.659V218ZM382.134 193.01H385.074V206.73C385.074 207.313 385.063 207.955 385.039 208.655C385.039 209.332 385.028 210.008 385.004 210.685C384.981 211.362 384.946 211.968 384.899 212.505C384.876 213.018 384.853 213.415 384.829 213.695H384.969L398.724 193.01H402.224V218H399.284V204.42C399.284 203.79 399.296 203.113 399.319 202.39C399.343 201.643 399.366 200.932 399.389 200.255C399.436 199.555 399.471 198.937 399.494 198.4C399.518 197.863 399.541 197.467 399.564 197.21H399.424L385.634 218H382.134V193.01ZM430.42 205.47C430.42 207.407 430.175 209.168 429.685 210.755C429.195 212.318 428.46 213.672 427.48 214.815C426.523 215.958 425.321 216.833 423.875 217.44C422.451 218.047 420.795 218.35 418.905 218.35C416.945 218.35 415.241 218.047 413.795 217.44C412.348 216.81 411.146 215.935 410.19 214.815C409.233 213.672 408.521 212.307 408.055 210.72C407.588 209.133 407.355 207.372 407.355 205.435C407.355 202.868 407.775 200.628 408.615 198.715C409.455 196.802 410.726 195.308 412.43 194.235C414.156 193.162 416.326 192.625 418.94 192.625C421.436 192.625 423.536 193.162 425.24 194.235C426.943 195.285 428.226 196.778 429.09 198.715C429.976 200.628 430.42 202.88 430.42 205.47ZM410.68 205.47C410.68 207.57 410.971 209.378 411.555 210.895C412.138 212.412 413.036 213.578 414.25 214.395C415.486 215.212 417.038 215.62 418.905 215.62C420.795 215.62 422.335 215.212 423.525 214.395C424.738 213.578 425.636 212.412 426.22 210.895C426.803 209.378 427.095 207.57 427.095 205.47C427.095 202.32 426.441 199.858 425.135 198.085C423.828 196.288 421.763 195.39 418.94 195.39C417.05 195.39 415.486 195.798 414.25 196.615C413.036 197.408 412.138 198.563 411.555 200.08C410.971 201.573 410.68 203.37 410.68 205.47Z"/>
</mask>
<path d="M211.395 218H210.395V219H211.395V218ZM211.395 193.01V192.01H210.395V193.01H211.395ZM230.155 193.01H231.155V192.01H230.155V193.01ZM230.155 218V219H231.155V218H230.155ZM227.04 218H226.04V219H227.04V218ZM227.04 195.775H228.04V194.775H227.04V195.775ZM214.545 195.775V194.775H213.545V195.775H214.545ZM214.545 218V219H215.545V218H214.545ZM212.395 218V193.01H210.395V218H212.395ZM211.395 194.01H230.155V192.01H211.395V194.01ZM229.155 193.01V218H231.155V193.01H229.155ZM230.155 217H227.04V219H230.155V217ZM228.04 218V195.775H226.04V218H228.04ZM227.04 194.775H214.545V196.775H227.04V194.775ZM213.545 195.775V218H215.545V195.775H213.545ZM214.545 217H211.395V219H214.545V217ZM257.716 210.755L258.67 211.054L258.671 211.05L257.716 210.755ZM255.511 214.815L254.751 214.164L254.744 214.173L255.511 214.815ZM251.906 217.44L251.519 216.518L251.513 216.52L251.906 217.44ZM241.826 217.44L241.426 218.357L241.439 218.362L241.826 217.44ZM238.221 214.815L237.454 215.457L237.46 215.464L238.221 214.815ZM236.086 210.72L235.126 211.002L235.126 211.002L236.086 210.72ZM236.646 198.715L237.561 199.117L237.561 199.117L236.646 198.715ZM240.461 194.235L239.933 193.386L239.927 193.389L240.461 194.235ZM253.271 194.235L252.737 195.081L252.746 195.086L253.271 194.235ZM257.121 198.715L256.207 199.122L256.21 199.129L256.213 199.135L257.121 198.715ZM242.281 214.395L241.722 215.225L241.73 215.229L242.281 214.395ZM251.556 214.395L250.997 213.565L250.99 213.57L251.556 214.395ZM254.251 210.895L253.317 210.536L254.251 210.895ZM253.166 198.085L252.357 198.673L252.361 198.678L253.166 198.085ZM242.281 196.615L242.828 197.452L242.832 197.449L242.281 196.615ZM239.586 200.08L240.517 200.444L240.519 200.439L239.586 200.08ZM257.451 205.47C257.451 207.323 257.216 208.983 256.76 210.46L258.671 211.05C259.195 209.353 259.451 207.49 259.451 205.47H257.451ZM256.761 210.456C256.308 211.901 255.636 213.132 254.751 214.164L256.27 215.466C257.345 214.211 258.143 212.735 258.67 211.054L256.761 210.456ZM254.744 214.173C253.895 215.188 252.826 215.97 251.519 216.518L252.292 218.362C253.878 217.697 255.213 216.729 256.278 215.457L254.744 214.173ZM251.513 216.52C250.238 217.064 248.72 217.35 246.936 217.35V219.35C248.931 219.35 250.726 219.03 252.298 218.36L251.513 216.52ZM246.936 217.35C245.076 217.35 243.51 217.062 242.212 216.518L241.439 218.362C243.034 219.031 244.875 219.35 246.936 219.35V217.35ZM242.225 216.523C240.907 215.949 239.832 215.162 238.981 214.166L237.46 215.464C238.522 216.708 239.851 217.671 241.426 218.357L242.225 216.523ZM238.988 214.173C238.128 213.146 237.477 211.907 237.045 210.438L235.126 211.002C235.627 212.706 236.4 214.197 237.454 215.457L238.988 214.173ZM237.045 210.438C236.609 208.957 236.386 207.292 236.386 205.435H234.386C234.386 207.451 234.628 209.31 235.126 211.002L237.045 210.438ZM236.386 205.435C236.386 202.976 236.788 200.878 237.561 199.117L235.73 198.313C234.823 200.378 234.386 202.761 234.386 205.435H236.386ZM237.561 199.117C238.324 197.379 239.466 196.044 240.994 195.081L239.927 193.389C238.048 194.573 236.647 196.224 235.73 198.313L237.561 199.117ZM240.989 195.084C242.517 194.134 244.491 193.625 246.971 193.625V191.625C244.223 191.625 241.857 192.189 239.933 193.386L240.989 195.084ZM246.971 193.625C249.324 193.625 251.228 194.13 252.737 195.081L253.804 193.389C251.906 192.193 249.611 191.625 246.971 191.625V193.625ZM252.746 195.086C254.267 196.024 255.421 197.358 256.207 199.122L258.034 198.308C257.094 196.199 255.68 194.546 253.795 193.384L252.746 195.086ZM256.213 199.135C257.027 200.891 257.451 202.993 257.451 205.47H259.451C259.451 202.767 258.988 200.366 258.028 198.295L256.213 199.135ZM237.711 205.47C237.711 207.659 238.014 209.595 238.652 211.254L240.519 210.536C239.99 209.162 239.711 207.481 239.711 205.47H237.711ZM238.652 211.254C239.301 212.94 240.32 214.281 241.722 215.225L242.839 213.565C241.815 212.876 241.037 211.883 240.519 210.536L238.652 211.254ZM241.73 215.229C243.167 216.179 244.924 216.62 246.936 216.62V214.62C245.214 214.62 243.867 214.244 242.832 213.561L241.73 215.229ZM246.936 216.62C248.966 216.62 250.72 216.181 252.121 215.22L250.99 213.57C250.011 214.242 248.685 214.62 246.936 214.62V216.62ZM252.114 215.225C253.516 214.281 254.535 212.94 255.184 211.254L253.317 210.536C252.799 211.883 252.021 212.876 250.997 213.565L252.114 215.225ZM255.184 211.254C255.822 209.595 256.126 207.659 256.126 205.47H254.126C254.126 207.481 253.846 209.162 253.317 210.536L255.184 211.254ZM256.126 205.47C256.126 202.195 255.448 199.497 253.971 197.492L252.361 198.678C253.497 200.22 254.126 202.445 254.126 205.47H256.126ZM253.974 197.497C252.429 195.372 250.018 194.39 246.971 194.39V196.39C249.57 196.39 251.289 197.204 252.357 198.673L253.974 197.497ZM246.971 194.39C244.938 194.39 243.169 194.83 241.73 195.781L242.832 197.449C243.865 196.767 245.223 196.39 246.971 196.39V194.39ZM241.733 195.778C240.323 196.7 239.301 198.033 238.652 199.721L240.519 200.439C241.036 199.093 241.811 198.117 242.828 197.452L241.733 195.778ZM238.654 199.716C238.014 201.355 237.711 203.282 237.711 205.47H239.711C239.711 203.458 239.991 201.791 240.517 200.444L238.654 199.716ZM277.394 194.935L276.743 195.693L276.743 195.693L277.394 194.935ZM279.109 203.335L278.17 202.991L278.165 203.005L279.109 203.335ZM277.464 205.855L278.16 206.573L278.16 206.573L277.464 205.855ZM274.384 207.64L274.695 208.59L274.703 208.588L274.711 208.585L274.384 207.64ZM266.789 208.27V207.27H265.789V208.27H266.789ZM266.789 218V219H267.789V218H266.789ZM263.639 218H262.639V219H263.639V218ZM263.639 193.01V192.01H262.639V193.01H263.639ZM266.789 195.705V194.705H265.789V195.705H266.789ZM266.789 205.575H265.789V206.575H266.789V205.575ZM273.264 205.085L273.561 206.04L273.571 206.037L273.581 206.034L273.264 205.085ZM275.609 203.44L274.785 202.873L274.785 202.873L275.609 203.44ZM274.839 196.895L275.451 196.104L275.451 196.104L274.839 196.895ZM270.254 194.01C273.428 194.01 275.517 194.64 276.743 195.693L278.046 194.177C276.285 192.663 273.614 192.01 270.254 192.01V194.01ZM276.743 195.693C277.973 196.751 278.634 198.259 278.634 200.36H280.634C280.634 197.795 279.802 195.685 278.046 194.177L276.743 195.693ZM278.634 200.36C278.634 201.27 278.48 202.146 278.17 202.991L280.048 203.679C280.439 202.611 280.634 201.503 280.634 200.36H278.634ZM278.165 203.005C277.894 203.779 277.436 204.489 276.768 205.137L278.16 206.573C279.032 205.727 279.671 204.758 280.053 203.665L278.165 203.005ZM276.768 205.137C276.127 205.759 275.238 206.287 274.058 206.695L274.711 208.585C276.097 208.106 277.261 207.445 278.16 206.573L276.768 205.137ZM274.073 206.69C272.921 207.067 271.458 207.27 269.659 207.27V209.27C271.594 209.27 273.281 209.053 274.695 208.59L274.073 206.69ZM269.659 207.27H266.789V209.27H269.659V207.27ZM265.789 208.27V218H267.789V208.27H265.789ZM266.789 217H263.639V219H266.789V217ZM264.639 218V193.01H262.639V218H264.639ZM263.639 194.01H270.254V192.01H263.639V194.01ZM269.974 194.705H266.789V196.705H269.974V194.705ZM265.789 195.705V205.575H267.789V195.705H265.789ZM266.789 206.575H269.309V204.575H266.789V206.575ZM269.309 206.575C270.956 206.575 272.383 206.406 273.561 206.04L272.967 204.13C272.046 204.417 270.836 204.575 269.309 204.575V206.575ZM273.581 206.034C274.79 205.63 275.772 204.969 276.433 204.007L274.785 202.873C274.42 203.404 273.839 203.839 272.948 204.136L273.581 206.034ZM276.433 204.007C277.094 203.045 277.379 201.848 277.379 200.5H275.379C275.379 201.578 275.151 202.341 274.785 202.873L276.433 204.007ZM277.379 200.5C277.379 198.663 276.781 197.132 275.451 196.104L274.228 197.686C274.951 198.245 275.379 199.117 275.379 200.5H277.379ZM275.451 196.104C274.163 195.108 272.271 194.705 269.974 194.705V196.705C272.111 196.705 273.463 197.095 274.228 197.686L275.451 196.104ZM292.391 218V219H293.391V218H292.391ZM289.241 218H288.241V219H289.241V218ZM289.241 195.775H290.241V194.775H289.241V195.775ZM281.436 195.775H280.436V196.775H281.436V195.775ZM281.436 193.01V192.01H280.436V193.01H281.436ZM300.161 193.01H301.161V192.01H300.161V193.01ZM300.161 195.775V196.775H301.161V195.775H300.161ZM292.391 195.775V194.775H291.391V195.775H292.391ZM292.391 217H289.241V219H292.391V217ZM290.241 218V195.775H288.241V218H290.241ZM289.241 194.775H281.436V196.775H289.241V194.775ZM282.436 195.775V193.01H280.436V195.775H282.436ZM281.436 194.01H300.161V192.01H281.436V194.01ZM299.161 193.01V195.775H301.161V193.01H299.161ZM300.161 194.775H292.391V196.775H300.161V194.775ZM291.391 195.775V218H293.391V195.775H291.391ZM315.794 192.66H316.794V191.66H315.794V192.66ZM315.794 195.74H314.794V196.723L315.777 196.74L315.794 195.74ZM322.199 197.07L322.672 196.189L322.672 196.189L322.199 197.07ZM325.524 200.43L324.618 200.853L324.621 200.859L325.524 200.43ZM325.979 208.41L325.024 208.112L325.021 208.125L325.979 208.41ZM324.264 211.42L325 212.098L325.008 212.088L324.264 211.42ZM320.974 213.59L321.351 214.516L321.351 214.516L320.974 213.59ZM315.794 214.5L315.772 213.5L314.794 213.522V214.5H315.794ZM315.794 218.35V219.35H316.794V218.35H315.794ZM312.679 218.35H311.679V219.35H312.679V218.35ZM312.679 214.5H313.679V213.522L312.701 213.5L312.679 214.5ZM307.394 213.59L307.004 214.511L307.013 214.515L307.023 214.518L307.394 213.59ZM304.139 211.35L303.377 211.998L303.385 212.007L304.139 211.35ZM302.459 208.305L303.417 208.02L303.417 208.02L302.459 208.305ZM302.494 201.55L301.545 201.234L301.541 201.246L302.494 201.55ZM304.279 198.61L303.562 197.913L303.562 197.913L304.279 198.61ZM307.604 196.545L307.255 195.608L307.255 195.608L307.604 196.545ZM312.679 195.74L312.691 196.74L313.679 196.728V195.74H312.679ZM312.679 192.66V191.66H311.679V192.66H312.679ZM312.679 198.4H313.679V197.375L312.654 197.4L312.679 198.4ZM308.199 199.31L307.752 198.416L307.744 198.419L308.199 199.31ZM305.854 201.62L306.753 202.058L306.757 202.05L305.854 201.62ZM305.924 208.62L305.03 209.067L305.036 209.08L305.042 209.092L305.924 208.62ZM308.374 210.965L307.919 211.856L307.927 211.859L308.374 210.965ZM312.679 211.91L312.639 212.909L313.679 212.951V211.91H312.679ZM315.794 211.91H314.794V212.95L315.833 212.909L315.794 211.91ZM320.134 210.93L319.672 210.043L319.664 210.047L320.134 210.93ZM322.549 208.55L321.655 208.103L321.65 208.111L322.549 208.55ZM322.619 201.585L321.716 202.015L321.72 202.023L322.619 201.585ZM320.274 199.31L319.819 200.201L319.827 200.204L319.834 200.208L320.274 199.31ZM315.794 198.4L315.819 197.4L314.794 197.375V198.4H315.794ZM314.794 192.66V195.74H316.794V192.66H314.794ZM315.777 196.74C318.4 196.785 320.357 197.216 321.726 197.951L322.672 196.189C320.914 195.244 318.601 194.788 315.811 194.74L315.777 196.74ZM321.726 197.951C323.129 198.705 324.069 199.676 324.618 200.853L326.43 200.007C325.673 198.384 324.396 197.115 322.672 196.189L321.726 197.951ZM324.621 200.859C325.203 202.086 325.504 203.477 325.504 205.05H327.504C327.504 203.216 327.151 201.527 326.427 200.001L324.621 200.859ZM325.504 205.05C325.504 206.064 325.346 207.084 325.025 208.112L326.933 208.708C327.312 207.496 327.504 206.276 327.504 205.05H325.504ZM325.021 208.125C324.739 209.07 324.245 209.944 323.52 210.752L325.008 212.088C325.917 211.076 326.566 209.943 326.937 208.695L325.021 208.125ZM323.528 210.743C322.832 211.499 321.868 212.147 320.597 212.664L321.351 214.516C322.833 213.913 324.063 213.115 325 212.097L323.528 210.743ZM320.597 212.664C319.368 213.164 317.771 213.455 315.772 213.5L315.816 215.5C317.97 215.451 319.826 215.136 321.351 214.516L320.597 212.664ZM314.794 214.5V218.35H316.794V214.5H314.794ZM315.794 217.35H312.679V219.35H315.794V217.35ZM313.679 218.35V214.5H311.679V218.35H313.679ZM312.701 213.5C310.652 213.455 309.019 213.163 307.765 212.662L307.023 214.518C308.569 215.137 310.459 215.451 312.657 215.5L312.701 213.5ZM307.784 212.669C306.515 212.131 305.566 211.465 304.893 210.693L303.385 212.007C304.299 213.055 305.52 213.882 307.004 214.511L307.784 212.669ZM304.901 210.702C304.191 209.867 303.702 208.974 303.417 208.02L301.501 208.59C301.87 209.829 302.5 210.966 303.377 211.998L304.901 210.702ZM303.417 208.02C303.116 207.009 302.969 206.02 302.969 205.05H300.969C300.969 206.226 301.148 207.407 301.501 208.59L303.417 208.02ZM302.969 205.05C302.969 203.909 303.13 202.845 303.447 201.854L301.541 201.246C301.158 202.448 300.969 203.718 300.969 205.05H302.969ZM303.443 201.866C303.769 200.888 304.285 200.038 304.996 199.307L303.562 197.913C302.64 198.862 301.966 199.972 301.545 201.234L303.443 201.866ZM304.996 199.307C305.712 198.571 306.685 197.955 307.953 197.482L307.255 195.608C305.769 196.162 304.526 196.923 303.562 197.913L304.996 199.307ZM307.953 197.482C309.19 197.021 310.76 196.762 312.691 196.74L312.667 194.74C310.585 194.764 308.771 195.043 307.255 195.608L307.953 197.482ZM313.679 195.74V192.66H311.679V195.74H313.679ZM312.679 193.66H315.794V191.66H312.679V193.66ZM312.654 197.4C310.706 197.449 309.051 197.766 307.752 198.416L308.646 200.204C309.587 199.734 310.918 199.444 312.704 199.4L312.654 197.4ZM307.744 198.419C306.479 199.065 305.525 199.985 304.951 201.19L306.757 202.05C307.116 201.295 307.725 200.675 308.654 200.201L307.744 198.419ZM304.955 201.182C304.409 202.302 304.154 203.59 304.154 205.015H306.154C306.154 203.826 306.366 202.851 306.753 202.058L304.955 201.182ZM304.154 205.015C304.154 206.516 304.434 207.877 305.03 209.067L306.818 208.173C306.387 207.31 306.154 206.267 306.154 205.015H304.154ZM305.042 209.092C305.683 210.29 306.656 211.211 307.919 211.856L308.829 210.074C307.898 209.599 307.238 208.957 306.806 208.148L305.042 209.092ZM307.927 211.859C309.214 212.503 310.8 212.836 312.639 212.909L312.719 210.911C311.058 210.844 309.774 210.547 308.821 210.071L307.927 211.859ZM313.679 211.91V198.4H311.679V211.91H313.679ZM315.833 212.909C317.718 212.836 319.328 212.491 320.604 211.813L319.664 210.047C318.747 210.535 317.464 210.844 315.755 210.911L315.833 212.909ZM320.596 211.817C321.88 211.148 322.852 210.209 323.448 208.989L321.65 208.111C321.266 208.898 320.628 209.545 319.672 210.043L320.596 211.817ZM323.443 208.997C324.036 207.811 324.319 206.476 324.319 205.015H322.319C322.319 206.214 322.088 207.235 321.655 208.103L323.443 208.997ZM324.319 205.015C324.319 203.57 324.066 202.27 323.518 201.147L321.72 202.023C322.106 202.814 322.319 203.8 322.319 205.015H324.319ZM323.522 201.155C322.946 199.946 321.986 199.035 320.714 198.412L319.834 200.208C320.755 200.659 321.359 201.264 321.716 202.015L323.522 201.155ZM320.729 198.419C319.446 197.765 317.786 197.449 315.819 197.4L315.769 199.4C317.582 199.444 318.908 199.735 319.819 200.201L320.729 198.419ZM314.794 198.4V211.91H316.794V198.4H314.794ZM352.429 210.755L353.383 211.054L353.384 211.05L352.429 210.755ZM350.224 214.815L349.465 214.164L349.457 214.173L350.224 214.815ZM346.619 217.44L346.232 216.518L346.227 216.52L346.619 217.44ZM336.539 217.44L336.14 218.357L336.152 218.362L336.539 217.44ZM332.934 214.815L332.167 215.457L332.173 215.464L332.934 214.815ZM330.799 210.72L329.84 211.002L329.84 211.002L330.799 210.72ZM331.359 198.715L332.275 199.117L332.275 199.117L331.359 198.715ZM335.174 194.235L334.646 193.386L334.641 193.389L335.174 194.235ZM347.984 194.235L347.451 195.081L347.459 195.086L347.984 194.235ZM351.834 198.715L350.921 199.122L350.923 199.129L350.927 199.135L351.834 198.715ZM336.994 214.395L336.435 215.225L336.443 215.229L336.994 214.395ZM346.269 214.395L345.71 213.565L345.703 213.57L346.269 214.395ZM348.964 210.895L348.031 210.536L348.964 210.895ZM347.879 198.085L347.07 198.673L347.074 198.678L347.879 198.085ZM336.994 196.615L337.541 197.452L337.545 197.449L336.994 196.615ZM334.299 200.08L335.23 200.444L335.232 200.439L334.299 200.08ZM352.164 205.47C352.164 207.323 351.929 208.983 351.473 210.46L353.384 211.05C353.908 209.353 354.164 207.49 354.164 205.47H352.164ZM351.475 210.456C351.022 211.901 350.349 213.132 349.465 214.164L350.983 215.466C352.059 214.211 352.856 212.735 353.383 211.054L351.475 210.456ZM349.457 214.173C348.608 215.188 347.539 215.97 346.232 216.518L347.006 218.362C348.592 217.697 349.926 216.729 350.991 215.457L349.457 214.173ZM346.227 216.52C344.952 217.064 343.433 217.35 341.649 217.35V219.35C343.645 219.35 345.439 219.03 347.011 218.36L346.227 216.52ZM341.649 217.35C339.79 217.35 338.223 217.062 336.926 216.518L336.152 218.362C337.748 219.031 339.588 219.35 341.649 219.35V217.35ZM336.938 216.523C335.62 215.949 334.545 215.162 333.694 214.166L332.173 215.464C333.236 216.708 334.564 217.671 336.14 218.357L336.938 216.523ZM333.701 214.173C332.841 213.146 332.19 211.907 331.758 210.438L329.84 211.002C330.341 212.706 331.113 214.197 332.167 215.457L333.701 214.173ZM331.758 210.438C331.323 208.957 331.099 207.292 331.099 205.435H329.099C329.099 207.451 329.342 209.31 329.84 211.002L331.758 210.438ZM331.099 205.435C331.099 202.976 331.501 200.878 332.275 199.117L330.443 198.313C329.536 200.378 329.099 202.761 329.099 205.435H331.099ZM332.275 199.117C333.037 197.379 334.179 196.044 335.707 195.081L334.641 193.389C332.762 194.573 331.36 196.224 330.443 198.313L332.275 199.117ZM335.702 195.084C337.231 194.134 339.205 193.625 341.684 193.625V191.625C338.936 191.625 336.57 192.189 334.646 193.386L335.702 195.084ZM341.684 193.625C344.037 193.625 345.941 194.13 347.451 195.081L348.517 193.389C346.62 192.193 344.324 191.625 341.684 191.625V193.625ZM347.459 195.086C348.981 196.024 350.134 197.358 350.921 199.122L352.747 198.308C351.807 196.199 350.394 194.546 348.509 193.384L347.459 195.086ZM350.927 199.135C351.74 200.891 352.164 202.993 352.164 205.47H354.164C354.164 202.767 353.701 200.366 352.741 198.295L350.927 199.135ZM332.424 205.47C332.424 207.659 332.727 209.595 333.366 211.254L335.232 210.536C334.704 209.162 334.424 207.481 334.424 205.47H332.424ZM333.366 211.254C334.014 212.94 335.033 214.281 336.435 215.225L337.552 213.565C336.528 212.876 335.75 211.883 335.232 210.536L333.366 211.254ZM336.443 215.229C337.881 216.179 339.637 216.62 341.649 216.62V214.62C339.927 214.62 338.58 214.244 337.545 213.561L336.443 215.229ZM341.649 216.62C343.679 216.62 345.434 216.181 346.835 215.22L345.703 213.57C344.724 214.242 343.399 214.62 341.649 214.62V216.62ZM346.827 215.225C348.23 214.281 349.249 212.94 349.897 211.254L348.031 210.536C347.512 211.883 346.735 212.876 345.71 213.565L346.827 215.225ZM349.897 211.254C350.535 209.595 350.839 207.659 350.839 205.47H348.839C348.839 207.481 348.559 209.162 348.031 210.536L349.897 211.254ZM350.839 205.47C350.839 202.195 350.161 199.497 348.684 197.492L347.074 198.678C348.21 200.22 348.839 202.445 348.839 205.47H350.839ZM348.688 197.497C347.143 195.372 344.731 194.39 341.684 194.39V196.39C344.283 196.39 346.002 197.204 347.07 198.673L348.688 197.497ZM341.684 194.39C339.652 194.39 337.883 194.83 336.443 195.781L337.545 197.449C338.578 196.767 339.936 196.39 341.684 196.39V194.39ZM336.447 195.778C335.037 196.7 334.015 198.033 333.366 199.721L335.232 200.439C335.75 199.093 336.524 198.117 337.541 197.452L336.447 195.778ZM333.367 199.716C332.727 201.355 332.424 203.282 332.424 205.47H334.424C334.424 203.458 334.704 201.791 335.23 200.444L333.367 199.716ZM375.659 218V219H376.659V218H375.659ZM372.509 218H371.509V219H372.509V218ZM372.509 195.775H373.509V194.775H372.509V195.775ZM364.599 195.775V194.775H363.718L363.607 195.649L364.599 195.775ZM364.074 199.835L365.065 199.967L365.066 199.965L364.074 199.835ZM363.479 204L362.49 203.849L362.489 203.857L362.488 203.866L363.479 204ZM362.919 207.885L361.931 207.733L361.931 207.733L362.919 207.885ZM362.359 211.07L361.379 210.869L361.377 210.88L362.359 211.07ZM361.239 215.06L362.166 215.435L362.166 215.435L361.239 215.06ZM359.454 217.545L358.854 216.745L358.848 216.75L358.842 216.754L359.454 217.545ZM355.359 218.245L355.576 217.269L355.554 217.264L355.533 217.26L355.359 218.245ZM354.309 217.965H353.309V218.652L353.95 218.898L354.309 217.965ZM354.309 215.34L354.723 214.43L353.309 213.787V215.34H354.309ZM355.184 215.655L354.909 216.617L354.942 216.626L354.974 216.633L355.184 215.655ZM357.879 214.92L357.067 214.336L357.063 214.342L357.879 214.92ZM358.859 212.785L359.823 213.053L359.824 213.046L358.859 212.785ZM359.454 210.23L358.475 210.027L358.472 210.039L359.454 210.23ZM359.944 207.535L360.93 207.699L360.931 207.696L359.944 207.535ZM360.539 203.545L359.551 203.393L359.55 203.4L359.548 203.408L360.539 203.545ZM361.239 198.61L360.249 198.469L360.248 198.48L361.239 198.61ZM361.974 193.01V192.01H361.087L360.981 192.89L361.974 193.01ZM375.659 193.01H376.659V192.01H375.659V193.01ZM375.659 217H372.509V219H375.659V217ZM373.509 218V195.775H371.509V218H373.509ZM372.509 194.775H364.599V196.775H372.509V194.775ZM363.607 195.649C363.444 196.931 363.269 198.283 363.083 199.705L365.066 199.965C365.252 198.541 365.428 197.186 365.591 195.901L363.607 195.649ZM363.083 199.703C362.897 201.097 362.699 202.479 362.49 203.849L364.468 204.151C364.679 202.768 364.878 201.373 365.065 199.967L363.083 199.703ZM362.488 203.866C362.302 205.237 362.116 206.526 361.931 207.733L363.907 208.037C364.095 206.817 364.283 205.516 364.47 204.134L362.488 203.866ZM361.931 207.733C361.746 208.935 361.562 209.979 361.379 210.869L363.339 211.271C363.529 210.341 363.719 209.262 363.907 208.037L361.931 207.733ZM361.377 210.88C361.082 212.4 360.725 213.664 360.312 214.685L362.166 215.435C362.64 214.262 363.029 212.867 363.341 211.26L361.377 210.88ZM360.312 214.685C359.919 215.658 359.421 216.32 358.854 216.745L360.054 218.345C360.981 217.65 361.673 216.656 362.166 215.435L360.312 214.685ZM358.842 216.754C358.34 217.143 357.619 217.385 356.584 217.385V219.385C357.929 219.385 359.121 219.067 360.066 218.336L358.842 216.754ZM356.584 217.385C356.266 217.385 355.931 217.348 355.576 217.269L355.142 219.221C355.627 219.329 356.109 219.385 356.584 219.385V217.385ZM355.533 217.26C355.185 217.199 354.899 217.121 354.668 217.032L353.95 218.898C354.326 219.043 354.74 219.151 355.185 219.23L355.533 217.26ZM355.309 217.965V215.34H353.309V217.965H355.309ZM353.895 216.25C354.205 216.391 354.544 216.512 354.909 216.617L355.459 214.693C355.17 214.611 354.926 214.522 354.723 214.43L353.895 216.25ZM354.974 216.633C355.378 216.719 355.798 216.76 356.234 216.76V214.76C355.923 214.76 355.644 214.731 355.394 214.677L354.974 216.633ZM356.234 216.76C357.251 216.76 358.106 216.329 358.695 215.498L357.063 214.342C356.858 214.631 356.617 214.76 356.234 214.76V216.76ZM358.691 215.504C359.192 214.807 359.564 213.983 359.823 213.053L357.895 212.517C357.687 213.267 357.406 213.866 357.067 214.336L358.691 215.504ZM359.824 213.046C360.064 212.16 360.268 211.285 360.436 210.421L358.472 210.039C358.314 210.855 358.121 211.683 357.894 212.524L359.824 213.046ZM360.433 210.433C360.577 209.738 360.743 208.825 360.93 207.699L358.958 207.371C358.772 208.485 358.611 209.369 358.475 210.027L360.433 210.433ZM360.931 207.696C361.119 206.543 361.319 205.204 361.53 203.682L359.548 203.408C359.339 204.919 359.142 206.241 358.957 207.374L360.931 207.696ZM361.527 203.697C361.762 202.172 361.996 200.52 362.23 198.74L360.248 198.48C360.015 200.247 359.783 201.885 359.551 203.393L361.527 203.697ZM362.229 198.751C362.487 196.947 362.733 195.073 362.967 193.13L360.981 192.89C360.749 194.82 360.505 196.68 360.249 198.469L362.229 198.751ZM361.974 194.01H375.659V192.01H361.974V194.01ZM374.659 193.01V218H376.659V193.01H374.659ZM382.134 193.01V192.01H381.134V193.01H382.134ZM385.074 193.01H386.074V192.01H385.074V193.01ZM385.039 208.655L384.04 208.622L384.039 208.638V208.655H385.039ZM384.899 212.505L383.903 212.418L383.901 212.439L383.9 212.46L384.899 212.505ZM384.829 213.695L383.833 213.612L383.743 214.695H384.829V213.695ZM384.969 213.695V214.695H385.505L385.802 214.249L384.969 213.695ZM398.724 193.01V192.01H398.188L397.892 192.456L398.724 193.01ZM402.224 193.01H403.224V192.01H402.224V193.01ZM402.224 218V219H403.224V218H402.224ZM399.284 218H398.284V219H399.284V218ZM399.319 202.39L400.319 202.422L400.319 202.421L399.319 202.39ZM399.389 200.255L398.392 200.188L398.39 200.204L398.39 200.221L399.389 200.255ZM399.564 197.21L400.56 197.301L400.659 196.21H399.564V197.21ZM399.424 197.21V196.21H398.888L398.591 196.657L399.424 197.21ZM385.634 218V219H386.171L386.468 218.553L385.634 218ZM382.134 218H381.134V219H382.134V218ZM382.134 194.01H385.074V192.01H382.134V194.01ZM384.074 193.01V206.73H386.074V193.01H384.074ZM384.074 206.73C384.074 207.3 384.063 207.931 384.04 208.622L386.039 208.688C386.062 207.979 386.074 207.326 386.074 206.73H384.074ZM384.039 208.655C384.039 209.32 384.028 209.985 384.005 210.651L386.004 210.719C386.027 210.031 386.039 209.343 386.039 208.655H384.039ZM384.005 210.651C383.982 211.314 383.948 211.903 383.903 212.418L385.896 212.592C385.944 212.034 385.98 211.409 386.004 210.719L384.005 210.651ZM383.9 212.46C383.877 212.969 383.855 213.351 383.833 213.612L385.826 213.778C385.851 213.479 385.875 213.068 385.898 212.55L383.9 212.46ZM384.829 214.695H384.969V212.695H384.829V214.695ZM385.802 214.249L399.557 193.564L397.892 192.456L384.137 213.141L385.802 214.249ZM398.724 194.01H402.224V192.01H398.724V194.01ZM401.224 193.01V218H403.224V193.01H401.224ZM402.224 217H399.284V219H402.224V217ZM400.284 218V204.42H398.284V218H400.284ZM400.284 204.42C400.284 203.802 400.296 203.136 400.319 202.422L398.32 202.358C398.296 203.09 398.284 203.778 398.284 204.42H400.284ZM400.319 202.421C400.342 201.676 400.365 200.965 400.389 200.289L398.39 200.221C398.367 200.898 398.343 201.611 398.32 202.359L400.319 202.421ZM400.387 200.322C400.434 199.616 400.47 198.99 400.493 198.443L398.495 198.357C398.472 198.884 398.438 199.494 398.392 200.188L400.387 200.322ZM400.493 198.443C400.517 197.909 400.539 197.532 400.56 197.301L398.568 197.119C398.543 197.401 398.519 197.817 398.495 198.357L400.493 198.443ZM399.564 196.21H399.424V198.21H399.564V196.21ZM398.591 196.657L384.801 217.447L386.468 218.553L400.258 197.763L398.591 196.657ZM385.634 217H382.134V219H385.634V217ZM383.134 218V193.01H381.134V218H383.134ZM429.685 210.755L430.639 211.054L430.64 211.05L429.685 210.755ZM427.48 214.815L426.72 214.164L426.713 214.173L427.48 214.815ZM423.875 217.44L423.488 216.518L423.482 216.52L423.875 217.44ZM413.795 217.44L413.395 218.357L413.408 218.362L413.795 217.44ZM410.19 214.815L409.423 215.457L409.429 215.464L410.19 214.815ZM408.055 210.72L407.095 211.002L407.095 211.002L408.055 210.72ZM408.615 198.715L409.53 199.117L409.53 199.117L408.615 198.715ZM412.43 194.235L411.902 193.386L411.896 193.389L412.43 194.235ZM425.24 194.235L424.706 195.081L424.715 195.086L425.24 194.235ZM429.09 198.715L428.176 199.122L428.179 199.129L428.182 199.135L429.09 198.715ZM414.25 214.395L413.691 215.225L413.698 215.229L414.25 214.395ZM423.525 214.395L422.966 213.565L422.959 213.57L423.525 214.395ZM426.22 210.895L425.286 210.536L426.22 210.895ZM425.135 198.085L424.326 198.673L424.329 198.678L425.135 198.085ZM414.25 196.615L414.797 197.452L414.801 197.449L414.25 196.615ZM411.555 200.08L412.486 200.444L412.488 200.439L411.555 200.08ZM429.42 205.47C429.42 207.323 429.185 208.983 428.729 210.46L430.64 211.05C431.164 209.353 431.42 207.49 431.42 205.47H429.42ZM428.73 210.456C428.277 211.901 427.605 213.132 426.72 214.164L428.239 215.466C429.314 214.211 430.112 212.735 430.639 211.054L428.73 210.456ZM426.713 214.173C425.864 215.188 424.795 215.97 423.488 216.518L424.261 218.362C425.847 217.697 427.182 216.729 428.246 215.457L426.713 214.173ZM423.482 216.52C422.207 217.064 420.689 217.35 418.905 217.35V219.35C420.9 219.35 422.695 219.03 424.267 218.36L423.482 216.52ZM418.905 217.35C417.045 217.35 415.479 217.062 414.181 216.518L413.408 218.362C415.003 219.031 416.844 219.35 418.905 219.35V217.35ZM414.194 216.523C412.876 215.949 411.801 215.162 410.95 214.166L409.429 215.464C410.491 216.708 411.82 217.671 413.395 218.357L414.194 216.523ZM410.956 214.173C410.097 213.146 409.446 211.907 409.014 210.438L407.095 211.002C407.596 212.706 408.369 214.197 409.423 215.457L410.956 214.173ZM409.014 210.438C408.578 208.957 408.355 207.292 408.355 205.435H406.355C406.355 207.451 406.597 209.31 407.095 211.002L409.014 210.438ZM408.355 205.435C408.355 202.976 408.757 200.878 409.53 199.117L407.699 198.313C406.792 200.378 406.355 202.761 406.355 205.435H408.355ZM409.53 199.117C410.293 197.379 411.435 196.044 412.963 195.081L411.896 193.389C410.017 194.573 408.616 196.224 407.699 198.313L409.53 199.117ZM412.957 195.084C414.486 194.134 416.46 193.625 418.94 193.625V191.625C416.192 191.625 413.826 192.189 411.902 193.386L412.957 195.084ZM418.94 193.625C421.293 193.625 423.197 194.13 424.706 195.081L425.773 193.389C423.875 192.193 421.58 191.625 418.94 191.625V193.625ZM424.715 195.086C426.236 196.024 427.39 197.358 428.176 199.122L430.003 198.308C429.063 196.199 427.649 194.546 425.764 193.384L424.715 195.086ZM428.182 199.135C428.996 200.891 429.42 202.993 429.42 205.47H431.42C431.42 202.767 430.957 200.366 429.997 198.295L428.182 199.135ZM409.68 205.47C409.68 207.659 409.983 209.595 410.621 211.254L412.488 210.536C411.959 209.162 411.68 207.481 411.68 205.47H409.68ZM410.621 211.254C411.27 212.94 412.289 214.281 413.691 215.225L414.808 213.565C413.784 212.876 413.006 211.883 412.488 210.536L410.621 211.254ZM413.698 215.229C415.136 216.179 416.893 216.62 418.905 216.62V214.62C417.183 214.62 415.836 214.244 414.801 213.561L413.698 215.229ZM418.905 216.62C420.935 216.62 422.689 216.181 424.09 215.22L422.959 213.57C421.98 214.242 420.654 214.62 418.905 214.62V216.62ZM424.083 215.225C425.485 214.281 426.504 212.94 427.153 211.254L425.286 210.536C424.768 211.883 423.99 212.876 422.966 213.565L424.083 215.225ZM427.153 211.254C427.791 209.595 428.095 207.659 428.095 205.47H426.095C426.095 207.481 425.815 209.162 425.286 210.536L427.153 211.254ZM428.095 205.47C428.095 202.195 427.417 199.497 425.94 197.492L424.329 198.678C425.465 200.22 426.095 202.445 426.095 205.47H428.095ZM425.943 197.497C424.398 195.372 421.987 194.39 418.94 194.39V196.39C421.539 196.39 423.257 197.204 424.326 198.673L425.943 197.497ZM418.94 194.39C416.907 194.39 415.138 194.83 413.698 195.781L414.801 197.449C415.834 196.767 417.192 196.39 418.94 196.39V194.39ZM413.702 195.778C412.292 196.7 411.27 198.033 410.621 199.721L412.488 200.439C413.005 199.093 413.78 198.117 414.797 197.452L413.702 195.778ZM410.623 199.716C409.983 201.355 409.68 203.282 409.68 205.47H411.68C411.68 203.458 411.96 201.791 412.486 200.444L410.623 199.716Z" fill="white" mask="url(#path-2-outside-1_544_160)"/>
</g>
<defs>
<filter id="filter0_dddddd_544_160" x="85.816" y="-103.184" width="469.368" height="476.368" filterUnits="userSpaceOnUse" color-interpolation-filters="sRGB">
<feFlood flood-opacity="0" result="BackgroundImageFix"/>
<feColorMatrix in="SourceAlpha" type="matrix" values="0 0 0 0 0 0 0 0 0 0 0 0 0 0 0 0 0 0 127 0" result="hardAlpha"/>
<feOffset/>
<feGaussianBlur stdDeviation="2.526"/>
<feColorMatrix type="matrix" values="0 0 0 0 0.301961 0 0 0 0 0.301961 0 0 0 0 0.301961 0 0 0 1 0"/>
<feBlend mode="normal" in2="BackgroundImageFix" result="effect1_dropShadow_544_160"/>
<feColorMatrix in="SourceAlpha" type="matrix" values="0 0 0 0 0 0 0 0 0 0 0 0 0 0 0 0 0 0 127 0" result="hardAlpha"/>
<feOffset/>
<feGaussianBlur stdDeviation="5.052"/>
<feColorMatrix type="matrix" values="0 0 0 0 0.301961 0 0 0 0 0.301961 0 0 0 0 0.301961 0 0 0 1 0"/>
<feBlend mode="normal" in2="effect1_dropShadow_544_160" result="effect2_dropShadow_544_160"/>
<feColorMatrix in="SourceAlpha" type="matrix" values="0 0 0 0 0 0 0 0 0 0 0 0 0 0 0 0 0 0 127 0" result="hardAlpha"/>
<feOffset/>
<feGaussianBlur stdDeviation="17.682"/>
<feColorMatrix type="matrix" values="0 0 0 0 0.301961 0 0 0 0 0.301961 0 0 0 0 0.301961 0 0 0 1 0"/>
<feBlend mode="normal" in2="effect2_dropShadow_544_160" result="effect3_dropShadow_544_160"/>
<feColorMatrix in="SourceAlpha" type="matrix" values="0 0 0 0 0 0 0 0 0 0 0 0 0 0 0 0 0 0 127 0" result="hardAlpha"/>
<feOffset/>
<feGaussianBlur stdDeviation="35.364"/>
<feColorMatrix type="matrix" values="0 0 0 0 0.301961 0 0 0 0 0.301961 0 0 0 0 0.301961 0 0 0 1 0"/>
<feBlend mode="normal" in2="effect3_dropShadow_544_160" result="effect4_dropShadow_544_160"/>
<feColorMatrix in="SourceAlpha" type="matrix" values="0 0 0 0 0 0 0 0 0 0 0 0 0 0 0 0 0 0 127 0" result="hardAlpha"/>
<feOffset/>
<feGaussianBlur stdDeviation="60.624"/>
<feColorMatrix type="matrix" values="0 0 0 0 0.301961 0 0 0 0 0.301961 0 0 0 0 0.301961 0 0 0 1 0"/>
<feBlend mode="normal" in2="effect4_dropShadow_544_160" result="effect5_dropShadow_544_160"/>
<feColorMatrix in="SourceAlpha" type="matrix" values="0 0 0 0 0 0 0 0 0 0 0 0 0 0 0 0 0 0 127 0" result="hardAlpha"/>
<feOffset/>
<feGaussianBlur stdDeviation="106.092"/>
<feColorMatrix type="matrix" values="0 0 0 0 0.301961 0 0 0 0 0.301961 0 0 0 0 0.301961 0 0 0 1 0"/>
<feBlend mode="normal" in2="effect5_dropShadow_544_160" result="effect6_dropShadow_544_160"/>
<feBlend mode="normal" in="SourceGraphic" in2="effect6_dropShadow_544_160" result="shape"/>
</filter>
<clipPath id="clip0_544_160">
<rect width="639" height="279" fill="white"/>
</clipPath>
</defs>
</svg>
