<svg width="639" height="279" viewBox="0 0 639 279" fill="none" xmlns="http://www.w3.org/2000/svg">
<g clip-path="url(#clip0_544_160)">
<g filter="url(#filter0_dddddd_544_160)">
<path d="M298 120.155L304.12 116.913V129.113L316.653 136.186V143.966L298 133.121V120.155Z" fill="white"/>
<path d="M298 147.856V140.607L320.267 153.574L323.589 151.746V132.355L310.474 124.575V113.082L316.653 109.722V120.98L330.351 129.113V155.224L320.267 161L298 147.856Z" fill="white"/>
<path d="M323.589 116.913V109L343 120.155V147.856L336.18 151.746V124.575L323.589 116.913Z" fill="white"/>
</g>
<mask id="path-2-outside-1_544_160" maskUnits="userSpaceOnUse" x="137" y="185" width="369" height="42" fill="black">
<rect fill="white" x="137" y="185" width="369" height="42"/>
<path d="M157.027 219H153.247L141.942 206.33V219H138.792V194.01H141.942V206.12L152.967 194.01H156.537L145.687 206.155L157.027 219ZM181.2 206.47C181.2 208.407 180.955 210.168 180.465 211.755C179.975 213.318 179.24 214.672 178.26 215.815C177.303 216.958 176.101 217.833 174.655 218.44C173.231 219.047 171.575 219.35 169.685 219.35C167.725 219.35 166.021 219.047 164.575 218.44C163.128 217.81 161.926 216.935 160.97 215.815C160.013 214.672 159.301 213.307 158.835 211.72C158.368 210.133 158.135 208.372 158.135 206.435C158.135 203.868 158.555 201.628 159.395 199.715C160.235 197.802 161.506 196.308 163.21 195.235C164.936 194.162 167.106 193.625 169.72 193.625C172.216 193.625 174.316 194.162 176.02 195.235C177.723 196.285 179.006 197.778 179.87 199.715C180.756 201.628 181.2 203.88 181.2 206.47ZM161.46 206.47C161.46 208.57 161.751 210.378 162.335 211.895C162.918 213.412 163.816 214.578 165.03 215.395C166.266 216.212 167.818 216.62 169.685 216.62C171.575 216.62 173.115 216.212 174.305 215.395C175.518 214.578 176.416 213.412 177 211.895C177.583 210.378 177.875 208.57 177.875 206.47C177.875 203.32 177.221 200.858 175.915 199.085C174.608 197.288 172.543 196.39 169.72 196.39C167.83 196.39 166.266 196.798 165.03 197.615C163.816 198.408 162.918 199.563 162.335 201.08C161.751 202.573 161.46 204.37 161.46 206.47ZM197.413 219L189.188 197.09H189.048C189.095 197.557 189.13 198.152 189.153 198.875C189.2 199.598 189.235 200.392 189.258 201.255C189.282 202.095 189.293 202.958 189.293 203.845V219H186.388V194.01H191.043L198.743 214.485H198.883L206.723 194.01H211.343V219H208.228V203.635C208.228 202.818 208.24 202.013 208.263 201.22C208.287 200.403 208.322 199.645 208.368 198.945C208.415 198.222 208.45 197.615 208.473 197.125H208.333L200.003 219H197.413ZM233.471 219L230.461 211.265H220.556L217.581 219H214.396L224.161 193.905H226.996L236.726 219H233.471ZM226.716 200.905C226.646 200.718 226.53 200.38 226.366 199.89C226.203 199.4 226.04 198.898 225.876 198.385C225.736 197.848 225.62 197.44 225.526 197.16C225.41 197.627 225.281 198.105 225.141 198.595C225.025 199.062 224.896 199.493 224.756 199.89C224.64 200.287 224.535 200.625 224.441 200.905L221.606 208.465H229.516L226.716 200.905ZM258.905 219H255.755V207.345H242.945V219H239.795V194.01H242.945V204.58H255.755V194.01H258.905V219ZM282.222 194.01V216.2H285.407V225.58H282.397V219H265.212V225.58H262.202V216.2H264.127C264.967 214.753 265.761 213.132 266.507 211.335C267.277 209.538 267.954 207.66 268.537 205.7C269.121 203.717 269.599 201.733 269.972 199.75C270.346 197.767 270.579 195.853 270.672 194.01H282.222ZM273.437 196.845C273.344 198.198 273.111 199.727 272.737 201.43C272.387 203.133 271.932 204.883 271.372 206.68C270.836 208.453 270.229 210.168 269.552 211.825C268.899 213.482 268.199 214.94 267.452 216.2H279.107V196.845H273.437ZM308.346 219H305.196V207.345H292.386V219H289.236V194.01H292.386V204.58H305.196V194.01H308.346V219ZM314.829 219V194.01H317.979V204.58H321.829C324.162 204.58 325.994 204.895 327.324 205.525C328.677 206.155 329.634 207.007 330.194 208.08C330.777 209.153 331.069 210.355 331.069 211.685C331.069 213.155 330.754 214.438 330.124 215.535C329.517 216.632 328.56 217.483 327.254 218.09C325.947 218.697 324.267 219 322.214 219H314.829ZM321.934 216.34C323.94 216.34 325.422 215.955 326.379 215.185C327.335 214.415 327.814 213.248 327.814 211.685C327.814 210.612 327.58 209.76 327.114 209.13C326.67 208.5 325.982 208.045 325.049 207.765C324.115 207.485 322.925 207.345 321.479 207.345H317.979V216.34H321.934ZM334.919 219V194.01H338.069V219H334.919ZM361.568 186.24C361.474 187.407 361.183 188.387 360.693 189.18C360.226 189.973 359.526 190.568 358.593 190.965C357.659 191.362 356.446 191.56 354.953 191.56C353.436 191.56 352.211 191.362 351.278 190.965C350.368 190.568 349.703 189.985 349.283 189.215C348.863 188.422 348.606 187.43 348.513 186.24H351.383C351.499 187.5 351.826 188.352 352.363 188.795C352.923 189.215 353.809 189.425 355.023 189.425C356.096 189.425 356.936 189.203 357.543 188.76C358.173 188.293 358.546 187.453 358.663 186.24H361.568ZM344.558 194.01H347.498V207.73C347.498 208.313 347.486 208.955 347.463 209.655C347.463 210.332 347.451 211.008 347.428 211.685C347.404 212.362 347.369 212.968 347.323 213.505C347.299 214.018 347.276 214.415 347.253 214.695H347.393L361.148 194.01H364.648V219H361.708V205.42C361.708 204.79 361.719 204.113 361.743 203.39C361.766 202.643 361.789 201.932 361.813 201.255C361.859 200.555 361.894 199.937 361.918 199.4C361.941 198.863 361.964 198.467 361.988 198.21H361.848L348.058 219H344.558V194.01ZM389.464 196.425C388.134 196.425 386.933 196.658 385.859 197.125C384.786 197.568 383.876 198.233 383.129 199.12C382.383 199.983 381.811 201.045 381.414 202.305C381.018 203.542 380.819 204.942 380.819 206.505C380.819 208.558 381.134 210.343 381.764 211.86C382.418 213.377 383.374 214.543 384.634 215.36C385.918 216.177 387.516 216.585 389.429 216.585C390.526 216.585 391.564 216.492 392.544 216.305C393.524 216.118 394.481 215.885 395.414 215.605V218.335C394.481 218.685 393.513 218.942 392.509 219.105C391.529 219.268 390.351 219.35 388.974 219.35C386.431 219.35 384.308 218.825 382.604 217.775C380.901 216.725 379.618 215.232 378.754 213.295C377.914 211.358 377.494 209.083 377.494 206.47C377.494 204.58 377.751 202.853 378.264 201.29C378.801 199.727 379.571 198.373 380.574 197.23C381.601 196.087 382.861 195.212 384.354 194.605C385.848 193.975 387.563 193.66 389.499 193.66C390.783 193.66 392.019 193.788 393.209 194.045C394.399 194.302 395.461 194.663 396.394 195.13L395.134 197.79C394.364 197.44 393.501 197.125 392.544 196.845C391.611 196.565 390.584 196.425 389.464 196.425ZM421.64 206.47C421.64 208.407 421.395 210.168 420.905 211.755C420.415 213.318 419.68 214.672 418.7 215.815C417.743 216.958 416.542 217.833 415.095 218.44C413.672 219.047 412.015 219.35 410.125 219.35C408.165 219.35 406.462 219.047 405.015 218.44C403.568 217.81 402.367 216.935 401.41 215.815C400.453 214.672 399.742 213.307 399.275 211.72C398.808 210.133 398.575 208.372 398.575 206.435C398.575 203.868 398.995 201.628 399.835 199.715C400.675 197.802 401.947 196.308 403.65 195.235C405.377 194.162 407.547 193.625 410.16 193.625C412.657 193.625 414.757 194.162 416.46 195.235C418.163 196.285 419.447 197.778 420.31 199.715C421.197 201.628 421.64 203.88 421.64 206.47ZM401.9 206.47C401.9 208.57 402.192 210.378 402.775 211.895C403.358 213.412 404.257 214.578 405.47 215.395C406.707 216.212 408.258 216.62 410.125 216.62C412.015 216.62 413.555 216.212 414.745 215.395C415.958 214.578 416.857 213.412 417.44 211.895C418.023 210.378 418.315 208.57 418.315 206.47C418.315 203.32 417.662 200.858 416.355 199.085C415.048 197.288 412.983 196.39 410.16 196.39C408.27 196.39 406.707 196.798 405.47 197.615C404.257 198.408 403.358 199.563 402.775 201.08C402.192 202.573 401.9 204.37 401.9 206.47ZM437.539 196.425C436.209 196.425 435.007 196.658 433.934 197.125C432.86 197.568 431.95 198.233 431.204 199.12C430.457 199.983 429.885 201.045 429.489 202.305C429.092 203.542 428.894 204.942 428.894 206.505C428.894 208.558 429.209 210.343 429.839 211.86C430.492 213.377 431.449 214.543 432.709 215.36C433.992 216.177 435.59 216.585 437.504 216.585C438.6 216.585 439.639 216.492 440.619 216.305C441.599 216.118 442.555 215.885 443.489 215.605V218.335C442.555 218.685 441.587 218.942 440.584 219.105C439.604 219.268 438.425 219.35 437.049 219.35C434.505 219.35 432.382 218.825 430.679 217.775C428.975 216.725 427.692 215.232 426.829 213.295C425.989 211.358 425.569 209.083 425.569 206.47C425.569 204.58 425.825 202.853 426.339 201.29C426.875 199.727 427.645 198.373 428.649 197.23C429.675 196.087 430.935 195.212 432.429 194.605C433.922 193.975 435.637 193.66 437.574 193.66C438.857 193.66 440.094 193.788 441.284 194.045C442.474 194.302 443.535 194.663 444.469 195.13L443.209 197.79C442.439 197.44 441.575 197.125 440.619 196.845C439.685 196.565 438.659 196.425 437.539 196.425ZM456.503 219H453.353V196.775H445.548V194.01H464.273V196.775H456.503V219ZM480.91 219L477.9 211.265H467.995L465.02 219H461.835L471.6 193.905H474.435L484.165 219H480.91ZM474.155 200.905C474.085 200.718 473.969 200.38 473.805 199.89C473.642 199.4 473.479 198.898 473.315 198.385C473.175 197.848 473.059 197.44 472.965 197.16C472.849 197.627 472.72 198.105 472.58 198.595C472.464 199.062 472.335 199.493 472.195 199.89C472.079 200.287 471.974 200.625 471.88 200.905L469.045 208.465H476.955L474.155 200.905ZM494.374 194.01C496.451 194.01 498.189 194.208 499.589 194.605C501.012 195.002 502.074 195.655 502.774 196.565C503.497 197.475 503.859 198.688 503.859 200.205C503.859 201.185 503.672 202.06 503.299 202.83C502.949 203.577 502.412 204.207 501.689 204.72C500.989 205.21 500.126 205.548 499.099 205.735V205.91C500.149 206.073 501.094 206.377 501.934 206.82C502.797 207.263 503.474 207.893 503.964 208.71C504.454 209.527 504.699 210.588 504.699 211.895C504.699 213.412 504.349 214.707 503.649 215.78C502.949 216.83 501.946 217.635 500.639 218.195C499.356 218.732 497.816 219 496.019 219H487.234V194.01H494.374ZM495.004 204.65C497.151 204.65 498.621 204.312 499.414 203.635C500.207 202.935 500.604 201.908 500.604 200.555C500.604 199.178 500.114 198.198 499.134 197.615C498.177 197.008 496.637 196.705 494.514 196.705H490.384V204.65H495.004ZM490.384 207.275V216.34H495.424C497.641 216.34 499.181 215.908 500.044 215.045C500.907 214.182 501.339 213.05 501.339 211.65C501.339 210.763 501.141 209.993 500.744 209.34C500.371 208.687 499.729 208.185 498.819 207.835C497.932 207.462 496.719 207.275 495.179 207.275H490.384Z"/>
</mask>
<path d="M157.027 219V220H159.244L157.777 218.338L157.027 219ZM153.247 219L152.501 219.666L152.8 220H153.247V219ZM141.942 206.33L142.689 205.664L140.942 203.707V206.33H141.942ZM141.942 219V220H142.942V219H141.942ZM138.792 219H137.792V220H138.792V219ZM138.792 194.01V193.01H137.792V194.01H138.792ZM141.942 194.01H142.942V193.01H141.942V194.01ZM141.942 206.12H140.942V208.704L142.682 206.793L141.942 206.12ZM152.967 194.01V193.01H152.526L152.228 193.337L152.967 194.01ZM156.537 194.01L157.283 194.676L158.772 193.01H156.537V194.01ZM145.687 206.155L144.942 205.489L144.35 206.151L144.938 206.817L145.687 206.155ZM157.027 218H153.247V220H157.027V218ZM153.994 218.334L142.689 205.664L141.196 206.996L152.501 219.666L153.994 218.334ZM140.942 206.33V219H142.942V206.33H140.942ZM141.942 218H138.792V220H141.942V218ZM139.792 219V194.01H137.792V219H139.792ZM138.792 195.01H141.942V193.01H138.792V195.01ZM140.942 194.01V206.12H142.942V194.01H140.942ZM142.682 206.793L153.707 194.683L152.228 193.337L141.203 205.447L142.682 206.793ZM152.967 195.01H156.537V193.01H152.967V195.01ZM155.792 193.344L144.942 205.489L146.433 206.821L157.283 194.676L155.792 193.344ZM144.938 206.817L156.278 219.662L157.777 218.338L146.437 205.493L144.938 206.817ZM180.465 211.755L181.419 212.054L181.42 212.05L180.465 211.755ZM178.26 215.815L177.5 215.164L177.493 215.173L178.26 215.815ZM174.655 218.44L174.268 217.518L174.263 217.52L174.655 218.44ZM164.575 218.44L164.175 219.357L164.188 219.362L164.575 218.44ZM160.97 215.815L160.203 216.457L160.209 216.464L160.97 215.815ZM158.835 211.72L157.875 212.002L157.875 212.002L158.835 211.72ZM159.395 199.715L160.31 200.117L160.31 200.117L159.395 199.715ZM163.21 195.235L162.682 194.386L162.676 194.389L163.21 195.235ZM176.02 195.235L175.486 196.081L175.495 196.086L176.02 195.235ZM179.87 199.715L178.956 200.122L178.959 200.129L178.962 200.135L179.87 199.715ZM165.03 215.395L164.471 216.225L164.479 216.229L165.03 215.395ZM174.305 215.395L173.746 214.565L173.739 214.57L174.305 215.395ZM177 211.895L176.066 211.536L177 211.895ZM175.915 199.085L175.106 199.673L175.11 199.678L175.915 199.085ZM165.03 197.615L165.577 198.452L165.581 198.449L165.03 197.615ZM162.335 201.08L163.266 201.444L163.268 201.439L162.335 201.08ZM180.2 206.47C180.2 208.323 179.965 209.983 179.509 211.46L181.42 212.05C181.944 210.353 182.2 208.49 182.2 206.47H180.2ZM179.51 211.456C179.057 212.901 178.385 214.132 177.5 215.164L179.019 216.466C180.094 215.211 180.892 213.735 181.419 212.054L179.51 211.456ZM177.493 215.173C176.644 216.188 175.575 216.97 174.268 217.518L175.041 219.362C176.627 218.697 177.962 217.729 179.027 216.457L177.493 215.173ZM174.263 217.52C172.987 218.064 171.469 218.35 169.685 218.35V220.35C171.68 220.35 173.475 220.03 175.047 219.36L174.263 217.52ZM169.685 218.35C167.825 218.35 166.259 218.062 164.961 217.518L164.188 219.362C165.783 220.031 167.624 220.35 169.685 220.35V218.35ZM164.974 217.523C163.656 216.949 162.581 216.162 161.73 215.166L160.209 216.464C161.271 217.708 162.6 218.671 164.175 219.357L164.974 217.523ZM161.737 215.173C160.877 214.146 160.226 212.907 159.794 211.438L157.875 212.002C158.376 213.706 159.149 215.197 160.203 216.457L161.737 215.173ZM159.794 211.438C159.358 209.957 159.135 208.292 159.135 206.435H157.135C157.135 208.451 157.377 210.31 157.875 212.002L159.794 211.438ZM159.135 206.435C159.135 203.976 159.537 201.878 160.31 200.117L158.479 199.313C157.572 201.378 157.135 203.761 157.135 206.435H159.135ZM160.31 200.117C161.073 198.379 162.215 197.044 163.743 196.081L162.676 194.389C160.797 195.573 159.396 197.224 158.479 199.313L160.31 200.117ZM163.738 196.084C165.266 195.134 167.24 194.625 169.72 194.625V192.625C166.972 192.625 164.606 193.189 162.682 194.386L163.738 196.084ZM169.72 194.625C172.073 194.625 173.977 195.13 175.486 196.081L176.553 194.389C174.655 193.193 172.36 192.625 169.72 192.625V194.625ZM175.495 196.086C177.016 197.024 178.17 198.358 178.956 200.122L180.783 199.308C179.843 197.199 178.429 195.546 176.544 194.384L175.495 196.086ZM178.962 200.135C179.776 201.891 180.2 203.993 180.2 206.47H182.2C182.2 203.767 181.737 201.366 180.777 199.295L178.962 200.135ZM160.46 206.47C160.46 208.659 160.763 210.595 161.401 212.254L163.268 211.536C162.739 210.162 162.46 208.481 162.46 206.47H160.46ZM161.401 212.254C162.05 213.94 163.069 215.281 164.471 216.225L165.588 214.565C164.564 213.876 163.786 212.883 163.268 211.536L161.401 212.254ZM164.479 216.229C165.916 217.179 167.673 217.62 169.685 217.62V215.62C167.963 215.62 166.616 215.244 165.581 214.561L164.479 216.229ZM169.685 217.62C171.715 217.62 173.469 217.181 174.87 216.22L173.739 214.57C172.76 215.242 171.434 215.62 169.685 215.62V217.62ZM174.863 216.225C176.265 215.281 177.284 213.94 177.933 212.254L176.066 211.536C175.548 212.883 174.77 213.876 173.746 214.565L174.863 216.225ZM177.933 212.254C178.571 210.595 178.875 208.659 178.875 206.47H176.875C176.875 208.481 176.595 210.162 176.066 211.536L177.933 212.254ZM178.875 206.47C178.875 203.195 178.197 200.497 176.72 198.492L175.11 199.678C176.246 201.22 176.875 203.445 176.875 206.47H178.875ZM176.723 198.497C175.178 196.372 172.767 195.39 169.72 195.39V197.39C172.319 197.39 174.038 198.204 175.106 199.673L176.723 198.497ZM169.72 195.39C167.687 195.39 165.918 195.83 164.479 196.781L165.581 198.449C166.614 197.767 167.972 197.39 169.72 197.39V195.39ZM164.482 196.778C163.072 197.7 162.05 199.033 161.401 200.721L163.268 201.439C163.785 200.093 164.56 199.117 165.577 198.452L164.482 196.778ZM161.403 200.716C160.763 202.355 160.46 204.282 160.46 206.47H162.46C162.46 204.458 162.74 202.791 163.266 201.444L161.403 200.716ZM197.413 219L196.477 219.351L196.721 220H197.413V219ZM189.188 197.09L190.125 196.739L189.881 196.09H189.188V197.09ZM189.048 197.09V196.09H187.943L188.053 197.19L189.048 197.09ZM189.153 198.875L188.154 198.907L188.154 198.923L188.155 198.939L189.153 198.875ZM189.258 201.255L188.259 201.282L188.259 201.283L189.258 201.255ZM189.293 219V220H190.293V219H189.293ZM186.388 219H185.388V220H186.388V219ZM186.388 194.01V193.01H185.388V194.01H186.388ZM191.043 194.01L191.979 193.658L191.736 193.01H191.043V194.01ZM198.743 214.485L197.807 214.837L198.051 215.485H198.743V214.485ZM198.883 214.485V215.485H199.571L199.817 214.843L198.883 214.485ZM206.723 194.01V193.01H206.035L205.789 193.652L206.723 194.01ZM211.343 194.01H212.343V193.01H211.343V194.01ZM211.343 219V220H212.343V219H211.343ZM208.228 219H207.228V220H208.228V219ZM208.263 201.22L209.263 201.249L209.263 201.249L208.263 201.22ZM208.368 198.945L209.366 199.012L209.366 199.009L208.368 198.945ZM208.473 197.125L209.472 197.173L209.522 196.125H208.473V197.125ZM208.333 197.125V196.125H207.644L207.399 196.769L208.333 197.125ZM200.003 219V220H200.693L200.938 219.356L200.003 219ZM198.35 218.649L190.125 196.739L188.252 197.441L196.477 219.351L198.35 218.649ZM189.188 196.09H189.048V198.09H189.188V196.09ZM188.053 197.19C188.097 197.625 188.131 198.196 188.154 198.907L190.153 198.843C190.129 198.108 190.093 197.488 190.043 196.99L188.053 197.19ZM188.155 198.939C188.201 199.648 188.236 200.429 188.259 201.282L190.258 201.228C190.234 200.354 190.199 199.548 190.151 198.811L188.155 198.939ZM188.259 201.283C188.282 202.113 188.293 202.967 188.293 203.845H190.293C190.293 202.95 190.282 202.077 190.258 201.227L188.259 201.283ZM188.293 203.845V219H190.293V203.845H188.293ZM189.293 218H186.388V220H189.293V218ZM187.388 219V194.01H185.388V219H187.388ZM186.388 195.01H191.043V193.01H186.388V195.01ZM190.107 194.362L197.807 214.837L199.679 214.133L191.979 193.658L190.107 194.362ZM198.743 215.485H198.883V213.485H198.743V215.485ZM199.817 214.843L207.657 194.368L205.789 193.652L197.949 214.127L199.817 214.843ZM206.723 195.01H211.343V193.01H206.723V195.01ZM210.343 194.01V219H212.343V194.01H210.343ZM211.343 218H208.228V220H211.343V218ZM209.228 219V203.635H207.228V219H209.228ZM209.228 203.635C209.228 202.828 209.24 202.033 209.263 201.249L207.264 201.191C207.24 201.994 207.228 202.809 207.228 203.635H209.228ZM209.263 201.249C209.286 200.443 209.32 199.697 209.366 199.012L207.371 198.878C207.323 199.593 207.287 200.364 207.264 201.191L209.263 201.249ZM209.366 199.009C209.413 198.283 209.449 197.67 209.472 197.173L207.474 197.077C207.452 197.56 207.417 198.161 207.37 198.881L209.366 199.009ZM208.473 196.125H208.333V198.125H208.473V196.125ZM207.399 196.769L199.069 218.644L200.938 219.356L209.268 197.481L207.399 196.769ZM200.003 218H197.413V220H200.003V218ZM233.471 219L232.539 219.363L232.787 220H233.471V219ZM230.461 211.265L231.393 210.902L231.145 210.265H230.461V211.265ZM220.556 211.265V210.265H219.869L219.623 210.906L220.556 211.265ZM217.581 219V220H218.268L218.515 219.359L217.581 219ZM214.396 219L213.464 218.637L212.934 220H214.396V219ZM224.161 193.905V192.905H223.477L223.229 193.542L224.161 193.905ZM226.996 193.905L227.929 193.543L227.681 192.905H226.996V193.905ZM236.726 219V220H238.187L237.659 218.638L236.726 219ZM226.716 200.905L227.654 200.558L227.653 200.554L226.716 200.905ZM226.366 199.89L225.418 200.206L225.418 200.206L226.366 199.89ZM225.876 198.385L224.909 198.637L224.915 198.663L224.923 198.688L225.876 198.385ZM225.526 197.16L226.475 196.844L225.389 193.586L224.556 196.917L225.526 197.16ZM225.141 198.595L224.18 198.32L224.175 198.336L224.171 198.352L225.141 198.595ZM224.756 199.89L223.813 199.557L223.804 199.582L223.797 199.608L224.756 199.89ZM224.441 200.905L225.378 201.256L225.384 201.239L225.39 201.221L224.441 200.905ZM221.606 208.465L220.67 208.114L220.163 209.465H221.606V208.465ZM229.516 208.465V209.465H230.953L230.454 208.118L229.516 208.465ZM234.403 218.637L231.393 210.902L229.529 211.628L232.539 219.363L234.403 218.637ZM230.461 210.265H220.556V212.265H230.461V210.265ZM219.623 210.906L216.648 218.641L218.515 219.359L221.49 211.624L219.623 210.906ZM217.581 218H214.396V220H217.581V218ZM215.328 219.363L225.093 194.268L223.229 193.542L213.464 218.637L215.328 219.363ZM224.161 194.905H226.996V192.905H224.161V194.905ZM226.064 194.267L235.794 219.362L237.659 218.638L227.929 193.543L226.064 194.267ZM236.726 218H233.471V220H236.726V218ZM227.653 200.554C227.59 200.387 227.479 200.065 227.315 199.574L225.418 200.206C225.581 200.695 225.703 201.05 225.78 201.256L227.653 200.554ZM227.315 199.574C227.153 199.088 226.991 198.591 226.829 198.082L224.923 198.688C225.088 199.206 225.253 199.712 225.418 200.206L227.315 199.574ZM226.844 198.133C226.702 197.59 226.579 197.156 226.475 196.844L224.578 197.476C224.66 197.724 224.77 198.107 224.909 198.637L226.844 198.133ZM224.556 196.917C224.442 197.373 224.317 197.84 224.18 198.32L226.103 198.87C226.246 198.37 226.377 197.881 226.496 197.403L224.556 196.917ZM224.171 198.352C224.061 198.793 223.941 199.194 223.813 199.557L225.699 200.223C225.851 199.793 225.988 199.33 226.111 198.838L224.171 198.352ZM223.797 199.608C223.682 199.997 223.581 200.324 223.493 200.589L225.39 201.221C225.488 200.926 225.597 200.576 225.716 200.172L223.797 199.608ZM223.505 200.554L220.67 208.114L222.543 208.816L225.378 201.256L223.505 200.554ZM221.606 209.465H229.516V207.465H221.606V209.465ZM230.454 208.118L227.654 200.558L225.779 201.252L228.579 208.812L230.454 208.118ZM258.905 219V220H259.905V219H258.905ZM255.755 219H254.755V220H255.755V219ZM255.755 207.345H256.755V206.345H255.755V207.345ZM242.945 207.345V206.345H241.945V207.345H242.945ZM242.945 219V220H243.945V219H242.945ZM239.795 219H238.795V220H239.795V219ZM239.795 194.01V193.01H238.795V194.01H239.795ZM242.945 194.01H243.945V193.01H242.945V194.01ZM242.945 204.58H241.945V205.58H242.945V204.58ZM255.755 204.58V205.58H256.755V204.58H255.755ZM255.755 194.01V193.01H254.755V194.01H255.755ZM258.905 194.01H259.905V193.01H258.905V194.01ZM258.905 218H255.755V220H258.905V218ZM256.755 219V207.345H254.755V219H256.755ZM255.755 206.345H242.945V208.345H255.755V206.345ZM241.945 207.345V219H243.945V207.345H241.945ZM242.945 218H239.795V220H242.945V218ZM240.795 219V194.01H238.795V219H240.795ZM239.795 195.01H242.945V193.01H239.795V195.01ZM241.945 194.01V204.58H243.945V194.01H241.945ZM242.945 205.58H255.755V203.58H242.945V205.58ZM256.755 204.58V194.01H254.755V204.58H256.755ZM255.755 195.01H258.905V193.01H255.755V195.01ZM257.905 194.01V219H259.905V194.01H257.905ZM282.222 194.01H283.222V193.01H282.222V194.01ZM282.222 216.2H281.222V217.2H282.222V216.2ZM285.407 216.2H286.407V215.2H285.407V216.2ZM285.407 225.58V226.58H286.407V225.58H285.407ZM282.397 225.58H281.397V226.58H282.397V225.58ZM282.397 219H283.397V218H282.397V219ZM265.212 219V218H264.212V219H265.212ZM265.212 225.58V226.58H266.212V225.58H265.212ZM262.202 225.58H261.202V226.58H262.202V225.58ZM262.202 216.2V215.2H261.202V216.2H262.202ZM264.127 216.2V217.2H264.703L264.992 216.702L264.127 216.2ZM266.507 211.335L265.588 210.941L265.584 210.951L266.507 211.335ZM268.537 205.7L269.496 205.985L269.497 205.982L268.537 205.7ZM269.972 199.75L270.955 199.935L270.955 199.935L269.972 199.75ZM270.672 194.01V193.01H269.722L269.673 193.959L270.672 194.01ZM273.437 196.845V195.845H272.504L272.44 196.776L273.437 196.845ZM272.737 201.43L271.76 201.216L271.758 201.229L272.737 201.43ZM271.372 206.68L270.417 206.382L270.415 206.39L271.372 206.68ZM269.552 211.825L268.626 211.447L268.622 211.458L269.552 211.825ZM267.452 216.2L266.592 215.69L265.697 217.2H267.452V216.2ZM279.107 216.2V217.2H280.107V216.2H279.107ZM279.107 196.845H280.107V195.845H279.107V196.845ZM281.222 194.01V216.2H283.222V194.01H281.222ZM282.222 217.2H285.407V215.2H282.222V217.2ZM284.407 216.2V225.58H286.407V216.2H284.407ZM285.407 224.58H282.397V226.58H285.407V224.58ZM283.397 225.58V219H281.397V225.58H283.397ZM282.397 218H265.212V220H282.397V218ZM264.212 219V225.58H266.212V219H264.212ZM265.212 224.58H262.202V226.58H265.212V224.58ZM263.202 225.58V216.2H261.202V225.58H263.202ZM262.202 217.2H264.127V215.2H262.202V217.2ZM264.992 216.702C265.857 215.212 266.67 213.55 267.431 211.719L265.584 210.951C264.851 212.714 264.077 214.295 263.262 215.698L264.992 216.702ZM267.426 211.729C268.212 209.895 268.902 207.981 269.496 205.985L267.579 205.415C267.006 207.339 266.342 209.181 265.588 210.941L267.426 211.729ZM269.497 205.982C270.089 203.968 270.575 201.952 270.955 199.935L268.989 199.565C268.622 201.515 268.152 203.466 267.578 205.418L269.497 205.982ZM270.955 199.935C271.336 197.911 271.575 195.953 271.671 194.061L269.673 193.959C269.583 195.754 269.355 197.622 268.989 199.565L270.955 199.935ZM270.672 195.01H282.222V193.01H270.672V195.01ZM272.44 196.776C272.35 198.069 272.126 199.548 271.76 201.216L273.714 201.644C274.095 199.906 274.337 198.328 274.435 196.914L272.44 196.776ZM271.758 201.229C271.415 202.897 270.968 204.615 270.417 206.382L272.327 206.978C272.896 205.152 273.36 203.37 273.717 201.631L271.758 201.229ZM270.415 206.39C269.887 208.135 269.291 209.82 268.626 211.447L270.478 212.203C271.167 210.516 271.784 208.772 272.329 206.97L270.415 206.39ZM268.622 211.458C267.984 213.076 267.306 214.484 266.592 215.69L268.312 216.71C269.091 215.396 269.814 213.888 270.482 212.192L268.622 211.458ZM267.452 217.2H279.107V215.2H267.452V217.2ZM280.107 216.2V196.845H278.107V216.2H280.107ZM279.107 195.845H273.437V197.845H279.107V195.845ZM308.346 219V220H309.346V219H308.346ZM305.196 219H304.196V220H305.196V219ZM305.196 207.345H306.196V206.345H305.196V207.345ZM292.386 207.345V206.345H291.386V207.345H292.386ZM292.386 219V220H293.386V219H292.386ZM289.236 219H288.236V220H289.236V219ZM289.236 194.01V193.01H288.236V194.01H289.236ZM292.386 194.01H293.386V193.01H292.386V194.01ZM292.386 204.58H291.386V205.58H292.386V204.58ZM305.196 204.58V205.58H306.196V204.58H305.196ZM305.196 194.01V193.01H304.196V194.01H305.196ZM308.346 194.01H309.346V193.01H308.346V194.01ZM308.346 218H305.196V220H308.346V218ZM306.196 219V207.345H304.196V219H306.196ZM305.196 206.345H292.386V208.345H305.196V206.345ZM291.386 207.345V219H293.386V207.345H291.386ZM292.386 218H289.236V220H292.386V218ZM290.236 219V194.01H288.236V219H290.236ZM289.236 195.01H292.386V193.01H289.236V195.01ZM291.386 194.01V204.58H293.386V194.01H291.386ZM292.386 205.58H305.196V203.58H292.386V205.58ZM306.196 204.58V194.01H304.196V204.58H306.196ZM305.196 195.01H308.346V193.01H305.196V195.01ZM307.346 194.01V219H309.346V194.01H307.346ZM314.829 219H313.829V220H314.829V219ZM314.829 194.01V193.01H313.829V194.01H314.829ZM317.979 194.01H318.979V193.01H317.979V194.01ZM317.979 204.58H316.979V205.58H317.979V204.58ZM327.324 205.525L326.896 206.429L326.902 206.432L327.324 205.525ZM330.194 208.08L329.307 208.543L329.311 208.55L329.315 208.558L330.194 208.08ZM330.124 215.535L329.257 215.037L329.253 215.044L329.249 215.051L330.124 215.535ZM327.114 209.13L326.296 209.705L326.303 209.715L326.31 209.725L327.114 209.13ZM325.049 207.765L325.336 206.807L325.336 206.807L325.049 207.765ZM317.979 207.345V206.345H316.979V207.345H317.979ZM317.979 216.34H316.979V217.34H317.979V216.34ZM334.919 219H333.919V220H334.919V219ZM334.919 194.01V193.01H333.919V194.01H334.919ZM338.069 194.01H339.069V193.01H338.069V194.01ZM338.069 219V220H339.069V219H338.069ZM315.829 219V194.01H313.829V219H315.829ZM314.829 195.01H317.979V193.01H314.829V195.01ZM316.979 194.01V204.58H318.979V194.01H316.979ZM317.979 205.58H321.829V203.58H317.979V205.58ZM321.829 205.58C324.091 205.58 325.755 205.889 326.896 206.429L327.752 204.621C326.232 203.901 324.233 203.58 321.829 203.58V205.58ZM326.902 206.432C328.103 206.991 328.871 207.706 329.307 208.543L331.08 207.617C330.397 206.307 329.251 205.319 327.746 204.618L326.902 206.432ZM329.315 208.558C329.812 209.472 330.069 210.507 330.069 211.685H332.069C332.069 210.203 331.742 208.835 331.072 207.602L329.315 208.558ZM330.069 211.685C330.069 213.009 329.786 214.115 329.257 215.037L330.991 216.033C331.721 214.762 332.069 213.301 332.069 211.685H330.069ZM329.249 215.051C328.76 215.935 327.977 216.652 326.833 217.183L327.675 218.997C329.144 218.315 330.275 217.328 330.999 216.019L329.249 215.051ZM326.833 217.183C325.702 217.708 324.179 218 322.214 218V220C324.355 220 326.193 219.685 327.675 218.997L326.833 217.183ZM322.214 218H314.829V220H322.214V218ZM321.934 217.34C324.035 217.34 325.79 216.943 327.006 215.964L325.752 214.406C325.055 214.967 323.846 215.34 321.934 215.34V217.34ZM327.006 215.964C328.26 214.954 328.814 213.461 328.814 211.685H326.814C326.814 213.036 326.41 213.876 325.752 214.406L327.006 215.964ZM328.814 211.685C328.814 210.475 328.551 209.39 327.917 208.535L326.31 209.725C326.61 210.13 326.814 210.748 326.814 211.685H328.814ZM327.932 208.555C327.328 207.697 326.426 207.134 325.336 206.807L324.761 208.723C325.538 208.956 326.013 209.303 326.296 209.705L327.932 208.555ZM325.336 206.807C324.276 206.489 322.98 206.345 321.479 206.345V208.345C322.87 208.345 323.955 208.481 324.761 208.723L325.336 206.807ZM321.479 206.345H317.979V208.345H321.479V206.345ZM316.979 207.345V216.34H318.979V207.345H316.979ZM317.979 217.34H321.934V215.34H317.979V217.34ZM335.919 219V194.01H333.919V219H335.919ZM334.919 195.01H338.069V193.01H334.919V195.01ZM337.069 194.01V219H339.069V194.01H337.069ZM338.069 218H334.919V220H338.069V218ZM361.568 186.24L362.565 186.32L362.651 185.24H361.568V186.24ZM360.693 189.18L359.842 188.655L359.836 188.664L359.831 188.673L360.693 189.18ZM358.593 190.965L358.202 190.045L358.202 190.045L358.593 190.965ZM351.278 190.965L350.878 191.882L350.887 191.885L351.278 190.965ZM349.283 189.215L348.399 189.683L348.405 189.694L349.283 189.215ZM348.513 186.24V185.24H347.431L347.516 186.318L348.513 186.24ZM351.383 186.24L352.378 186.148L352.294 185.24H351.383V186.24ZM352.363 188.795L351.726 189.566L351.744 189.581L351.763 189.595L352.363 188.795ZM357.543 188.76L358.133 189.567L358.138 189.564L357.543 188.76ZM358.663 186.24V185.24H357.754L357.667 186.144L358.663 186.24ZM344.558 194.01V193.01H343.558V194.01H344.558ZM347.498 194.01H348.498V193.01H347.498V194.01ZM347.463 209.655L346.463 209.622L346.463 209.638V209.655H347.463ZM347.323 213.505L346.326 213.418L346.325 213.439L346.324 213.46L347.323 213.505ZM347.253 214.695L346.256 214.612L346.166 215.695H347.253V214.695ZM347.393 214.695V215.695H347.929L348.225 215.249L347.393 214.695ZM361.148 194.01V193.01H360.612L360.315 193.456L361.148 194.01ZM364.648 194.01H365.648V193.01H364.648V194.01ZM364.648 219V220H365.648V219H364.648ZM361.708 219H360.708V220H361.708V219ZM361.743 203.39L362.742 203.422L362.742 203.421L361.743 203.39ZM361.813 201.255L360.815 201.188L360.814 201.204L360.813 201.221L361.813 201.255ZM361.988 198.21L362.984 198.301L363.083 197.21H361.988V198.21ZM361.848 198.21V197.21H361.311L361.014 197.657L361.848 198.21ZM348.058 219V220H348.594L348.891 219.553L348.058 219ZM344.558 219H343.558V220H344.558V219ZM360.571 186.16C360.487 187.208 360.23 188.026 359.842 188.655L361.544 189.705C362.135 188.747 362.462 187.605 362.565 186.32L360.571 186.16ZM359.831 188.673C359.484 189.263 358.959 189.723 358.202 190.045L358.984 191.885C360.093 191.414 360.968 190.684 361.555 189.687L359.831 188.673ZM358.202 190.045C357.436 190.37 356.37 190.56 354.953 190.56V192.56C356.522 192.56 357.883 192.353 358.984 191.885L358.202 190.045ZM354.953 190.56C353.51 190.56 352.433 190.369 351.669 190.045L350.887 191.885C351.989 192.354 353.362 192.56 354.953 192.56V190.56ZM351.677 190.048C350.943 189.728 350.46 189.286 350.161 188.736L348.405 189.694C348.945 190.684 349.793 191.409 350.878 191.882L351.677 190.048ZM350.167 188.747C349.828 188.107 349.596 187.258 349.51 186.162L347.516 186.318C347.616 187.602 347.898 188.736 348.399 189.683L350.167 188.747ZM348.513 187.24H351.383V185.24H348.513V187.24ZM350.387 186.332C350.51 187.66 350.87 188.859 351.726 189.566L353 188.024C352.782 187.844 352.489 187.34 352.378 186.148L350.387 186.332ZM351.763 189.595C352.583 190.21 353.735 190.425 355.023 190.425V188.425C353.884 188.425 353.263 188.22 352.963 187.995L351.763 189.595ZM355.023 190.425C356.22 190.425 357.295 190.179 358.133 189.567L356.953 187.953C356.577 188.227 355.972 188.425 355.023 188.425V190.425ZM358.138 189.564C359.096 188.854 359.529 187.676 359.658 186.336L357.667 186.144C357.563 187.23 357.249 187.733 356.948 187.956L358.138 189.564ZM358.663 187.24H361.568V185.24H358.663V187.24ZM344.558 195.01H347.498V193.01H344.558V195.01ZM346.498 194.01V207.73H348.498V194.01H346.498ZM346.498 207.73C346.498 208.3 346.486 208.931 346.463 209.622L348.462 209.688C348.486 208.979 348.498 208.326 348.498 207.73H346.498ZM346.463 209.655C346.463 210.32 346.451 210.985 346.428 211.651L348.427 211.719C348.451 211.031 348.463 210.343 348.463 209.655H346.463ZM346.428 211.651C346.405 212.314 346.371 212.903 346.326 213.418L348.319 213.592C348.367 213.034 348.403 212.409 348.427 211.719L346.428 211.651ZM346.324 213.46C346.301 213.969 346.278 214.351 346.256 214.612L348.249 214.778C348.274 214.479 348.298 214.068 348.322 213.55L346.324 213.46ZM347.253 215.695H347.393V213.695H347.253V215.695ZM348.225 215.249L361.98 194.564L360.315 193.456L346.56 214.141L348.225 215.249ZM361.148 195.01H364.648V193.01H361.148V195.01ZM363.648 194.01V219H365.648V194.01H363.648ZM364.648 218H361.708V220H364.648V218ZM362.708 219V205.42H360.708V219H362.708ZM362.708 205.42C362.708 204.802 362.719 204.136 362.742 203.422L360.743 203.358C360.72 204.09 360.708 204.778 360.708 205.42H362.708ZM362.742 203.421C362.766 202.676 362.789 201.965 362.812 201.289L360.813 201.221C360.79 201.898 360.767 202.611 360.743 203.359L362.742 203.421ZM362.811 201.322C362.858 200.616 362.893 199.99 362.917 199.443L360.919 199.357C360.896 199.884 360.861 200.494 360.815 201.188L362.811 201.322ZM362.917 199.443C362.94 198.909 362.963 198.532 362.984 198.301L360.992 198.119C360.966 198.401 360.942 198.817 360.919 199.357L362.917 199.443ZM361.988 197.21H361.848V199.21H361.988V197.21ZM361.014 197.657L347.224 218.447L348.891 219.553L362.681 198.763L361.014 197.657ZM348.058 218H344.558V220H348.058V218ZM345.558 219V194.01H343.558V219H345.558ZM385.859 197.125L386.241 198.049L386.25 198.046L386.258 198.042L385.859 197.125ZM383.129 199.12L383.886 199.774L383.894 199.764L383.129 199.12ZM381.414 202.305L382.367 202.61L382.368 202.605L381.414 202.305ZM381.764 211.86L380.841 212.244L380.846 212.256L381.764 211.86ZM384.634 215.36L384.09 216.199L384.098 216.204L384.634 215.36ZM392.544 216.305L392.357 215.323L392.357 215.323L392.544 216.305ZM395.414 215.605H396.414V214.261L395.127 214.647L395.414 215.605ZM395.414 218.335L395.765 219.271L396.414 219.028V218.335H395.414ZM392.509 219.105L392.349 218.118L392.345 218.119L392.509 219.105ZM382.604 217.775L383.129 216.924L383.129 216.924L382.604 217.775ZM378.754 213.295L377.837 213.693L377.841 213.702L378.754 213.295ZM378.264 201.29L377.318 200.965L377.314 200.978L378.264 201.29ZM380.574 197.23L379.83 196.562L379.823 196.57L380.574 197.23ZM384.354 194.605L384.731 195.532L384.743 195.526L384.354 194.605ZM393.209 194.045L393.42 193.067L393.42 193.067L393.209 194.045ZM396.394 195.13L397.298 195.558L397.717 194.673L396.842 194.236L396.394 195.13ZM395.134 197.79L394.721 198.7L395.617 199.108L396.038 198.218L395.134 197.79ZM392.544 196.845L392.257 197.803L392.263 197.805L392.544 196.845ZM389.464 195.425C388.016 195.425 386.676 195.68 385.461 196.208L386.258 198.042C387.19 197.637 388.253 197.425 389.464 197.425V195.425ZM385.478 196.201C384.256 196.705 383.215 197.466 382.364 198.476L383.894 199.764C384.537 199 385.316 198.431 386.241 198.049L385.478 196.201ZM382.373 198.466C381.524 199.447 380.892 200.635 380.461 202.005L382.368 202.605C382.73 201.455 383.241 200.519 383.886 199.774L382.373 198.466ZM380.462 202C380.028 203.353 379.819 204.858 379.819 206.505H381.819C381.819 205.025 382.007 203.731 382.367 202.61L380.462 202ZM379.819 206.505C379.819 208.658 380.149 210.579 380.841 212.244L382.688 211.476C382.119 210.108 381.819 208.458 381.819 206.505H379.819ZM380.846 212.256C381.569 213.935 382.648 215.264 384.09 216.199L385.178 214.521C384.101 213.822 383.266 212.818 382.683 211.464L380.846 212.256ZM384.098 216.204C385.578 217.146 387.375 217.585 389.429 217.585V215.585C387.657 215.585 386.257 215.208 385.171 214.516L384.098 216.204ZM389.429 217.585C390.583 217.585 391.684 217.487 392.731 217.287L392.357 215.323C391.445 215.496 390.469 215.585 389.429 215.585V217.585ZM392.731 217.287C393.744 217.094 394.735 216.853 395.702 216.563L395.127 214.647C394.227 214.917 393.304 215.142 392.357 215.323L392.731 217.287ZM394.414 215.605V218.335H396.414V215.605H394.414ZM395.063 217.399C394.193 217.725 393.288 217.965 392.349 218.118L392.67 220.092C393.737 219.918 394.769 219.645 395.765 219.271L395.063 217.399ZM392.345 218.119C391.436 218.27 390.315 218.35 388.974 218.35V220.35C390.387 220.35 391.623 220.266 392.674 220.091L392.345 218.119ZM388.974 218.35C386.567 218.35 384.637 217.853 383.129 216.924L382.08 218.626C383.978 219.797 386.295 220.35 388.974 220.35V218.35ZM383.129 216.924C381.608 215.986 380.454 214.652 379.668 212.888L377.841 213.702C378.781 215.811 380.195 217.464 382.08 218.626L383.129 216.924ZM379.672 212.897C378.898 211.112 378.494 208.978 378.494 206.47H376.494C376.494 209.189 376.931 211.605 377.837 213.693L379.672 212.897ZM378.494 206.47C378.494 204.671 378.739 203.051 379.214 201.602L377.314 200.978C376.763 202.656 376.494 204.489 376.494 206.47H378.494ZM379.21 201.615C379.708 200.164 380.416 198.927 381.326 197.89L379.823 196.57C378.726 197.82 377.894 199.29 377.319 200.965L379.21 201.615ZM381.318 197.898C382.239 196.873 383.371 196.084 384.731 195.531L383.978 193.679C382.351 194.339 380.963 195.3 379.83 196.562L381.318 197.898ZM384.743 195.526C386.092 194.957 387.671 194.66 389.499 194.66V192.66C387.455 192.66 385.604 192.993 383.966 193.684L384.743 195.526ZM389.499 194.66C390.716 194.66 391.881 194.782 392.999 195.023L393.42 193.067C392.157 192.795 390.85 192.66 389.499 192.66V194.66ZM392.999 195.023C394.12 195.264 395.1 195.601 395.947 196.024L396.842 194.236C395.822 193.726 394.679 193.339 393.42 193.067L392.999 195.023ZM395.491 194.702L394.231 197.362L396.038 198.218L397.298 195.558L395.491 194.702ZM395.548 196.88C394.728 196.507 393.82 196.176 392.825 195.885L392.263 197.805C393.183 198.074 394 198.373 394.721 198.7L395.548 196.88ZM392.832 195.887C391.792 195.575 390.667 195.425 389.464 195.425V197.425C390.501 197.425 391.43 197.555 392.257 197.803L392.832 195.887ZM420.905 211.755L421.859 212.054L421.861 212.05L420.905 211.755ZM418.7 215.815L417.941 215.164L417.933 215.173L418.7 215.815ZM415.095 218.44L414.708 217.518L414.703 217.52L415.095 218.44ZM405.015 218.44L404.616 219.357L404.628 219.362L405.015 218.44ZM401.41 215.815L400.643 216.457L400.65 216.464L401.41 215.815ZM399.275 211.72L398.316 212.002L398.316 212.002L399.275 211.72ZM399.835 199.715L400.751 200.117L400.751 200.117L399.835 199.715ZM403.65 195.235L403.122 194.386L403.117 194.389L403.65 195.235ZM416.46 195.235L415.927 196.081L415.935 196.086L416.46 195.235ZM420.31 199.715L419.397 200.122L419.4 200.129L419.403 200.135L420.31 199.715ZM405.47 215.395L404.912 216.225L404.919 216.229L405.47 215.395ZM414.745 215.395L414.187 214.565L414.179 214.57L414.745 215.395ZM417.44 211.895L416.507 211.536L417.44 211.895ZM416.355 199.085L415.546 199.673L415.55 199.678L416.355 199.085ZM405.47 197.615L406.017 198.452L406.021 198.449L405.47 197.615ZM402.775 201.08L403.707 201.444L403.708 201.439L402.775 201.08ZM420.64 206.47C420.64 208.323 420.406 209.983 419.95 211.46L421.861 212.05C422.384 210.353 422.64 208.49 422.64 206.47H420.64ZM419.951 211.456C419.498 212.901 418.825 214.132 417.941 215.164L419.459 216.466C420.535 215.211 421.332 213.735 421.859 212.054L419.951 211.456ZM417.933 215.173C417.084 216.188 416.016 216.97 414.708 217.518L415.482 219.362C417.068 218.697 418.402 217.729 419.467 216.457L417.933 215.173ZM414.703 217.52C413.428 218.064 411.909 218.35 410.125 218.35V220.35C412.121 220.35 413.916 220.03 415.487 219.36L414.703 217.52ZM410.125 218.35C408.266 218.35 406.7 218.062 405.402 217.518L404.628 219.362C406.224 220.031 408.064 220.35 410.125 220.35V218.35ZM405.414 217.523C404.097 216.949 403.022 216.162 402.17 215.166L400.65 216.464C401.712 217.708 403.04 218.671 404.616 219.357L405.414 217.523ZM402.177 215.173C401.318 214.146 400.667 212.907 400.234 211.438L398.316 212.002C398.817 213.706 399.589 215.197 400.643 216.457L402.177 215.173ZM400.234 211.438C399.799 209.957 399.575 208.292 399.575 206.435H397.575C397.575 208.451 397.818 210.31 398.316 212.002L400.234 211.438ZM399.575 206.435C399.575 203.976 399.977 201.878 400.751 200.117L398.919 199.313C398.013 201.378 397.575 203.761 397.575 206.435H399.575ZM400.751 200.117C401.514 198.379 402.655 197.044 404.183 196.081L403.117 194.389C401.238 195.573 399.836 197.224 398.919 199.313L400.751 200.117ZM404.178 196.084C405.707 195.134 407.681 194.625 410.16 194.625V192.625C407.413 192.625 405.047 193.189 403.122 194.386L404.178 196.084ZM410.16 194.625C412.513 194.625 414.418 195.13 415.927 196.081L416.993 194.389C415.096 193.193 412.8 192.625 410.16 192.625V194.625ZM415.935 196.086C417.457 197.024 418.61 198.358 419.397 200.122L421.223 199.308C420.283 197.199 418.87 195.546 416.985 194.384L415.935 196.086ZM419.403 200.135C420.216 201.891 420.64 203.993 420.64 206.47H422.64C422.64 203.767 422.177 201.366 421.217 199.295L419.403 200.135ZM400.9 206.47C400.9 208.659 401.204 210.595 401.842 212.254L403.708 211.536C403.18 210.162 402.9 208.481 402.9 206.47H400.9ZM401.842 212.254C402.49 213.94 403.509 215.281 404.912 216.225L406.028 214.565C405.004 213.876 404.227 212.883 403.708 211.536L401.842 212.254ZM404.919 216.229C406.357 217.179 408.113 217.62 410.125 217.62V215.62C408.404 215.62 407.056 215.244 406.021 214.561L404.919 216.229ZM410.125 217.62C412.155 217.62 413.91 217.181 415.311 216.22L414.179 214.57C413.2 215.242 411.875 215.62 410.125 215.62V217.62ZM415.303 216.225C416.706 215.281 417.725 213.94 418.373 212.254L416.507 211.536C415.989 212.883 415.211 213.876 414.187 214.565L415.303 216.225ZM418.373 212.254C419.012 210.595 419.315 208.659 419.315 206.47H417.315C417.315 208.481 417.035 210.162 416.507 211.536L418.373 212.254ZM419.315 206.47C419.315 203.195 418.637 200.497 417.16 198.492L415.55 199.678C416.686 201.22 417.315 203.445 417.315 206.47H419.315ZM417.164 198.497C415.619 196.372 413.207 195.39 410.16 195.39V197.39C412.76 197.39 414.478 198.204 415.546 199.673L417.164 198.497ZM410.16 195.39C408.128 195.39 406.359 195.83 404.919 196.781L406.021 198.449C407.055 197.767 408.412 197.39 410.16 197.39V195.39ZM404.923 196.778C403.513 197.7 402.491 199.033 401.842 200.721L403.708 201.439C404.226 200.093 405.001 199.117 406.017 198.452L404.923 196.778ZM401.844 200.716C401.203 202.355 400.9 204.282 400.9 206.47H402.9C402.9 204.458 403.18 202.791 403.706 201.444L401.844 200.716ZM433.934 197.125L434.316 198.049L434.324 198.046L434.333 198.042L433.934 197.125ZM431.204 199.12L431.96 199.774L431.969 199.764L431.204 199.12ZM429.489 202.305L430.441 202.61L430.443 202.605L429.489 202.305ZM429.839 211.86L428.915 212.244L428.92 212.256L429.839 211.86ZM432.709 215.36L432.165 216.199L432.172 216.204L432.709 215.36ZM440.619 216.305L440.432 215.323L440.432 215.323L440.619 216.305ZM443.489 215.605H444.489V214.261L443.201 214.647L443.489 215.605ZM443.489 218.335L443.84 219.271L444.489 219.028V218.335H443.489ZM440.584 219.105L440.423 218.118L440.419 218.119L440.584 219.105ZM430.679 217.775L431.204 216.924L431.204 216.924L430.679 217.775ZM426.829 213.295L425.911 213.693L425.915 213.702L426.829 213.295ZM426.339 201.29L425.393 200.965L425.389 200.978L426.339 201.29ZM428.649 197.23L427.905 196.562L427.897 196.57L428.649 197.23ZM432.429 194.605L432.805 195.532L432.817 195.526L432.429 194.605ZM441.284 194.045L441.495 193.067L441.495 193.067L441.284 194.045ZM444.469 195.13L445.373 195.558L445.792 194.673L444.916 194.236L444.469 195.13ZM443.209 197.79L442.795 198.7L443.691 199.108L444.113 198.218L443.209 197.79ZM440.619 196.845L440.331 197.803L440.338 197.805L440.619 196.845ZM437.539 195.425C436.09 195.425 434.75 195.68 433.535 196.208L434.333 198.042C435.264 197.637 436.327 197.425 437.539 197.425V195.425ZM433.552 196.201C432.331 196.705 431.289 197.466 430.439 198.476L431.969 199.764C432.612 199 433.39 198.431 434.316 198.049L433.552 196.201ZM430.447 198.466C429.599 199.447 428.966 200.635 428.535 202.005L430.443 202.605C430.805 201.455 431.316 200.519 431.96 199.774L430.447 198.466ZM428.537 202C428.103 203.353 427.894 204.858 427.894 206.505H429.894C429.894 205.025 430.082 203.731 430.441 202.61L428.537 202ZM427.894 206.505C427.894 208.658 428.224 210.579 428.915 212.244L430.762 211.476C430.194 210.108 429.894 208.458 429.894 206.505H427.894ZM428.92 212.256C429.644 213.935 430.722 215.264 432.165 216.199L433.253 214.521C432.175 213.822 431.34 212.818 430.757 211.464L428.92 212.256ZM432.172 216.204C433.652 217.146 435.449 217.585 437.504 217.585V215.585C435.732 215.585 434.332 215.208 433.246 214.516L432.172 216.204ZM437.504 217.585C438.657 217.585 439.758 217.487 440.806 217.287L440.432 215.323C439.519 215.496 438.544 215.585 437.504 215.585V217.585ZM440.806 217.287C441.819 217.094 442.809 216.853 443.776 216.563L443.201 214.647C442.302 214.917 441.379 215.142 440.432 215.323L440.806 217.287ZM442.489 215.605V218.335H444.489V215.605H442.489ZM443.138 217.399C442.267 217.725 441.363 217.965 440.423 218.118L440.744 220.092C441.811 219.918 442.844 219.645 443.84 219.271L443.138 217.399ZM440.419 218.119C439.51 218.27 438.39 218.35 437.049 218.35V220.35C438.461 220.35 439.698 220.266 440.748 220.091L440.419 218.119ZM437.049 218.35C434.641 218.35 432.712 217.853 431.204 216.924L430.154 218.626C432.053 219.797 434.37 220.35 437.049 220.35V218.35ZM431.204 216.924C429.682 215.986 428.529 214.652 427.742 212.888L425.915 213.702C426.856 215.811 428.269 217.464 430.154 218.626L431.204 216.924ZM427.746 212.897C426.972 211.112 426.569 208.978 426.569 206.47H424.569C424.569 209.189 425.006 211.605 425.911 213.693L427.746 212.897ZM426.569 206.47C426.569 204.671 426.813 203.051 427.289 201.602L425.389 200.978C424.838 202.656 424.569 204.489 424.569 206.47H426.569ZM427.285 201.615C427.783 200.164 428.49 198.927 429.4 197.89L427.897 196.57C426.801 197.82 425.968 199.29 425.393 200.965L427.285 201.615ZM429.393 197.898C430.313 196.873 431.445 196.084 432.805 195.531L432.052 193.679C430.426 194.339 429.038 195.3 427.905 196.562L429.393 197.898ZM432.817 195.526C434.166 194.957 435.745 194.66 437.574 194.66V192.66C435.529 192.66 433.678 192.993 432.04 193.684L432.817 195.526ZM437.574 194.66C438.79 194.66 439.956 194.782 441.073 195.023L441.495 193.067C440.232 192.795 438.924 192.66 437.574 192.66V194.66ZM441.073 195.023C442.194 195.264 443.174 195.601 444.022 196.024L444.916 194.236C443.896 193.726 442.753 193.339 441.495 193.067L441.073 195.023ZM443.565 194.702L442.305 197.362L444.113 198.218L445.373 195.558L443.565 194.702ZM443.623 196.88C442.803 196.507 441.894 196.176 440.9 195.885L440.338 197.805C441.257 198.074 442.075 198.373 442.795 198.7L443.623 196.88ZM440.906 195.887C439.867 195.575 438.742 195.425 437.539 195.425V197.425C438.576 197.425 439.504 197.555 440.331 197.803L440.906 195.887ZM456.503 219V220H457.503V219H456.503ZM453.353 219H452.353V220H453.353V219ZM453.353 196.775H454.353V195.775H453.353V196.775ZM445.548 196.775H444.548V197.775H445.548V196.775ZM445.548 194.01V193.01H444.548V194.01H445.548ZM464.273 194.01H465.273V193.01H464.273V194.01ZM464.273 196.775V197.775H465.273V196.775H464.273ZM456.503 196.775V195.775H455.503V196.775H456.503ZM456.503 218H453.353V220H456.503V218ZM454.353 219V196.775H452.353V219H454.353ZM453.353 195.775H445.548V197.775H453.353V195.775ZM446.548 196.775V194.01H444.548V196.775H446.548ZM445.548 195.01H464.273V193.01H445.548V195.01ZM463.273 194.01V196.775H465.273V194.01H463.273ZM464.273 195.775H456.503V197.775H464.273V195.775ZM455.503 196.775V219H457.503V196.775H455.503ZM480.91 219L479.978 219.363L480.226 220H480.91V219ZM477.9 211.265L478.832 210.902L478.584 210.265H477.9V211.265ZM467.995 211.265V210.265H467.309L467.062 210.906L467.995 211.265ZM465.02 219V220H465.707L465.954 219.359L465.02 219ZM461.835 219L460.903 218.637L460.373 220H461.835V219ZM471.6 193.905V192.905H470.916L470.668 193.542L471.6 193.905ZM474.435 193.905L475.368 193.543L475.12 192.905H474.435V193.905ZM484.165 219V220H485.626L485.098 218.638L484.165 219ZM474.155 200.905L475.093 200.558L475.092 200.554L474.155 200.905ZM473.805 199.89L472.857 200.206L472.857 200.206L473.805 199.89ZM473.315 198.385L472.348 198.637L472.354 198.663L472.362 198.688L473.315 198.385ZM472.965 197.16L473.914 196.844L472.828 193.586L471.995 196.917L472.965 197.16ZM472.58 198.595L471.619 198.32L471.614 198.336L471.61 198.352L472.58 198.595ZM472.195 199.89L471.252 199.557L471.244 199.582L471.236 199.608L472.195 199.89ZM471.88 200.905L472.817 201.256L472.823 201.239L472.829 201.221L471.88 200.905ZM469.045 208.465L468.109 208.114L467.602 209.465H469.045V208.465ZM476.955 208.465V209.465H478.392L477.893 208.118L476.955 208.465ZM481.842 218.637L478.832 210.902L476.968 211.628L479.978 219.363L481.842 218.637ZM477.9 210.265H467.995V212.265H477.9V210.265ZM467.062 210.906L464.087 218.641L465.954 219.359L468.929 211.624L467.062 210.906ZM465.02 218H461.835V220H465.02V218ZM462.767 219.363L472.532 194.268L470.668 193.542L460.903 218.637L462.767 219.363ZM471.6 194.905H474.435V192.905H471.6V194.905ZM473.503 194.267L483.233 219.362L485.098 218.638L475.368 193.543L473.503 194.267ZM484.165 218H480.91V220H484.165V218ZM475.092 200.554C475.029 200.387 474.918 200.065 474.754 199.574L472.857 200.206C473.02 200.695 473.142 201.05 473.219 201.256L475.092 200.554ZM474.754 199.574C474.592 199.088 474.43 198.591 474.268 198.082L472.362 198.688C472.527 199.206 472.692 199.712 472.857 200.206L474.754 199.574ZM474.283 198.133C474.141 197.59 474.018 197.156 473.914 196.844L472.017 197.476C472.099 197.724 472.209 198.107 472.348 198.637L474.283 198.133ZM471.995 196.917C471.881 197.373 471.756 197.84 471.619 198.32L473.542 198.87C473.685 198.37 473.816 197.881 473.936 197.403L471.995 196.917ZM471.61 198.352C471.5 198.793 471.381 199.194 471.252 199.557L473.138 200.223C473.29 199.793 473.427 199.33 473.551 198.838L471.61 198.352ZM471.236 199.608C471.121 199.997 471.02 200.324 470.932 200.589L472.829 201.221C472.927 200.926 473.036 200.576 473.155 200.172L471.236 199.608ZM470.944 200.554L468.109 208.114L469.982 208.816L472.817 201.256L470.944 200.554ZM469.045 209.465H476.955V207.465H469.045V209.465ZM477.893 208.118L475.093 200.558L473.218 201.252L476.018 208.812L477.893 208.118ZM499.589 194.605L499.316 195.567L499.32 195.568L499.589 194.605ZM502.774 196.565L501.981 197.175L501.986 197.181L501.991 197.187L502.774 196.565ZM503.299 202.83L502.399 202.394L502.393 202.406L503.299 202.83ZM501.689 204.72L502.262 205.539L502.268 205.536L501.689 204.72ZM499.099 205.735L498.92 204.751L498.099 204.9V205.735H499.099ZM499.099 205.91H498.099V206.766L498.945 206.898L499.099 205.91ZM501.934 206.82L501.467 207.704L501.477 207.71L501.934 206.82ZM503.964 208.71L504.821 208.196L504.821 208.196L503.964 208.71ZM503.649 215.78L504.481 216.335L504.486 216.326L503.649 215.78ZM500.639 218.195L501.025 219.118L501.033 219.114L500.639 218.195ZM487.234 219H486.234V220H487.234V219ZM487.234 194.01V193.01H486.234V194.01H487.234ZM499.414 203.635L500.063 204.396L500.069 204.39L500.075 204.385L499.414 203.635ZM499.134 197.615L498.598 198.46L498.61 198.467L498.622 198.474L499.134 197.615ZM490.384 196.705V195.705H489.384V196.705H490.384ZM490.384 204.65H489.384V205.65H490.384V204.65ZM490.384 207.275V206.275H489.384V207.275H490.384ZM490.384 216.34H489.384V217.34H490.384V216.34ZM500.044 215.045L500.751 215.752L500.751 215.752L500.044 215.045ZM500.744 209.34L499.876 209.836L499.882 209.848L499.889 209.859L500.744 209.34ZM498.819 207.835L498.431 208.757L498.445 208.763L498.46 208.768L498.819 207.835ZM494.374 195.01C496.394 195.01 498.034 195.204 499.316 195.567L499.861 193.643C498.344 193.213 496.507 193.01 494.374 193.01V195.01ZM499.32 195.568C500.595 195.924 501.447 196.48 501.981 197.175L503.566 195.955C502.701 194.83 501.429 194.08 499.857 193.642L499.32 195.568ZM501.991 197.187C502.536 197.873 502.859 198.845 502.859 200.205H504.859C504.859 198.532 504.458 197.077 503.557 195.943L501.991 197.187ZM502.859 200.205C502.859 201.056 502.697 201.778 502.399 202.394L504.199 203.266C504.647 202.342 504.859 201.314 504.859 200.205H502.859ZM502.393 202.406C502.122 202.984 501.704 203.483 501.11 203.904L502.268 205.536C503.121 204.93 503.776 204.169 504.204 203.254L502.393 202.406ZM501.115 203.901C500.557 204.292 499.836 204.585 498.92 204.751L499.278 206.719C500.416 206.512 501.421 206.128 502.262 205.539L501.115 203.901ZM498.099 205.735V205.91H500.099V205.735H498.099ZM498.945 206.898C499.899 207.046 500.736 207.318 501.467 207.704L502.401 205.936C501.452 205.435 500.399 205.1 499.253 204.922L498.945 206.898ZM501.477 207.71C502.178 208.069 502.714 208.571 503.106 209.224L504.821 208.196C504.233 207.216 503.417 206.457 502.391 205.93L501.477 207.71ZM503.106 209.224C503.475 209.838 503.699 210.705 503.699 211.895H505.699C505.699 210.472 505.433 209.215 504.821 208.196L503.106 209.224ZM503.699 211.895C503.699 213.254 503.387 214.351 502.811 215.234L504.486 216.326C505.311 215.063 505.699 213.569 505.699 211.895H503.699ZM502.817 215.225C502.238 216.094 501.397 216.782 500.245 217.276L501.033 219.114C502.494 218.488 503.66 217.566 504.481 216.335L502.817 215.225ZM500.253 217.272C499.122 217.745 497.72 218 496.019 218V220C497.911 220 499.589 219.718 501.025 219.118L500.253 217.272ZM496.019 218H487.234V220H496.019V218ZM488.234 219V194.01H486.234V219H488.234ZM487.234 195.01H494.374V193.01H487.234V195.01ZM495.004 205.65C497.178 205.65 498.975 205.323 500.063 204.396L498.765 202.874C498.266 203.3 497.123 203.65 495.004 203.65V205.65ZM500.075 204.385C501.141 203.445 501.604 202.11 501.604 200.555H499.604C499.604 201.707 499.274 202.425 498.752 202.885L500.075 204.385ZM501.604 200.555C501.604 198.911 500.995 197.559 499.645 196.756L498.622 198.474C499.233 198.837 499.604 199.445 499.604 200.555H501.604ZM499.669 196.77C498.465 196.007 496.686 195.705 494.514 195.705V197.705C496.588 197.705 497.889 198.01 498.598 198.46L499.669 196.77ZM494.514 195.705H490.384V197.705H494.514V195.705ZM489.384 196.705V204.65H491.384V196.705H489.384ZM490.384 205.65H495.004V203.65H490.384V205.65ZM489.384 207.275V216.34H491.384V207.275H489.384ZM490.384 217.34H495.424V215.34H490.384V217.34ZM495.424 217.34C497.709 217.34 499.596 216.907 500.751 215.752L499.337 214.338C498.765 214.91 497.572 215.34 495.424 215.34V217.34ZM500.751 215.752C501.83 214.673 502.339 213.273 502.339 211.65H500.339C500.339 212.827 499.985 213.69 499.337 214.338L500.751 215.752ZM502.339 211.65C502.339 210.61 502.105 209.654 501.599 208.821L499.889 209.859C500.176 210.332 500.339 210.917 500.339 211.65H502.339ZM501.612 208.844C501.094 207.938 500.238 207.31 499.178 206.902L498.46 208.768C499.219 209.06 499.647 209.436 499.876 209.836L501.612 208.844ZM499.207 206.913C498.146 206.467 496.781 206.275 495.179 206.275V208.275C496.656 208.275 497.719 208.457 498.431 208.757L499.207 206.913ZM495.179 206.275H490.384V208.275H495.179V206.275Z" fill="white" mask="url(#path-2-outside-1_544_160)"/>
</g>
<defs>
<filter id="filter0_dddddd_544_160" x="85.816" y="-103.184" width="469.368" height="476.368" filterUnits="userSpaceOnUse" color-interpolation-filters="sRGB">
<feFlood flood-opacity="0" result="BackgroundImageFix"/>
<feColorMatrix in="SourceAlpha" type="matrix" values="0 0 0 0 0 0 0 0 0 0 0 0 0 0 0 0 0 0 127 0" result="hardAlpha"/>
<feOffset/>
<feGaussianBlur stdDeviation="2.526"/>
<feColorMatrix type="matrix" values="0 0 0 0 0.301961 0 0 0 0 0.301961 0 0 0 0 0.301961 0 0 0 1 0"/>
<feBlend mode="normal" in2="BackgroundImageFix" result="effect1_dropShadow_544_160"/>
<feColorMatrix in="SourceAlpha" type="matrix" values="0 0 0 0 0 0 0 0 0 0 0 0 0 0 0 0 0 0 127 0" result="hardAlpha"/>
<feOffset/>
<feGaussianBlur stdDeviation="5.052"/>
<feColorMatrix type="matrix" values="0 0 0 0 0.301961 0 0 0 0 0.301961 0 0 0 0 0.301961 0 0 0 1 0"/>
<feBlend mode="normal" in2="effect1_dropShadow_544_160" result="effect2_dropShadow_544_160"/>
<feColorMatrix in="SourceAlpha" type="matrix" values="0 0 0 0 0 0 0 0 0 0 0 0 0 0 0 0 0 0 127 0" result="hardAlpha"/>
<feOffset/>
<feGaussianBlur stdDeviation="17.682"/>
<feColorMatrix type="matrix" values="0 0 0 0 0.301961 0 0 0 0 0.301961 0 0 0 0 0.301961 0 0 0 1 0"/>
<feBlend mode="normal" in2="effect2_dropShadow_544_160" result="effect3_dropShadow_544_160"/>
<feColorMatrix in="SourceAlpha" type="matrix" values="0 0 0 0 0 0 0 0 0 0 0 0 0 0 0 0 0 0 127 0" result="hardAlpha"/>
<feOffset/>
<feGaussianBlur stdDeviation="35.364"/>
<feColorMatrix type="matrix" values="0 0 0 0 0.301961 0 0 0 0 0.301961 0 0 0 0 0.301961 0 0 0 1 0"/>
<feBlend mode="normal" in2="effect3_dropShadow_544_160" result="effect4_dropShadow_544_160"/>
<feColorMatrix in="SourceAlpha" type="matrix" values="0 0 0 0 0 0 0 0 0 0 0 0 0 0 0 0 0 0 127 0" result="hardAlpha"/>
<feOffset/>
<feGaussianBlur stdDeviation="60.624"/>
<feColorMatrix type="matrix" values="0 0 0 0 0.301961 0 0 0 0 0.301961 0 0 0 0 0.301961 0 0 0 1 0"/>
<feBlend mode="normal" in2="effect4_dropShadow_544_160" result="effect5_dropShadow_544_160"/>
<feColorMatrix in="SourceAlpha" type="matrix" values="0 0 0 0 0 0 0 0 0 0 0 0 0 0 0 0 0 0 127 0" result="hardAlpha"/>
<feOffset/>
<feGaussianBlur stdDeviation="106.092"/>
<feColorMatrix type="matrix" values="0 0 0 0 0.301961 0 0 0 0 0.301961 0 0 0 0 0.301961 0 0 0 1 0"/>
<feBlend mode="normal" in2="effect5_dropShadow_544_160" result="effect6_dropShadow_544_160"/>
<feBlend mode="normal" in="SourceGraphic" in2="effect6_dropShadow_544_160" result="shape"/>
</filter>
<clipPath id="clip0_544_160">
<rect width="639" height="279" fill="white"/>
</clipPath>
</defs>
</svg>
