<svg width="639" height="279" viewBox="0 0 639 279" fill="none" xmlns="http://www.w3.org/2000/svg">
<g clip-path="url(#clip0_544_160)">
<g filter="url(#filter0_dddddd_544_160)">
<path d="M298 120.155L304.12 116.913V129.113L316.653 136.186V143.966L298 133.121V120.155Z" fill="white"/>
<path d="M298 147.856V140.607L320.267 153.574L323.589 151.746V132.355L310.474 124.575V113.082L316.653 109.722V120.98L330.351 129.113V155.224L320.267 161L298 147.856Z" fill="white"/>
<path d="M323.589 116.913V109L343 120.155V147.856L336.18 151.746V124.575L323.589 116.913Z" fill="white"/>
</g>
<mask id="path-2-outside-1_544_160" maskUnits="userSpaceOnUse" x="167" y="192" width="309" height="35" fill="black">
<rect fill="white" x="167" y="192" width="309" height="35"/>
<path d="M187.105 219H183.955V208.745C182.601 209.212 181.33 209.597 180.14 209.9C178.973 210.18 177.666 210.32 176.22 210.32C173.886 210.32 172.078 209.783 170.795 208.71C169.511 207.613 168.87 206.038 168.87 203.985V194.01H172.02V203.53C172.02 204.883 172.37 205.898 173.07 206.575C173.793 207.228 174.948 207.555 176.535 207.555C177.911 207.555 179.148 207.427 180.245 207.17C181.341 206.913 182.578 206.563 183.955 206.12V194.01H187.105V219ZM201.463 219H198.313V196.775H190.508V194.01H209.233V196.775H201.463V219ZM233.773 206.47C233.773 208.407 233.528 210.168 233.038 211.755C232.548 213.318 231.813 214.672 230.833 215.815C229.876 216.958 228.674 217.833 227.228 218.44C225.804 219.047 224.148 219.35 222.258 219.35C220.298 219.35 218.594 219.047 217.148 218.44C215.701 217.81 214.499 216.935 213.543 215.815C212.586 214.672 211.874 213.307 211.408 211.72C210.941 210.133 210.708 208.372 210.708 206.435C210.708 203.868 211.128 201.628 211.968 199.715C212.808 197.802 214.079 196.308 215.783 195.235C217.509 194.162 219.679 193.625 222.293 193.625C224.789 193.625 226.889 194.162 228.593 195.235C230.296 196.285 231.579 197.778 232.443 199.715C233.329 201.628 233.773 203.88 233.773 206.47ZM214.033 206.47C214.033 208.57 214.324 210.378 214.908 211.895C215.491 213.412 216.389 214.578 217.603 215.395C218.839 216.212 220.391 216.62 222.258 216.62C224.148 216.62 225.688 216.212 226.878 215.395C228.091 214.578 228.989 213.412 229.573 211.895C230.156 210.378 230.448 208.57 230.448 206.47C230.448 203.32 229.794 200.858 228.488 199.085C227.181 197.288 225.116 196.39 222.293 196.39C220.403 196.39 218.839 196.798 217.603 197.615C216.389 198.408 215.491 199.563 214.908 201.08C214.324 202.573 214.033 204.37 214.033 206.47ZM265.419 219L257.194 197.09H257.054C257.101 197.557 257.136 198.152 257.159 198.875C257.206 199.598 257.241 200.392 257.264 201.255C257.288 202.095 257.299 202.958 257.299 203.845V219H254.394V194.01H259.049L266.749 214.485H266.889L274.729 194.01H279.349V219H276.234V203.635C276.234 202.818 276.246 202.013 276.269 201.22C276.293 200.403 276.328 199.645 276.374 198.945C276.421 198.222 276.456 197.615 276.479 197.125H276.339L268.009 219H265.419ZM285.797 219V194.01H288.947V204.58H292.797C295.131 204.58 296.962 204.895 298.292 205.525C299.646 206.155 300.602 207.007 301.162 208.08C301.746 209.153 302.037 210.355 302.037 211.685C302.037 213.155 301.722 214.438 301.092 215.535C300.486 216.632 299.529 217.483 298.222 218.09C296.916 218.697 295.236 219 293.182 219H285.797ZM292.902 216.34C294.909 216.34 296.391 215.955 297.347 215.185C298.304 214.415 298.782 213.248 298.782 211.685C298.782 210.612 298.549 209.76 298.082 209.13C297.639 208.5 296.951 208.045 296.017 207.765C295.084 207.485 293.894 207.345 292.447 207.345H288.947V216.34H292.902ZM305.887 219V194.01H309.037V219H305.887ZM340.043 194.01V216.2H343.228V225.58H340.218V219H323.033V225.58H320.023V216.2H321.948C322.788 214.753 323.581 213.132 324.328 211.335C325.098 209.538 325.774 207.66 326.358 205.7C326.941 203.717 327.419 201.733 327.793 199.75C328.166 197.767 328.399 195.853 328.493 194.01H340.043ZM331.258 196.845C331.164 198.198 330.931 199.727 330.558 201.43C330.208 203.133 329.753 204.883 329.193 206.68C328.656 208.453 328.049 210.168 327.373 211.825C326.719 213.482 326.019 214.94 325.273 216.2H336.928V196.845H331.258ZM361.022 219H347.057V194.01H361.022V196.775H350.207V204.58H360.392V207.31H350.207V216.235H361.022V219ZM384.145 219H380.995V196.775H373.085C372.922 198.058 372.747 199.412 372.56 200.835C372.373 202.235 372.175 203.623 371.965 205C371.778 206.377 371.592 207.672 371.405 208.885C371.218 210.098 371.032 211.16 370.845 212.07C370.542 213.633 370.168 214.963 369.725 216.06C369.282 217.157 368.687 217.985 367.94 218.545C367.217 219.105 366.26 219.385 365.07 219.385C364.673 219.385 364.265 219.338 363.845 219.245C363.448 219.175 363.098 219.082 362.795 218.965V216.34C363.052 216.457 363.343 216.562 363.67 216.655C363.997 216.725 364.347 216.76 364.72 216.76C365.42 216.76 365.968 216.48 366.365 215.92C366.785 215.337 367.112 214.625 367.345 213.785C367.578 212.922 367.777 212.07 367.94 211.23C368.08 210.553 368.243 209.655 368.43 208.535C368.617 207.392 368.815 206.062 369.025 204.545C369.258 203.028 369.492 201.383 369.725 199.61C369.982 197.813 370.227 195.947 370.46 194.01H384.145V219ZM406.265 219L403.255 211.265H393.35L390.375 219H387.19L396.955 193.905H399.79L409.52 219H406.265ZM399.51 200.905C399.44 200.718 399.324 200.38 399.16 199.89C398.997 199.4 398.834 198.898 398.67 198.385C398.53 197.848 398.414 197.44 398.32 197.16C398.204 197.627 398.075 198.105 397.935 198.595C397.819 199.062 397.69 199.493 397.55 199.89C397.434 200.287 397.329 200.625 397.235 200.905L394.4 208.465H402.31L399.51 200.905ZM426.554 219H412.589V194.01H426.554V196.775H415.739V204.58H425.924V207.31H415.739V216.235H426.554V219ZM442.712 219L434.487 197.09H434.347C434.394 197.557 434.429 198.152 434.452 198.875C434.499 199.598 434.534 200.392 434.557 201.255C434.58 202.095 434.592 202.958 434.592 203.845V219H431.687V194.01H436.342L444.042 214.485H444.182L452.022 194.01H456.642V219H453.527V203.635C453.527 202.818 453.539 202.013 453.562 201.22C453.585 200.403 453.62 199.645 453.667 198.945C453.714 198.222 453.749 197.615 453.772 197.125H453.632L445.302 219H442.712ZM465.369 219V216.368H467.984V219H465.369ZM467.779 211.583H465.574V210.917C465.574 210.165 465.665 209.509 465.847 208.951C466.03 208.393 466.269 207.903 466.565 207.481C466.873 207.06 467.215 206.684 467.591 206.354C467.978 206.023 468.371 205.71 468.77 205.414C469.18 205.106 469.573 204.798 469.949 204.491C470.336 204.183 470.678 203.841 470.974 203.465C471.282 203.089 471.527 202.662 471.709 202.184C471.891 201.705 471.983 201.141 471.983 200.492V200.167C471.983 199.62 471.88 199.113 471.675 198.646C471.47 198.167 471.185 197.752 470.82 197.398C470.467 197.045 470.051 196.766 469.573 196.561C469.106 196.356 468.599 196.253 468.052 196.253H467.573C467.027 196.253 466.514 196.356 466.035 196.561C465.568 196.766 465.152 197.045 464.788 197.398C464.435 197.752 464.155 198.167 463.95 198.646C463.745 199.113 463.643 199.62 463.643 200.167V201.158L461.438 200.799V200.167C461.438 199.335 461.592 198.555 461.9 197.826C462.219 197.097 462.652 196.458 463.198 195.912C463.745 195.365 464.383 194.938 465.112 194.63C465.853 194.311 466.639 194.151 467.471 194.151H468.172C469.003 194.151 469.784 194.311 470.513 194.63C471.242 194.938 471.88 195.365 472.427 195.912C472.974 196.458 473.401 197.097 473.709 197.826C474.028 198.555 474.187 199.335 474.187 200.167V200.492C474.187 201.278 474.096 201.967 473.914 202.56C473.731 203.152 473.487 203.676 473.179 204.132C472.883 204.588 472.541 204.992 472.154 205.345C471.778 205.698 471.384 206.029 470.974 206.336C470.576 206.644 470.182 206.946 469.795 207.242C469.419 207.538 469.077 207.863 468.77 208.216C468.473 208.569 468.234 208.963 468.052 209.396C467.87 209.828 467.779 210.335 467.779 210.917V211.583Z"/>
</mask>
<path d="M187.105 219V220H188.105V219H187.105ZM183.955 219H182.955V220H183.955V219ZM183.955 208.745H184.955V207.342L183.629 207.8L183.955 208.745ZM180.14 209.9L180.373 210.872L180.387 210.869L180.14 209.9ZM170.795 208.71L170.145 209.47L170.153 209.477L170.795 208.71ZM168.87 194.01V193.01H167.87V194.01H168.87ZM172.02 194.01H173.02V193.01H172.02V194.01ZM173.07 206.575L172.375 207.294L172.387 207.306L172.399 207.317L173.07 206.575ZM180.245 207.17L180.017 206.196L180.017 206.196L180.245 207.17ZM183.955 206.12L184.261 207.072L184.955 206.849V206.12H183.955ZM183.955 194.01V193.01H182.955V194.01H183.955ZM187.105 194.01H188.105V193.01H187.105V194.01ZM187.105 218H183.955V220H187.105V218ZM184.955 219V208.745H182.955V219H184.955ZM183.629 207.8C182.297 208.259 181.052 208.635 179.893 208.931L180.387 210.869C181.607 210.558 182.905 210.165 184.281 209.69L183.629 207.8ZM179.906 208.928C178.83 209.186 177.603 209.32 176.22 209.32V211.32C177.729 211.32 179.116 211.174 180.373 210.872L179.906 208.928ZM176.22 209.32C174.029 209.32 172.48 208.816 171.436 207.943L170.153 209.477C171.676 210.751 173.743 211.32 176.22 211.32V209.32ZM171.444 207.95C170.431 207.084 169.87 205.815 169.87 203.985H167.87C167.87 206.262 168.592 208.143 170.145 209.47L171.444 207.95ZM169.87 203.985V194.01H167.87V203.985H169.87ZM168.87 195.01H172.02V193.01H168.87V195.01ZM171.02 194.01V203.53H173.02V194.01H171.02ZM171.02 203.53C171.02 205.046 171.414 206.365 172.375 207.294L173.765 205.856C173.326 205.432 173.02 204.72 173.02 203.53H171.02ZM172.399 207.317C173.392 208.214 174.847 208.555 176.535 208.555V206.555C175.049 206.555 174.194 206.243 173.74 205.833L172.399 207.317ZM176.535 208.555C177.972 208.555 179.287 208.421 180.473 208.144L180.017 206.196C179.009 206.432 177.851 206.555 176.535 206.555V208.555ZM180.473 208.144C181.602 207.879 182.865 207.521 184.261 207.072L183.648 205.168C182.29 205.605 181.081 205.947 180.017 206.196L180.473 208.144ZM184.955 206.12V194.01H182.955V206.12H184.955ZM183.955 195.01H187.105V193.01H183.955V195.01ZM186.105 194.01V219H188.105V194.01H186.105ZM201.463 219V220H202.463V219H201.463ZM198.313 219H197.313V220H198.313V219ZM198.313 196.775H199.313V195.775H198.313V196.775ZM190.508 196.775H189.508V197.775H190.508V196.775ZM190.508 194.01V193.01H189.508V194.01H190.508ZM209.233 194.01H210.233V193.01H209.233V194.01ZM209.233 196.775V197.775H210.233V196.775H209.233ZM201.463 196.775V195.775H200.463V196.775H201.463ZM201.463 218H198.313V220H201.463V218ZM199.313 219V196.775H197.313V219H199.313ZM198.313 195.775H190.508V197.775H198.313V195.775ZM191.508 196.775V194.01H189.508V196.775H191.508ZM190.508 195.01H209.233V193.01H190.508V195.01ZM208.233 194.01V196.775H210.233V194.01H208.233ZM209.233 195.775H201.463V197.775H209.233V195.775ZM200.463 196.775V219H202.463V196.775H200.463ZM233.038 211.755L233.992 212.054L233.993 212.05L233.038 211.755ZM230.833 215.815L230.073 215.164L230.066 215.173L230.833 215.815ZM227.228 218.44L226.841 217.518L226.836 217.52L227.228 218.44ZM217.148 218.44L216.748 219.357L216.761 219.362L217.148 218.44ZM213.543 215.815L212.776 216.457L212.782 216.464L213.543 215.815ZM211.408 211.72L210.448 212.002L210.448 212.002L211.408 211.72ZM211.968 199.715L212.883 200.117L212.883 200.117L211.968 199.715ZM215.783 195.235L215.255 194.386L215.25 194.389L215.783 195.235ZM228.593 195.235L228.06 196.081L228.068 196.086L228.593 195.235ZM232.443 199.715L231.529 200.122L231.532 200.129L231.535 200.135L232.443 199.715ZM217.603 215.395L217.044 216.225L217.052 216.229L217.603 215.395ZM226.878 215.395L226.319 214.565L226.312 214.57L226.878 215.395ZM229.573 211.895L228.639 211.536L229.573 211.895ZM228.488 199.085L227.679 199.673L227.683 199.678L228.488 199.085ZM217.603 197.615L218.15 198.452L218.154 198.449L217.603 197.615ZM214.908 201.08L215.839 201.444L215.841 201.439L214.908 201.08ZM232.773 206.47C232.773 208.323 232.538 209.983 232.082 211.46L233.993 212.05C234.517 210.353 234.773 208.49 234.773 206.47H232.773ZM232.084 211.456C231.63 212.901 230.958 214.132 230.073 215.164L231.592 216.466C232.668 215.211 233.465 213.735 233.992 212.054L232.084 211.456ZM230.066 215.173C229.217 216.188 228.148 216.97 226.841 217.518L227.614 219.362C229.201 218.697 230.535 217.729 231.6 216.457L230.066 215.173ZM226.836 217.52C225.561 218.064 224.042 218.35 222.258 218.35V220.35C224.253 220.35 226.048 220.03 227.62 219.36L226.836 217.52ZM222.258 218.35C220.399 218.35 218.832 218.062 217.534 217.518L216.761 219.362C218.357 220.031 220.197 220.35 222.258 220.35V218.35ZM217.547 217.523C216.229 216.949 215.154 216.162 214.303 215.166L212.782 216.464C213.845 217.708 215.173 218.671 216.748 219.357L217.547 217.523ZM214.31 215.173C213.45 214.146 212.799 212.907 212.367 211.438L210.448 212.002C210.95 213.706 211.722 215.197 212.776 216.457L214.31 215.173ZM212.367 211.438C211.932 209.957 211.708 208.292 211.708 206.435H209.708C209.708 208.451 209.951 210.31 210.448 212.002L212.367 211.438ZM211.708 206.435C211.708 203.976 212.11 201.878 212.883 200.117L211.052 199.313C210.145 201.378 209.708 203.761 209.708 206.435H211.708ZM212.883 200.117C213.646 198.379 214.788 197.044 216.316 196.081L215.25 194.389C213.371 195.573 211.969 197.224 211.052 199.313L212.883 200.117ZM216.311 196.084C217.84 195.134 219.814 194.625 222.293 194.625V192.625C219.545 192.625 217.179 193.189 215.255 194.386L216.311 196.084ZM222.293 194.625C224.646 194.625 226.55 195.13 228.06 196.081L229.126 194.389C227.229 193.193 224.933 192.625 222.293 192.625V194.625ZM228.068 196.086C229.59 197.024 230.743 198.358 231.529 200.122L233.356 199.308C232.416 197.199 231.003 195.546 229.117 194.384L228.068 196.086ZM231.535 200.135C232.349 201.891 232.773 203.993 232.773 206.47H234.773C234.773 203.767 234.31 201.366 233.35 199.295L231.535 200.135ZM213.033 206.47C213.033 208.659 213.336 210.595 213.974 212.254L215.841 211.536C215.313 210.162 215.033 208.481 215.033 206.47H213.033ZM213.974 212.254C214.623 213.94 215.642 215.281 217.044 216.225L218.161 214.565C217.137 213.876 216.359 212.883 215.841 211.536L213.974 212.254ZM217.052 216.229C218.49 217.179 220.246 217.62 222.258 217.62V215.62C220.536 215.62 219.189 215.244 218.154 214.561L217.052 216.229ZM222.258 217.62C224.288 217.62 226.042 217.181 227.444 216.22L226.312 214.57C225.333 215.242 224.008 215.62 222.258 215.62V217.62ZM227.436 216.225C228.839 215.281 229.858 213.94 230.506 212.254L228.639 211.536C228.121 212.883 227.344 213.876 226.319 214.565L227.436 216.225ZM230.506 212.254C231.144 210.595 231.448 208.659 231.448 206.47H229.448C229.448 208.481 229.168 210.162 228.639 211.536L230.506 212.254ZM231.448 206.47C231.448 203.195 230.77 200.497 229.293 198.492L227.683 199.678C228.819 201.22 229.448 203.445 229.448 206.47H231.448ZM229.296 198.497C227.751 196.372 225.34 195.39 222.293 195.39V197.39C224.892 197.39 226.611 198.204 227.679 199.673L229.296 198.497ZM222.293 195.39C220.26 195.39 218.492 195.83 217.052 196.781L218.154 198.449C219.187 197.767 220.545 197.39 222.293 197.39V195.39ZM217.056 196.778C215.646 197.7 214.624 199.033 213.974 200.721L215.841 201.439C216.359 200.093 217.133 199.117 218.15 198.452L217.056 196.778ZM213.976 200.716C213.336 202.355 213.033 204.282 213.033 206.47H215.033C215.033 204.458 215.313 202.791 215.839 201.444L213.976 200.716ZM265.419 219L264.483 219.351L264.727 220H265.419V219ZM257.194 197.09L258.131 196.739L257.887 196.09H257.194V197.09ZM257.054 197.09V196.09H255.949L256.059 197.19L257.054 197.09ZM257.159 198.875L256.16 198.907L256.16 198.923L256.161 198.939L257.159 198.875ZM257.264 201.255L256.265 201.282L256.265 201.283L257.264 201.255ZM257.299 219V220H258.299V219H257.299ZM254.394 219H253.394V220H254.394V219ZM254.394 194.01V193.01H253.394V194.01H254.394ZM259.049 194.01L259.985 193.658L259.742 193.01H259.049V194.01ZM266.749 214.485L265.813 214.837L266.057 215.485H266.749V214.485ZM266.889 214.485V215.485H267.577L267.823 214.843L266.889 214.485ZM274.729 194.01V193.01H274.041L273.795 193.652L274.729 194.01ZM279.349 194.01H280.349V193.01H279.349V194.01ZM279.349 219V220H280.349V219H279.349ZM276.234 219H275.234V220H276.234V219ZM276.269 201.22L277.269 201.249L277.269 201.249L276.269 201.22ZM276.374 198.945L277.372 199.012L277.372 199.009L276.374 198.945ZM276.479 197.125L277.478 197.173L277.528 196.125H276.479V197.125ZM276.339 197.125V196.125H275.65L275.405 196.769L276.339 197.125ZM268.009 219V220H268.699L268.944 219.356L268.009 219ZM266.356 218.649L258.131 196.739L256.258 197.441L264.483 219.351L266.356 218.649ZM257.194 196.09H257.054V198.09H257.194V196.09ZM256.059 197.19C256.103 197.625 256.137 198.196 256.16 198.907L258.159 198.843C258.135 198.108 258.099 197.488 258.049 196.99L256.059 197.19ZM256.161 198.939C256.207 199.648 256.242 200.429 256.265 201.282L258.264 201.228C258.24 200.354 258.205 199.548 258.157 198.811L256.161 198.939ZM256.265 201.283C256.288 202.113 256.299 202.967 256.299 203.845H258.299C258.299 202.95 258.288 202.077 258.264 201.227L256.265 201.283ZM256.299 203.845V219H258.299V203.845H256.299ZM257.299 218H254.394V220H257.299V218ZM255.394 219V194.01H253.394V219H255.394ZM254.394 195.01H259.049V193.01H254.394V195.01ZM258.113 194.362L265.813 214.837L267.685 214.133L259.985 193.658L258.113 194.362ZM266.749 215.485H266.889V213.485H266.749V215.485ZM267.823 214.843L275.663 194.368L273.795 193.652L265.955 214.127L267.823 214.843ZM274.729 195.01H279.349V193.01H274.729V195.01ZM278.349 194.01V219H280.349V194.01H278.349ZM279.349 218H276.234V220H279.349V218ZM277.234 219V203.635H275.234V219H277.234ZM277.234 203.635C277.234 202.828 277.246 202.033 277.269 201.249L275.27 201.191C275.246 201.994 275.234 202.809 275.234 203.635H277.234ZM277.269 201.249C277.292 200.443 277.326 199.697 277.372 199.012L275.377 198.878C275.329 199.593 275.293 200.364 275.27 201.191L277.269 201.249ZM277.372 199.009C277.419 198.283 277.454 197.67 277.478 197.173L275.48 197.077C275.457 197.56 275.423 198.161 275.376 198.881L277.372 199.009ZM276.479 196.125H276.339V198.125H276.479V196.125ZM275.405 196.769L267.075 218.644L268.944 219.356L277.274 197.481L275.405 196.769ZM268.009 218H265.419V220H268.009V218ZM285.797 219H284.797V220H285.797V219ZM285.797 194.01V193.01H284.797V194.01H285.797ZM288.947 194.01H289.947V193.01H288.947V194.01ZM288.947 204.58H287.947V205.58H288.947V204.58ZM298.292 205.525L297.864 206.429L297.87 206.432L298.292 205.525ZM301.162 208.08L300.276 208.543L300.28 208.55L300.284 208.558L301.162 208.08ZM301.092 215.535L300.225 215.037L300.221 215.044L300.217 215.051L301.092 215.535ZM298.082 209.13L297.264 209.705L297.271 209.715L297.279 209.725L298.082 209.13ZM296.017 207.765L296.305 206.807L296.305 206.807L296.017 207.765ZM288.947 207.345V206.345H287.947V207.345H288.947ZM288.947 216.34H287.947V217.34H288.947V216.34ZM305.887 219H304.887V220H305.887V219ZM305.887 194.01V193.01H304.887V194.01H305.887ZM309.037 194.01H310.037V193.01H309.037V194.01ZM309.037 219V220H310.037V219H309.037ZM286.797 219V194.01H284.797V219H286.797ZM285.797 195.01H288.947V193.01H285.797V195.01ZM287.947 194.01V204.58H289.947V194.01H287.947ZM288.947 205.58H292.797V203.58H288.947V205.58ZM292.797 205.58C295.06 205.58 296.724 205.889 297.864 206.429L298.72 204.621C297.201 203.901 295.201 203.58 292.797 203.58V205.58ZM297.87 206.432C299.072 206.991 299.839 207.706 300.276 208.543L302.049 207.617C301.365 206.307 300.22 205.319 298.714 204.618L297.87 206.432ZM300.284 208.558C300.78 209.472 301.037 210.507 301.037 211.685H303.037C303.037 210.203 302.711 208.835 302.041 207.602L300.284 208.558ZM301.037 211.685C301.037 213.009 300.755 214.115 300.225 215.037L301.959 216.033C302.69 214.762 303.037 213.301 303.037 211.685H301.037ZM300.217 215.051C299.728 215.935 298.945 216.652 297.801 217.183L298.643 218.997C300.112 218.315 301.243 217.328 301.967 216.019L300.217 215.051ZM297.801 217.183C296.67 217.708 295.148 218 293.182 218V220C295.324 220 297.161 219.685 298.643 218.997L297.801 217.183ZM293.182 218H285.797V220H293.182V218ZM292.902 217.34C295.003 217.34 296.758 216.943 297.974 215.964L296.72 214.406C296.023 214.967 294.815 215.34 292.902 215.34V217.34ZM297.974 215.964C299.229 214.954 299.782 213.461 299.782 211.685H297.782C297.782 213.036 297.379 213.876 296.72 214.406L297.974 215.964ZM299.782 211.685C299.782 210.475 299.52 209.39 298.886 208.535L297.279 209.725C297.578 210.13 297.782 210.748 297.782 211.685H299.782ZM298.9 208.555C298.297 207.697 297.395 207.134 296.305 206.807L295.73 208.723C296.506 208.956 296.981 209.303 297.264 209.705L298.9 208.555ZM296.305 206.807C295.245 206.489 293.949 206.345 292.447 206.345V208.345C293.839 208.345 294.923 208.481 295.73 208.723L296.305 206.807ZM292.447 206.345H288.947V208.345H292.447V206.345ZM287.947 207.345V216.34H289.947V207.345H287.947ZM288.947 217.34H292.902V215.34H288.947V217.34ZM306.887 219V194.01H304.887V219H306.887ZM305.887 195.01H309.037V193.01H305.887V195.01ZM308.037 194.01V219H310.037V194.01H308.037ZM309.037 218H305.887V220H309.037V218ZM340.043 194.01H341.043V193.01H340.043V194.01ZM340.043 216.2H339.043V217.2H340.043V216.2ZM343.228 216.2H344.228V215.2H343.228V216.2ZM343.228 225.58V226.58H344.228V225.58H343.228ZM340.218 225.58H339.218V226.58H340.218V225.58ZM340.218 219H341.218V218H340.218V219ZM323.033 219V218H322.033V219H323.033ZM323.033 225.58V226.58H324.033V225.58H323.033ZM320.023 225.58H319.023V226.58H320.023V225.58ZM320.023 216.2V215.2H319.023V216.2H320.023ZM321.948 216.2V217.2H322.523L322.812 216.702L321.948 216.2ZM324.328 211.335L323.408 210.941L323.404 210.951L324.328 211.335ZM326.358 205.7L327.316 205.985L327.317 205.982L326.358 205.7ZM327.793 199.75L328.775 199.935L328.775 199.935L327.793 199.75ZM328.493 194.01V193.01H327.542L327.494 193.959L328.493 194.01ZM331.258 196.845V195.845H330.324L330.26 196.776L331.258 196.845ZM330.558 201.43L329.581 201.216L329.578 201.229L330.558 201.43ZM329.193 206.68L328.238 206.382L328.235 206.39L329.193 206.68ZM327.373 211.825L326.447 211.447L326.442 211.458L327.373 211.825ZM325.273 216.2L324.412 215.69L323.518 217.2H325.273V216.2ZM336.928 216.2V217.2H337.928V216.2H336.928ZM336.928 196.845H337.928V195.845H336.928V196.845ZM339.043 194.01V216.2H341.043V194.01H339.043ZM340.043 217.2H343.228V215.2H340.043V217.2ZM342.228 216.2V225.58H344.228V216.2H342.228ZM343.228 224.58H340.218V226.58H343.228V224.58ZM341.218 225.58V219H339.218V225.58H341.218ZM340.218 218H323.033V220H340.218V218ZM322.033 219V225.58H324.033V219H322.033ZM323.033 224.58H320.023V226.58H323.033V224.58ZM321.023 225.58V216.2H319.023V225.58H321.023ZM320.023 217.2H321.948V215.2H320.023V217.2ZM322.812 216.702C323.678 215.212 324.49 213.55 325.251 211.719L323.404 210.951C322.672 212.714 321.897 214.295 321.083 215.698L322.812 216.702ZM325.247 211.729C326.033 209.895 326.722 207.981 327.316 205.985L325.399 205.415C324.826 207.339 324.163 209.181 323.408 210.941L325.247 211.729ZM327.317 205.982C327.909 203.968 328.396 201.952 328.775 199.935L326.81 199.565C326.443 201.515 325.972 203.466 325.398 205.418L327.317 205.982ZM328.775 199.935C329.156 197.911 329.395 195.953 329.491 194.061L327.494 193.959C327.403 195.754 327.176 197.622 326.81 199.565L328.775 199.935ZM328.493 195.01H340.043V193.01H328.493V195.01ZM330.26 196.776C330.171 198.069 329.946 199.548 329.581 201.216L331.534 201.644C331.915 199.906 332.158 198.328 332.255 196.914L330.26 196.776ZM329.578 201.229C329.235 202.897 328.789 204.615 328.238 206.382L330.147 206.978C330.716 205.152 331.18 203.37 331.537 201.631L329.578 201.229ZM328.235 206.39C327.708 208.135 327.111 209.82 326.447 211.447L328.298 212.203C328.987 210.516 329.604 208.772 330.15 206.97L328.235 206.39ZM326.442 211.458C325.804 213.076 325.127 214.484 324.412 215.69L326.133 216.71C326.912 215.396 327.634 213.888 328.303 212.192L326.442 211.458ZM325.273 217.2H336.928V215.2H325.273V217.2ZM337.928 216.2V196.845H335.928V216.2H337.928ZM336.928 195.845H331.258V197.845H336.928V195.845ZM361.022 219V220H362.022V219H361.022ZM347.057 219H346.057V220H347.057V219ZM347.057 194.01V193.01H346.057V194.01H347.057ZM361.022 194.01H362.022V193.01H361.022V194.01ZM361.022 196.775V197.775H362.022V196.775H361.022ZM350.207 196.775V195.775H349.207V196.775H350.207ZM350.207 204.58H349.207V205.58H350.207V204.58ZM360.392 204.58H361.392V203.58H360.392V204.58ZM360.392 207.31V208.31H361.392V207.31H360.392ZM350.207 207.31V206.31H349.207V207.31H350.207ZM350.207 216.235H349.207V217.235H350.207V216.235ZM361.022 216.235H362.022V215.235H361.022V216.235ZM361.022 218H347.057V220H361.022V218ZM348.057 219V194.01H346.057V219H348.057ZM347.057 195.01H361.022V193.01H347.057V195.01ZM360.022 194.01V196.775H362.022V194.01H360.022ZM361.022 195.775H350.207V197.775H361.022V195.775ZM349.207 196.775V204.58H351.207V196.775H349.207ZM350.207 205.58H360.392V203.58H350.207V205.58ZM359.392 204.58V207.31H361.392V204.58H359.392ZM360.392 206.31H350.207V208.31H360.392V206.31ZM349.207 207.31V216.235H351.207V207.31H349.207ZM350.207 217.235H361.022V215.235H350.207V217.235ZM360.022 216.235V219H362.022V216.235H360.022ZM384.145 219V220H385.145V219H384.145ZM380.995 219H379.995V220H380.995V219ZM380.995 196.775H381.995V195.775H380.995V196.775ZM373.085 196.775V195.775H372.204L372.093 196.649L373.085 196.775ZM372.56 200.835L373.551 200.967L373.552 200.965L372.56 200.835ZM371.965 205L370.976 204.849L370.975 204.857L370.974 204.866L371.965 205ZM371.405 208.885L370.417 208.733L370.417 208.733L371.405 208.885ZM370.845 212.07L369.865 211.869L369.863 211.88L370.845 212.07ZM369.725 216.06L370.652 216.435L370.652 216.435L369.725 216.06ZM367.94 218.545L367.34 217.745L367.334 217.75L367.328 217.754L367.94 218.545ZM363.845 219.245L364.062 218.269L364.041 218.264L364.019 218.26L363.845 219.245ZM362.795 218.965H361.795V219.652L362.436 219.898L362.795 218.965ZM362.795 216.34L363.209 215.43L361.795 214.787V216.34H362.795ZM363.67 216.655L363.395 217.617L363.428 217.626L363.461 217.633L363.67 216.655ZM366.365 215.92L365.553 215.336L365.549 215.342L366.365 215.92ZM367.345 213.785L368.309 214.053L368.31 214.046L367.345 213.785ZM367.94 211.23L366.961 211.027L366.958 211.039L367.94 211.23ZM368.43 208.535L369.416 208.699L369.417 208.696L368.43 208.535ZM369.025 204.545L368.037 204.393L368.036 204.4L368.035 204.408L369.025 204.545ZM369.725 199.61L368.735 199.469L368.734 199.48L369.725 199.61ZM370.46 194.01V193.01H369.573L369.467 193.89L370.46 194.01ZM384.145 194.01H385.145V193.01H384.145V194.01ZM384.145 218H380.995V220H384.145V218ZM381.995 219V196.775H379.995V219H381.995ZM380.995 195.775H373.085V197.775H380.995V195.775ZM372.093 196.649C371.93 197.931 371.755 199.283 371.569 200.705L373.552 200.965C373.738 199.541 373.914 198.186 374.077 196.901L372.093 196.649ZM371.569 200.703C371.383 202.097 371.186 203.479 370.976 204.849L372.954 205.151C373.165 203.768 373.364 202.373 373.551 200.967L371.569 200.703ZM370.974 204.866C370.788 206.237 370.602 207.526 370.417 208.733L372.393 209.037C372.581 207.817 372.769 206.516 372.956 205.134L370.974 204.866ZM370.417 208.733C370.232 209.935 370.048 210.979 369.865 211.869L371.825 212.271C372.016 211.341 372.205 210.262 372.393 209.037L370.417 208.733ZM369.863 211.88C369.568 213.4 369.211 214.664 368.798 215.685L370.652 216.435C371.126 215.262 371.515 213.867 371.827 212.26L369.863 211.88ZM368.798 215.685C368.405 216.658 367.907 217.32 367.34 217.745L368.54 219.345C369.467 218.65 370.159 217.656 370.652 216.435L368.798 215.685ZM367.328 217.754C366.826 218.143 366.105 218.385 365.07 218.385V220.385C366.415 220.385 367.607 220.067 368.552 219.336L367.328 217.754ZM365.07 218.385C364.752 218.385 364.417 218.348 364.062 218.269L363.628 220.221C364.113 220.329 364.595 220.385 365.07 220.385V218.385ZM364.019 218.26C363.671 218.199 363.385 218.121 363.154 218.032L362.436 219.898C362.812 220.043 363.226 220.151 363.671 220.23L364.019 218.26ZM363.795 218.965V216.34H361.795V218.965H363.795ZM362.381 217.25C362.691 217.391 363.03 217.512 363.395 217.617L363.945 215.693C363.656 215.611 363.412 215.522 363.209 215.43L362.381 217.25ZM363.461 217.633C363.864 217.719 364.284 217.76 364.72 217.76V215.76C364.409 215.76 364.13 215.731 363.88 215.677L363.461 217.633ZM364.72 217.76C365.737 217.76 366.593 217.329 367.181 216.498L365.549 215.342C365.344 215.631 365.103 215.76 364.72 215.76V217.76ZM367.177 216.504C367.678 215.807 368.05 214.983 368.309 214.053L366.382 213.517C366.173 214.267 365.892 214.866 365.554 215.336L367.177 216.504ZM368.31 214.046C368.55 213.16 368.754 212.285 368.922 211.421L366.958 211.039C366.8 211.855 366.607 212.683 366.38 213.524L368.31 214.046ZM368.919 211.433C369.063 210.738 369.229 209.825 369.416 208.699L367.444 208.371C367.258 209.485 367.097 210.369 366.961 211.027L368.919 211.433ZM369.417 208.696C369.605 207.543 369.805 206.204 370.016 204.682L368.035 204.408C367.825 205.919 367.628 207.241 367.443 208.374L369.417 208.696ZM370.013 204.697C370.248 203.172 370.482 201.52 370.717 199.74L368.734 199.48C368.501 201.247 368.269 202.885 368.037 204.393L370.013 204.697ZM370.715 199.751C370.973 197.947 371.219 196.073 371.453 194.13L369.467 193.89C369.235 195.82 368.991 197.68 368.735 199.469L370.715 199.751ZM370.46 195.01H384.145V193.01H370.46V195.01ZM383.145 194.01V219H385.145V194.01H383.145ZM406.265 219L405.333 219.363L405.581 220H406.265V219ZM403.255 211.265L404.187 210.902L403.939 210.265H403.255V211.265ZM393.35 211.265V210.265H392.664L392.417 210.906L393.35 211.265ZM390.375 219V220H391.062L391.309 219.359L390.375 219ZM387.19 219L386.258 218.637L385.728 220H387.19V219ZM396.955 193.905V192.905H396.271L396.023 193.542L396.955 193.905ZM399.79 193.905L400.723 193.543L400.475 192.905H399.79V193.905ZM409.52 219V220H410.981L410.453 218.638L409.52 219ZM399.51 200.905L400.448 200.558L400.447 200.554L399.51 200.905ZM399.16 199.89L398.212 200.206L398.212 200.206L399.16 199.89ZM398.67 198.385L397.703 198.637L397.709 198.663L397.717 198.688L398.67 198.385ZM398.32 197.16L399.269 196.844L398.183 193.586L397.35 196.917L398.32 197.16ZM397.935 198.595L396.974 198.32L396.969 198.336L396.965 198.352L397.935 198.595ZM397.55 199.89L396.607 199.557L396.598 199.582L396.591 199.608L397.55 199.89ZM397.235 200.905L398.172 201.256L398.178 201.239L398.184 201.221L397.235 200.905ZM394.4 208.465L393.464 208.114L392.957 209.465H394.4V208.465ZM402.31 208.465V209.465H403.747L403.248 208.118L402.31 208.465ZM407.197 218.637L404.187 210.902L402.323 211.628L405.333 219.363L407.197 218.637ZM403.255 210.265H393.35V212.265H403.255V210.265ZM392.417 210.906L389.442 218.641L391.309 219.359L394.284 211.624L392.417 210.906ZM390.375 218H387.19V220H390.375V218ZM388.122 219.363L397.887 194.268L396.023 193.542L386.258 218.637L388.122 219.363ZM396.955 194.905H399.79V192.905H396.955V194.905ZM398.858 194.267L408.588 219.362L410.453 218.638L400.723 193.543L398.858 194.267ZM409.52 218H406.265V220H409.52V218ZM400.447 200.554C400.384 200.387 400.273 200.065 400.109 199.574L398.212 200.206C398.375 200.695 398.497 201.05 398.574 201.256L400.447 200.554ZM400.109 199.574C399.947 199.088 399.785 198.591 399.623 198.082L397.717 198.688C397.882 199.206 398.047 199.712 398.212 200.206L400.109 199.574ZM399.638 198.133C399.496 197.59 399.373 197.156 399.269 196.844L397.372 197.476C397.454 197.724 397.564 198.107 397.703 198.637L399.638 198.133ZM397.35 196.917C397.236 197.373 397.111 197.84 396.974 198.32L398.897 198.87C399.04 198.37 399.171 197.881 399.29 197.403L397.35 196.917ZM396.965 198.352C396.855 198.793 396.736 199.194 396.607 199.557L398.493 200.223C398.645 199.793 398.782 199.33 398.905 198.838L396.965 198.352ZM396.591 199.608C396.476 199.997 396.375 200.324 396.287 200.589L398.184 201.221C398.282 200.926 398.391 200.576 398.51 200.172L396.591 199.608ZM396.299 200.554L393.464 208.114L395.337 208.816L398.172 201.256L396.299 200.554ZM394.4 209.465H402.31V207.465H394.4V209.465ZM403.248 208.118L400.448 200.558L398.573 201.252L401.373 208.812L403.248 208.118ZM426.554 219V220H427.554V219H426.554ZM412.589 219H411.589V220H412.589V219ZM412.589 194.01V193.01H411.589V194.01H412.589ZM426.554 194.01H427.554V193.01H426.554V194.01ZM426.554 196.775V197.775H427.554V196.775H426.554ZM415.739 196.775V195.775H414.739V196.775H415.739ZM415.739 204.58H414.739V205.58H415.739V204.58ZM425.924 204.58H426.924V203.58H425.924V204.58ZM425.924 207.31V208.31H426.924V207.31H425.924ZM415.739 207.31V206.31H414.739V207.31H415.739ZM415.739 216.235H414.739V217.235H415.739V216.235ZM426.554 216.235H427.554V215.235H426.554V216.235ZM426.554 218H412.589V220H426.554V218ZM413.589 219V194.01H411.589V219H413.589ZM412.589 195.01H426.554V193.01H412.589V195.01ZM425.554 194.01V196.775H427.554V194.01H425.554ZM426.554 195.775H415.739V197.775H426.554V195.775ZM414.739 196.775V204.58H416.739V196.775H414.739ZM415.739 205.58H425.924V203.58H415.739V205.58ZM424.924 204.58V207.31H426.924V204.58H424.924ZM425.924 206.31H415.739V208.31H425.924V206.31ZM414.739 207.31V216.235H416.739V207.31H414.739ZM415.739 217.235H426.554V215.235H415.739V217.235ZM425.554 216.235V219H427.554V216.235H425.554ZM442.712 219L441.776 219.351L442.019 220H442.712V219ZM434.487 197.09L435.423 196.739L435.18 196.09H434.487V197.09ZM434.347 197.09V196.09H433.242L433.352 197.19L434.347 197.09ZM434.452 198.875L433.453 198.907L433.453 198.923L433.454 198.939L434.452 198.875ZM434.557 201.255L433.557 201.282L433.558 201.283L434.557 201.255ZM434.592 219V220H435.592V219H434.592ZM431.687 219H430.687V220H431.687V219ZM431.687 194.01V193.01H430.687V194.01H431.687ZM436.342 194.01L437.278 193.658L437.034 193.01H436.342V194.01ZM444.042 214.485L443.106 214.837L443.35 215.485H444.042V214.485ZM444.182 214.485V215.485H444.87L445.116 214.843L444.182 214.485ZM452.022 194.01V193.01H451.334L451.088 193.652L452.022 194.01ZM456.642 194.01H457.642V193.01H456.642V194.01ZM456.642 219V220H457.642V219H456.642ZM453.527 219H452.527V220H453.527V219ZM453.562 201.22L454.562 201.249L454.562 201.249L453.562 201.22ZM453.667 198.945L454.665 199.012L454.665 199.009L453.667 198.945ZM453.772 197.125L454.771 197.173L454.821 196.125H453.772V197.125ZM453.632 197.125V196.125H452.943L452.698 196.769L453.632 197.125ZM445.302 219V220H445.991L446.237 219.356L445.302 219ZM443.648 218.649L435.423 196.739L433.551 197.441L441.776 219.351L443.648 218.649ZM434.487 196.09H434.347V198.09H434.487V196.09ZM433.352 197.19C433.396 197.625 433.43 198.196 433.453 198.907L435.452 198.843C435.428 198.108 435.392 197.488 435.342 196.99L433.352 197.19ZM433.454 198.939C433.5 199.648 433.534 200.429 433.557 201.282L435.557 201.228C435.533 200.354 435.498 199.548 435.45 198.811L433.454 198.939ZM433.558 201.283C433.581 202.113 433.592 202.967 433.592 203.845H435.592C435.592 202.95 435.58 202.077 435.557 201.227L433.558 201.283ZM433.592 203.845V219H435.592V203.845H433.592ZM434.592 218H431.687V220H434.592V218ZM432.687 219V194.01H430.687V219H432.687ZM431.687 195.01H436.342V193.01H431.687V195.01ZM435.406 194.362L443.106 214.837L444.978 214.133L437.278 193.658L435.406 194.362ZM444.042 215.485H444.182V213.485H444.042V215.485ZM445.116 214.843L452.956 194.368L451.088 193.652L443.248 214.127L445.116 214.843ZM452.022 195.01H456.642V193.01H452.022V195.01ZM455.642 194.01V219H457.642V194.01H455.642ZM456.642 218H453.527V220H456.642V218ZM454.527 219V203.635H452.527V219H454.527ZM454.527 203.635C454.527 202.828 454.539 202.033 454.562 201.249L452.563 201.191C452.539 201.994 452.527 202.809 452.527 203.635H454.527ZM454.562 201.249C454.585 200.443 454.619 199.697 454.665 199.012L452.669 198.878C452.622 199.593 452.586 200.364 452.563 201.191L454.562 201.249ZM454.665 199.009C454.712 198.283 454.747 197.67 454.771 197.173L452.773 197.077C452.75 197.56 452.716 198.161 452.669 198.881L454.665 199.009ZM453.772 196.125H453.632V198.125H453.772V196.125ZM452.698 196.769L444.368 218.644L446.237 219.356L454.567 197.481L452.698 196.769ZM445.302 218H442.712V220H445.302V218ZM465.369 219H464.369V220H465.369V219ZM465.369 216.368V215.368H464.369V216.368H465.369ZM467.984 216.368H468.984V215.368H467.984V216.368ZM467.984 219V220H468.984V219H467.984ZM467.779 211.583V212.583H468.779V211.583H467.779ZM465.574 211.583H464.574V212.583H465.574V211.583ZM466.565 207.481L465.757 206.892L465.752 206.899L465.747 206.906L466.565 207.481ZM467.591 206.354L466.942 205.593L466.936 205.597L466.93 205.602L467.591 206.354ZM468.77 205.414L469.366 206.216L469.37 206.214L468.77 205.414ZM469.949 204.491L469.327 203.708L469.321 203.712L469.316 203.717L469.949 204.491ZM470.974 203.465L470.2 202.832L470.195 202.839L470.189 202.846L470.974 203.465ZM471.675 198.646L470.756 199.04L470.759 199.048L471.675 198.646ZM470.82 197.398L470.113 198.106L470.119 198.111L470.125 198.117L470.82 197.398ZM469.573 196.561L469.171 197.477L469.179 197.48L469.573 196.561ZM466.035 196.561L465.641 195.642L465.633 195.645L466.035 196.561ZM464.788 197.398L464.092 196.68L464.086 196.686L464.081 196.691L464.788 197.398ZM463.95 198.646L464.866 199.048L464.87 199.04L463.95 198.646ZM463.643 201.158L463.482 202.145L464.643 202.334V201.158H463.643ZM461.438 200.799H460.438V201.65L461.277 201.786L461.438 200.799ZM461.9 197.826L460.983 197.425L460.978 197.437L461.9 197.826ZM465.112 194.63L465.501 195.551L465.508 195.548L465.112 194.63ZM470.513 194.63L470.112 195.546L470.124 195.551L470.513 194.63ZM473.709 197.826L472.787 198.214L472.793 198.227L473.709 197.826ZM473.914 202.56L472.958 202.265L473.914 202.56ZM473.179 204.132L472.35 203.572L472.345 203.58L472.34 203.587L473.179 204.132ZM472.154 205.345L471.48 204.606L471.474 204.611L471.469 204.616L472.154 205.345ZM470.974 206.336L470.374 205.536L470.364 205.545L470.974 206.336ZM469.795 207.242L469.188 206.448L469.182 206.452L469.176 206.457L469.795 207.242ZM468.77 208.216L468.016 207.56L468.01 207.567L468.004 207.574L468.77 208.216ZM466.369 219V216.368H464.369V219H466.369ZM465.369 217.368H467.984V215.368H465.369V217.368ZM466.984 216.368V219H468.984V216.368H466.984ZM467.984 218H465.369V220H467.984V218ZM467.779 210.583H465.574V212.583H467.779V210.583ZM466.574 211.583V210.917H464.574V211.583H466.574ZM466.574 210.917C466.574 210.242 466.656 209.696 466.798 209.262L464.897 208.641C464.674 209.323 464.574 210.087 464.574 210.917H466.574ZM466.798 209.262C466.954 208.785 467.151 208.386 467.383 208.056L465.747 206.906C465.386 207.42 465.106 208.001 464.897 208.641L466.798 209.262ZM467.373 208.071C467.639 207.706 467.932 207.385 468.251 207.105L466.93 205.602C466.497 205.983 466.106 206.414 465.757 206.892L467.373 208.071ZM468.239 207.114C468.61 206.798 468.986 206.499 469.366 206.216L468.173 204.611C467.756 204.921 467.346 205.248 466.942 205.593L468.239 207.114ZM469.37 206.214C469.791 205.898 470.195 205.582 470.582 205.265L469.316 203.717C468.951 204.015 468.569 204.314 468.17 204.614L469.37 206.214ZM470.571 205.274C471.017 204.92 471.414 204.523 471.76 204.084L470.189 202.846C469.942 203.16 469.656 203.447 469.327 203.708L470.571 205.274ZM471.748 204.099C472.128 203.635 472.425 203.113 472.644 202.54L470.775 201.828C470.629 202.211 470.436 202.544 470.2 202.832L471.748 204.099ZM472.644 202.54C472.879 201.921 472.983 201.232 472.983 200.492H470.983C470.983 201.051 470.904 201.489 470.775 201.828L472.644 202.54ZM472.983 200.492V200.167H470.983V200.492H472.983ZM472.983 200.167C472.983 199.492 472.855 198.847 472.591 198.244L470.759 199.048C470.905 199.379 470.983 199.748 470.983 200.167H472.983ZM472.594 198.252C472.338 197.655 471.979 197.128 471.516 196.68L470.125 198.117C470.392 198.375 470.602 198.68 470.756 199.04L472.594 198.252ZM471.528 196.691C471.081 196.244 470.557 195.895 469.967 195.642L469.179 197.48C469.546 197.637 469.854 197.846 470.113 198.106L471.528 196.691ZM469.975 195.645C469.372 195.381 468.727 195.253 468.052 195.253V197.253C468.471 197.253 468.839 197.331 469.171 197.477L469.975 195.645ZM468.052 195.253H467.573V197.253H468.052V195.253ZM467.573 195.253C466.898 195.253 466.251 195.381 465.641 195.642L466.429 197.48C466.777 197.331 467.155 197.253 467.573 197.253V195.253ZM465.633 195.645C465.058 195.898 464.542 196.244 464.092 196.68L465.484 198.117C465.762 197.847 466.079 197.634 466.437 197.477L465.633 195.645ZM464.081 196.691C463.634 197.138 463.284 197.662 463.031 198.252L464.87 199.04C465.027 198.673 465.235 198.365 465.495 198.106L464.081 196.691ZM463.035 198.244C462.77 198.847 462.643 199.492 462.643 200.167H464.643C464.643 199.748 464.72 199.379 464.866 199.048L463.035 198.244ZM462.643 200.167V201.158H464.643V200.167H462.643ZM463.803 200.171L461.599 199.812L461.277 201.786L463.482 202.145L463.803 200.171ZM462.438 200.799V200.167H460.438V200.799H462.438ZM462.438 200.167C462.438 199.462 462.568 198.814 462.821 198.214L460.978 197.437C460.616 198.295 460.438 199.209 460.438 200.167H462.438ZM462.816 198.227C463.086 197.608 463.449 197.075 463.906 196.619L462.491 195.205C461.854 195.842 461.351 196.585 460.983 197.425L462.816 198.227ZM463.906 196.619C464.359 196.165 464.888 195.81 465.501 195.551L464.724 193.709C463.878 194.065 463.132 194.564 462.491 195.205L463.906 196.619ZM465.508 195.548C466.12 195.285 466.771 195.151 467.471 195.151V193.151C466.508 193.151 465.586 193.337 464.717 193.711L465.508 195.548ZM467.471 195.151H468.172V193.151H467.471V195.151ZM468.172 195.151C468.872 195.151 469.515 195.285 470.112 195.546L470.914 193.714C470.052 193.337 469.135 193.151 468.172 193.151V195.151ZM470.124 195.551C470.737 195.81 471.266 196.165 471.72 196.619L473.134 195.205C472.494 194.564 471.747 194.065 470.902 193.709L470.124 195.551ZM471.72 196.619C472.173 197.072 472.529 197.601 472.787 198.214L474.63 197.437C474.273 196.592 473.774 195.845 473.134 195.205L471.72 196.619ZM472.793 198.227C473.054 198.824 473.187 199.467 473.187 200.167H475.187C475.187 199.204 475.002 198.286 474.625 197.425L472.793 198.227ZM473.187 200.167V200.492H475.187V200.167H473.187ZM473.187 200.492C473.187 201.204 473.104 201.79 472.958 202.265L474.87 202.854C475.088 202.144 475.187 201.352 475.187 200.492H473.187ZM472.958 202.265C472.801 202.776 472.596 203.208 472.35 203.572L474.008 204.691C474.377 204.144 474.662 203.529 474.87 202.854L472.958 202.265ZM472.34 203.587C472.089 203.974 471.802 204.313 471.48 204.606L472.827 206.084C473.28 205.672 473.676 205.201 474.017 204.677L472.34 203.587ZM471.469 204.616C471.12 204.944 470.755 205.251 470.374 205.536L471.574 207.136C472.014 206.807 472.435 206.452 472.838 206.074L471.469 204.616ZM470.364 205.545C469.966 205.851 469.574 206.152 469.188 206.448L470.403 208.037C470.791 207.739 471.185 207.437 471.585 207.128L470.364 205.545ZM469.176 206.457C468.752 206.791 468.365 207.158 468.016 207.56L469.524 208.873C469.79 208.568 470.086 208.286 470.414 208.028L469.176 206.457ZM468.004 207.574C467.642 208.005 467.351 208.484 467.13 209.007L468.974 209.784C469.118 209.441 469.305 209.134 469.536 208.859L468.004 207.574ZM467.13 209.007C466.886 209.589 466.779 210.233 466.779 210.917H468.779C468.779 210.438 468.854 210.068 468.974 209.784L467.13 209.007ZM466.779 210.917V211.583H468.779V210.917H466.779Z" fill="white" mask="url(#path-2-outside-1_544_160)"/>
</g>
<defs>
<filter id="filter0_dddddd_544_160" x="85.816" y="-103.184" width="469.368" height="476.368" filterUnits="userSpaceOnUse" color-interpolation-filters="sRGB">
<feFlood flood-opacity="0" result="BackgroundImageFix"/>
<feColorMatrix in="SourceAlpha" type="matrix" values="0 0 0 0 0 0 0 0 0 0 0 0 0 0 0 0 0 0 127 0" result="hardAlpha"/>
<feOffset/>
<feGaussianBlur stdDeviation="2.526"/>
<feColorMatrix type="matrix" values="0 0 0 0 0.301961 0 0 0 0 0.301961 0 0 0 0 0.301961 0 0 0 1 0"/>
<feBlend mode="normal" in2="BackgroundImageFix" result="effect1_dropShadow_544_160"/>
<feColorMatrix in="SourceAlpha" type="matrix" values="0 0 0 0 0 0 0 0 0 0 0 0 0 0 0 0 0 0 127 0" result="hardAlpha"/>
<feOffset/>
<feGaussianBlur stdDeviation="5.052"/>
<feColorMatrix type="matrix" values="0 0 0 0 0.301961 0 0 0 0 0.301961 0 0 0 0 0.301961 0 0 0 1 0"/>
<feBlend mode="normal" in2="effect1_dropShadow_544_160" result="effect2_dropShadow_544_160"/>
<feColorMatrix in="SourceAlpha" type="matrix" values="0 0 0 0 0 0 0 0 0 0 0 0 0 0 0 0 0 0 127 0" result="hardAlpha"/>
<feOffset/>
<feGaussianBlur stdDeviation="17.682"/>
<feColorMatrix type="matrix" values="0 0 0 0 0.301961 0 0 0 0 0.301961 0 0 0 0 0.301961 0 0 0 1 0"/>
<feBlend mode="normal" in2="effect2_dropShadow_544_160" result="effect3_dropShadow_544_160"/>
<feColorMatrix in="SourceAlpha" type="matrix" values="0 0 0 0 0 0 0 0 0 0 0 0 0 0 0 0 0 0 127 0" result="hardAlpha"/>
<feOffset/>
<feGaussianBlur stdDeviation="35.364"/>
<feColorMatrix type="matrix" values="0 0 0 0 0.301961 0 0 0 0 0.301961 0 0 0 0 0.301961 0 0 0 1 0"/>
<feBlend mode="normal" in2="effect3_dropShadow_544_160" result="effect4_dropShadow_544_160"/>
<feColorMatrix in="SourceAlpha" type="matrix" values="0 0 0 0 0 0 0 0 0 0 0 0 0 0 0 0 0 0 127 0" result="hardAlpha"/>
<feOffset/>
<feGaussianBlur stdDeviation="60.624"/>
<feColorMatrix type="matrix" values="0 0 0 0 0.301961 0 0 0 0 0.301961 0 0 0 0 0.301961 0 0 0 1 0"/>
<feBlend mode="normal" in2="effect4_dropShadow_544_160" result="effect5_dropShadow_544_160"/>
<feColorMatrix in="SourceAlpha" type="matrix" values="0 0 0 0 0 0 0 0 0 0 0 0 0 0 0 0 0 0 127 0" result="hardAlpha"/>
<feOffset/>
<feGaussianBlur stdDeviation="106.092"/>
<feColorMatrix type="matrix" values="0 0 0 0 0.301961 0 0 0 0 0.301961 0 0 0 0 0.301961 0 0 0 1 0"/>
<feBlend mode="normal" in2="effect5_dropShadow_544_160" result="effect6_dropShadow_544_160"/>
<feBlend mode="normal" in="SourceGraphic" in2="effect6_dropShadow_544_160" result="shape"/>
</filter>
<clipPath id="clip0_544_160">
<rect width="639" height="279" fill="white"/>
</clipPath>
</defs>
</svg>
