<svg width="108" height="302" viewBox="0 0 108 302" fill="none" xmlns="http://www.w3.org/2000/svg">
<g clip-path="url(#clip0_192_264)">
<path d="M34.1915 64.3817C34.2364 63.9522 34.2814 63.5228 34.3052 63.117C34.3324 62.7784 34.3372 62.441 34.3633 62.08C34.3668 62.1473 34.3703 62.2145 34.3526 62.3054C34.2969 62.9601 34.2436 63.6597 34.1926 64.4041L34.1915 64.3817Z" fill="white"/>
<path d="M31.1809 40.3859C31.4981 41.2905 31.7941 42.2187 32.0451 43.1492C31.827 42.4192 31.5323 41.5134 31.1809 40.3859Z" fill="white"/>
<path d="M32.4632 62.2929C32.2836 63.1561 32.0591 64.0217 31.8123 64.8884C32.3008 64.773 32.7682 64.6811 33.2355 64.5892C33.616 62.8392 33.8844 61.0951 34.0383 59.312C34.2811 56.2211 34.1628 53.1042 33.6657 50.0521L33.5031 49.0945C33.1544 47.158 32.9741 46.2912 32.5615 44.8524C32.4235 44.3653 32.2608 43.8346 32.0687 43.1706C32.7654 45.7404 33.1965 48.3916 33.3586 51.0568C33.5995 54.7964 33.3033 58.5866 32.4868 62.3142L32.4632 62.2929Z" fill="white"/>
<path d="M31.181 40.3859C31.181 40.3859 31.1798 40.3635 31.1786 40.341L31.0736 40.0542C31.0736 40.0542 31.1007 40.1427 31.1243 40.164C31.1503 40.2301 31.1775 40.3186 31.2034 40.3847L31.181 40.3859Z" fill="white"/>
<path d="M26.328 66.2091C27.1482 65.9864 27.9909 65.7626 28.8347 65.5611C32.973 54.4247 33.5141 39.8593 22.7641 25.2114C22.7641 25.2114 22.7641 25.2114 22.7629 25.189C21.8735 24.0897 21.3933 23.5082 20.6784 22.7368C19.9411 21.9665 18.9453 20.9851 16.9799 19.0884C16.39 18.5576 15.6632 17.989 14.9588 17.4193C14.9824 17.4405 15.0296 17.483 15.0532 17.5042C27.9922 28.4426 34.1208 47.5792 26.3752 66.2516L26.328 66.2091Z" fill="white"/>
<path d="M13.0357 15.9017C13.6683 16.3855 14.3009 16.8693 14.9134 17.3992C14.256 16.8717 13.5998 16.3666 13.0357 15.9017Z" fill="white"/>
<path d="M-1.64628 9.03206C0.262878 9.85326 2.13659 10.8561 3.95124 12.0192C5.76589 13.1824 7.49906 14.5071 9.17319 15.9922C13.49 19.8553 16.8579 24.4872 19.2591 29.5516C21.6603 34.616 23.0713 40.0917 23.4757 45.6652C23.88 51.2386 23.3002 56.9085 21.6736 62.3412C21.0629 64.4178 20.2716 66.4814 19.3636 68.4612C19.4084 68.4589 19.4521 68.4341 19.4958 68.4094C19.6941 68.3316 19.8935 68.2762 20.0918 68.1984C20.9522 67.8837 21.7689 67.5938 22.5856 67.3039C23.2492 65.8087 23.822 64.2957 24.3263 62.7639C26.0662 57.3478 26.7593 51.6944 26.4458 46.1387C26.1323 40.583 24.7898 35.1261 22.457 30.0806C20.1242 25.0351 16.78 20.4245 12.462 16.5389C11.3294 15.5198 10.1554 14.5702 8.94138 13.7126C7.7273 12.855 6.49432 12.0658 5.22002 11.3461C3.94573 10.6265 2.65372 9.99765 1.32037 9.43838C0.401188 9.05963 -0.516821 8.70328 -1.45491 8.39293C-1.86672 8.25722 -2.30096 8.12269 -2.71278 7.98698C-2.87208 7.95039 -3.05498 7.89256 -3.21428 7.85597C-4.6055 7.47947 -6.28939 7.09584 -7.63225 6.78422C-7.65467 6.78539 -7.67709 6.78656 -7.70069 6.76533C-7.74553 6.76768 -7.79037 6.77002 -7.83639 6.74996C-8.65297 6.61299 -9.58285 6.45948 -10.5115 6.32838C-9.49081 6.4996 -8.49015 6.7168 -7.48714 6.97882C-5.50473 7.48163 -3.53653 8.14245 -1.6262 8.98606L-1.64628 9.03206Z" fill="white"/>
<path d="M10.2392 72.3993C11.5104 71.771 12.9161 71.1357 14.2131 70.5734C27.2872 42.4548 9.0483 3.30417 -26.7259 6.2565L-27.2841 6.33066C-28.9351 6.57442 -30.9603 6.97258 -32.8073 7.33894C-33.408 7.46028 -33.9862 7.58045 -34.5208 7.67586C-34.1208 7.5875 -33.7419 7.52272 -33.3407 7.45676C0.805904 1.33179 25.4375 40.1925 10.2617 72.3981L10.2392 72.3993Z" fill="white"/>
<path d="M-32.5347 11.6835C-29.2625 12.3434 -25.9869 13.4975 -22.7964 15.1728C-19.5847 16.8245 -16.4581 18.9974 -13.4862 21.6503C-9.14571 25.5346 -5.57724 30.1335 -2.79837 35.1107C-0.041914 40.0891 1.90369 45.4694 2.97484 50.8956C4.02356 56.3229 4.22143 61.8173 3.4387 67.0485C2.8936 70.8068 1.82457 74.4353 0.270593 77.8195C1.62321 77.0297 3.04074 76.1915 4.24344 75.5443C4.37445 75.47 4.50664 75.4182 4.63765 75.3439C6.15499 72.1189 7.25701 68.6909 7.90354 65.152C8.88454 59.843 8.88496 54.2708 7.98967 48.7681C7.09437 43.2653 5.28213 37.8555 2.61302 32.8276C-0.0560914 27.7997 -3.57972 23.1985 -7.92017 19.3141C-10.7281 16.7875 -13.6907 14.7407 -16.7644 13.1492C-19.8156 11.5565 -22.9791 10.3966 -26.118 9.70719C-29.2793 9.01899 -32.4407 8.75768 -35.5337 8.94216C-38.425 9.11608 -41.2515 9.66857 -43.9672 10.6197C-44.1655 10.6975 -44.3649 10.7528 -44.5632 10.8306C-45.0258 11.0121 -45.5546 11.2196 -46.0609 11.4259C-47.3816 11.9669 -48.8108 12.581 -50.0867 13.1196C-47.5539 12.1107 -44.8903 11.4544 -42.1606 11.1991C-39.0073 10.8766 -35.7598 11.066 -32.51 11.7271L-32.5347 11.6835Z" fill="white"/>
<path d="M4.63236 258.102C4.63236 258.102 4.56744 258.15 4.54619 258.174C4.15785 258.486 3.76951 258.798 3.38117 259.111C3.3375 259.136 3.295 259.183 3.25133 259.208C3.14392 259.303 3.03533 259.376 2.92791 259.472C2.69066 259.664 2.45223 259.834 2.2374 260.025C2.10756 260.121 1.97771 260.218 1.87029 260.313C1.71921 260.434 1.58937 260.53 1.43829 260.651C1.33087 260.746 1.20104 260.843 1.09245 260.916C0.858597 261.602 0.577542 262.246 0.271725 262.846C-0.0340911 263.446 -0.363498 264.025 -0.741276 264.539C-1.11788 265.076 -1.49802 265.545 -1.92416 265.994C-2.28656 266.373 -2.65129 266.707 -3.03963 267.019C-3.1258 267.091 -3.21198 267.163 -3.29932 267.212L-2.99714 266.972L2.26847 262.764C2.67805 262.428 3.04164 262.072 3.38044 261.672C3.71924 261.273 4.05687 260.851 4.3473 260.386C4.63774 259.921 4.9034 259.413 5.14547 258.884C5.38755 258.354 5.58242 257.782 5.75253 257.167C5.49403 257.383 5.2131 257.599 4.95459 257.815C4.86843 257.887 4.75984 257.96 4.67485 258.055L4.63236 258.102Z" fill="white"/>
<path d="M15.7563 248.554C15.6489 248.65 15.5415 248.745 15.4128 248.864C15.1768 249.079 14.9194 249.317 14.6609 249.533C14.5323 249.652 14.4249 249.747 14.2962 249.866C14.1463 250.009 13.9952 250.129 13.8453 250.272C13.7166 250.391 13.5868 250.488 13.4581 250.607C13.222 250.821 12.9859 251.036 12.7274 251.252C12.62 251.347 12.4902 251.444 12.3828 251.539C12.3403 251.587 12.2966 251.611 12.2541 251.658C12.169 252.18 12.0591 252.657 11.9032 253.115C11.7473 253.572 11.589 253.985 11.3848 254.378C11.1805 254.77 10.9515 255.119 10.6988 255.447C10.5725 255.611 10.4462 255.775 10.2963 255.918C10.1688 256.059 10.0189 256.202 9.8678 256.322L11.8225 254.579L15.3236 251.453L15.3661 251.406C16.6067 250.195 16.7545 249.153 17.0005 247.41C16.5921 247.769 16.2072 248.149 15.7988 248.507C15.7552 248.532 15.7127 248.579 15.6914 248.602L15.7563 248.554Z" fill="white"/>
<path d="M28.1106 236.74C27.8545 237.001 27.5983 237.261 27.3422 237.522C27.2135 237.641 27.1073 237.759 26.9786 237.878C26.8287 238.021 26.6788 238.163 26.5301 238.328C26.4026 238.47 26.2739 238.589 26.1464 238.73C25.9115 238.967 25.6754 239.182 25.4405 239.419C25.3343 239.537 25.2056 239.656 25.0994 239.774C25.0569 239.821 25.0144 239.868 24.9495 239.917C24.5422 240.297 24.1586 240.699 23.7513 241.08C23.7937 241.46 23.8113 241.796 23.8053 242.111C23.7993 242.426 23.7697 242.72 23.6929 242.971C23.6386 243.221 23.5394 243.473 23.4378 243.681C23.3564 243.842 23.2513 243.982 23.1451 244.1C23.1026 244.148 23.0601 244.195 23.0388 244.218L27.1644 240.138L28.424 238.858C28.5302 238.74 28.614 238.624 28.6731 238.463C28.7321 238.303 28.7676 238.121 28.7794 237.919C28.7913 237.716 28.756 237.47 28.743 237.224C28.7301 236.977 28.6252 236.691 28.5403 236.358C28.4978 236.405 28.4766 236.429 28.4341 236.476C28.3267 236.572 28.2428 236.688 28.1354 236.784L28.1106 236.74Z" fill="white"/>
<path d="M38.9967 225.228C38.8692 225.369 38.7417 225.511 38.593 225.676C38.3805 225.912 38.168 226.148 37.9331 226.385C37.8056 226.526 37.6994 226.644 37.5719 226.785C37.5294 226.833 37.4656 226.903 37.4232 226.95C37.0407 227.375 36.6582 227.799 36.2533 228.225C36.2321 228.249 36.2108 228.272 36.1671 228.297C36.0821 228.391 35.9972 228.486 35.9122 228.58C35.6359 228.886 35.3597 229.193 35.0599 229.478C35.2297 229.717 35.3748 229.911 35.4751 230.108C35.5966 230.282 35.6732 230.457 35.7476 230.588C35.7994 230.72 35.8502 230.83 35.8548 230.92C35.8584 230.987 35.8607 231.032 35.8619 231.054C35.8619 231.054 35.8642 231.099 35.8418 231.1L38.3952 228.338L41.0512 225.39C41.0512 225.39 41.0064 225.392 40.9592 225.35C40.912 225.307 40.8188 225.245 40.7031 225.183C40.5863 225.1 40.4459 224.995 40.3044 224.867C40.1404 224.741 39.9528 224.594 39.7404 224.403C39.6342 224.52 39.5279 224.638 39.4217 224.756C39.2729 224.921 39.1242 225.086 38.9967 225.228Z" fill="white"/>
<path d="M52.803 211.518C52.6284 211.617 52.4301 211.695 52.2082 211.752C51.9863 211.808 51.7409 211.843 51.4482 211.836C51.1555 211.829 50.8629 211.822 50.523 211.772C50.333 212.007 50.1217 212.265 49.9316 212.5C49.8265 212.64 49.699 212.782 49.594 212.922C49.5526 212.992 49.4877 213.04 49.4464 213.109C49.0875 213.555 48.7062 214.002 48.3473 214.448C48.3473 214.448 48.3049 214.495 48.2836 214.518C48.221 214.612 48.1349 214.684 48.0723 214.777C47.7972 215.106 47.5234 215.457 47.2259 215.787C47.1421 215.904 47.0346 215.999 46.9508 216.116C46.8021 216.281 46.6758 216.445 46.527 216.61C46.3783 216.775 46.252 216.939 46.1032 217.104C46.4006 217.201 46.6519 217.278 46.8797 217.333C47.1074 217.389 47.3115 217.423 47.4909 217.413C47.6703 217.404 47.8273 217.396 47.9382 217.368C48.0491 217.339 48.1353 217.267 48.2215 217.195L48.539 216.819L49.2804 215.949L51.7535 212.944L53.1902 211.183C53.1902 211.183 53.1052 211.278 53.0627 211.325C52.9765 211.397 52.8904 211.469 52.7818 211.542L52.803 211.518Z" fill="white"/>
<path d="M63.9201 197.118C63.6416 197.379 63.3382 197.598 62.9889 197.796C62.6395 197.994 62.2677 198.193 61.8712 198.348C61.4746 198.504 61.032 198.64 60.5434 198.755C60.2082 199.222 59.8717 199.666 59.5364 200.133C59.5364 200.133 59.5163 200.179 59.4939 200.181C59.4302 200.251 59.3888 200.321 59.3263 200.414C59.0536 200.788 58.7797 201.139 58.5294 201.512C58.4456 201.628 58.3606 201.723 58.2768 201.84C58.1504 202.003 58.0241 202.167 57.8978 202.331C57.7727 202.518 57.6239 202.683 57.4988 202.869C57.3311 203.102 57.1623 203.313 56.9947 203.547C56.8908 203.71 56.7633 203.851 56.6582 203.991C56.5945 204.062 56.5319 204.155 56.4906 204.225C56.9166 204.203 57.2943 204.115 57.6495 204.029C58.0047 203.943 58.3128 203.815 58.6208 203.686C58.9064 203.559 59.1673 203.388 59.4057 203.218C59.6217 203.05 59.7917 202.861 59.9617 202.672C59.9617 202.672 60.0042 202.625 60.003 202.603L60.5059 201.903L61.4941 200.593L64.665 196.315C64.5399 196.501 64.3911 196.666 64.2412 196.809C64.135 196.927 64.0276 197.022 63.9201 197.118Z" fill="white"/>
<path d="M74.9163 181.263C74.9163 181.263 75.0416 181.077 75.1042 180.983C75.1456 180.914 75.1881 180.866 75.2295 180.797L74.7083 181.589C74.7083 181.589 74.8548 181.379 74.9163 181.263Z" fill="white"/>
<path d="M72.8561 183.573C72.3828 183.98 71.841 184.368 71.2757 184.734C70.7103 185.101 70.0977 185.425 69.438 185.707C69.3542 185.824 69.2715 185.963 69.2101 186.078C69.0649 186.311 68.9197 186.543 68.7745 186.775C68.7119 186.868 68.6717 186.96 68.608 187.031C68.5242 187.148 68.4628 187.263 68.379 187.38C68.2337 187.612 68.0885 187.845 67.9209 188.078C67.8583 188.171 67.7957 188.265 67.7343 188.38C67.6729 188.496 67.5879 188.59 67.5265 188.706C67.3813 188.938 67.2137 189.171 67.0685 189.404C67.0071 189.519 66.9221 189.613 66.8607 189.729C66.7981 189.822 66.7355 189.915 66.6741 190.031C66.5065 190.264 66.3613 190.497 66.1936 190.73C66.1098 190.847 66.026 190.964 65.9646 191.079C66.5382 190.869 67.0658 190.639 67.5461 190.367C68.0277 190.117 68.4845 189.824 68.9176 189.509C69.3284 189.195 69.7156 188.86 70.0567 188.506C70.3979 188.151 70.7142 187.752 70.9634 187.357L74.7307 181.588C74.5631 181.821 74.373 182.056 74.2042 182.267C73.8016 182.737 73.3743 183.164 72.9022 183.593L72.8561 183.573Z" fill="white"/>
<path d="M82.7604 167.911C82.2598 168.656 81.6908 169.382 81.0522 170.067C80.4136 170.752 79.7278 171.395 78.9735 172.019C78.2181 172.62 77.3942 173.202 76.5007 173.743C76.4393 173.859 76.3779 173.974 76.3165 174.09C76.1925 174.299 76.091 174.506 75.967 174.715C75.9257 174.784 75.8844 174.854 75.8655 174.922C75.8041 175.038 75.7427 175.154 75.6813 175.269C75.5573 175.478 75.4558 175.685 75.333 175.916C75.2916 175.986 75.2515 176.078 75.2102 176.148C75.1488 176.263 75.0862 176.356 75.0248 176.472C74.9008 176.681 74.7769 176.889 74.6541 177.12C74.6139 177.212 74.5513 177.306 74.51 177.375C74.4474 177.468 74.3849 177.561 74.3459 177.676C74.2219 177.884 74.0991 178.116 73.9752 178.324C73.9126 178.417 73.8724 178.509 73.811 178.625C74.5983 178.202 75.3383 177.736 76.0088 177.229C76.6792 176.722 77.3036 176.195 77.8809 175.626C78.4581 175.056 78.9669 174.468 79.4285 173.837C79.5335 173.697 79.6374 173.534 79.7425 173.394C80.0766 172.904 80.3871 172.394 80.6528 171.886L83.0969 167.466C83.0969 167.466 83.0768 167.512 83.0544 167.513C82.9717 167.652 82.8678 167.815 82.7628 167.955L82.7604 167.911Z" fill="white"/>
<path d="M87.2595 157.654C86.4792 158.639 85.6292 159.582 84.6873 160.485C83.7453 161.388 82.7337 162.25 81.6289 163.049C81.5899 163.164 81.5285 163.279 81.4895 163.394C81.4092 163.578 81.3289 163.762 81.2486 163.946C81.2286 163.992 81.2085 164.038 81.1896 164.106C81.1506 164.22 81.0881 164.314 81.0491 164.428C80.9688 164.612 80.8885 164.796 80.8082 164.98C80.7893 165.048 80.7468 165.095 80.7279 165.164C80.6877 165.256 80.6263 165.371 80.5862 165.463C80.5059 165.647 80.4256 165.831 80.324 166.039C80.2827 166.108 80.2638 166.177 80.2225 166.246C80.1823 166.338 80.1422 166.43 80.0808 166.546C80.0005 166.73 79.8989 166.937 79.8186 167.121C79.7773 167.191 79.7372 167.283 79.7183 167.351C80.7392 166.668 81.667 165.923 82.5488 165.158C83.4069 164.372 84.1966 163.567 84.9156 162.698C85.6357 161.851 86.2625 160.942 86.8434 160.013C87.0701 159.619 87.2968 159.225 87.5235 158.831C87.8092 158.277 88.095 157.723 88.3347 157.148L88.5567 156.665L90.0635 153.238C89.8403 153.699 89.5947 154.162 89.3479 154.601C88.7517 155.666 88.0634 156.691 87.2831 157.675L87.2595 157.654Z" fill="white"/>
<path d="M90.4026 152.411C90.5645 152.066 90.7039 151.721 90.8433 151.377C90.8421 151.354 90.8634 151.331 90.8834 151.285L90.0388 153.195C90.1605 152.941 90.3034 152.664 90.4239 152.388L90.4026 152.411Z" fill="white"/>
<path d="M95.8699 136.599C95.6785 137.238 95.4681 137.946 95.2601 138.699C95.4941 138.012 95.682 137.306 95.8699 136.599Z" fill="white"/>
<path d="M91.9019 145.84C90.9893 147.303 89.9374 148.684 88.7487 150.027C87.5599 151.37 86.2544 152.629 84.8108 153.828C84.7931 153.919 84.7541 154.033 84.7363 154.124C84.6997 154.283 84.6407 154.444 84.604 154.603C84.6064 154.648 84.6076 154.67 84.5651 154.717C84.5473 154.808 84.5084 154.922 84.4906 155.013C84.454 155.172 84.395 155.333 84.3583 155.492C84.3607 155.537 84.3406 155.583 84.3205 155.629C84.3028 155.719 84.2627 155.811 84.2225 155.903C84.1635 156.064 84.1268 156.223 84.0678 156.383C84.0701 156.428 84.0276 156.475 84.0311 156.543C84.0134 156.633 83.9733 156.725 83.9331 156.817C83.8741 156.978 83.8374 157.137 83.7796 157.32C83.7831 157.387 83.7406 157.434 83.7217 157.502C84.974 156.516 86.1332 155.466 87.1767 154.356C88.2202 153.245 89.1717 152.094 90.0312 150.903C90.8906 149.712 91.6344 148.46 92.2638 147.169C92.8129 146.062 93.2935 144.936 93.7045 143.768C93.7624 143.585 93.8427 143.401 93.9005 143.219C94.0931 142.602 94.3045 141.917 94.5372 141.208C94.7864 140.386 95.0333 139.519 95.2826 138.698C94.992 139.589 94.6566 140.483 94.2964 141.333C93.6351 142.873 92.8369 144.375 91.9243 145.839L91.9019 145.84Z" fill="white"/>
<path d="M95.1175 133.831C94.089 136.086 92.8103 138.288 91.3004 140.367C89.7904 142.445 88.0292 144.447 86.0567 146.281C86.0614 146.371 86.0649 146.438 86.0472 146.529C86.0542 146.663 86.0388 146.799 86.0235 146.934C86.0235 146.934 86.0258 146.979 86.027 147.001C86.0317 147.091 86.0352 147.158 86.0175 147.249C86.0245 147.384 86.0091 147.519 85.9938 147.655C85.9949 147.677 85.9961 147.7 85.9985 147.744C86.0031 147.834 85.9843 147.902 85.9665 147.993C85.9736 148.128 85.9358 148.264 85.9204 148.4C85.9227 148.445 85.9239 148.467 85.9263 148.512C85.9298 148.579 85.912 148.67 85.8931 148.738C85.8778 148.874 85.8624 149.01 85.847 149.145C85.8493 149.19 85.8517 149.235 85.8304 149.259C87.5491 147.731 89.0613 146.123 90.433 144.411C91.7824 142.701 92.9488 140.932 93.9536 139.082C94.9584 137.232 95.759 135.347 96.3992 133.404C97.0394 131.461 97.4978 129.482 97.797 127.467C97.9744 126.132 98.1141 124.507 98.2573 122.949C98.1023 124.283 97.8565 125.599 97.5658 126.917C97.0152 129.283 96.2156 131.616 95.1871 133.872L95.1175 133.831Z" fill="white"/>
<path d="M98.1888 122.93C98.2858 122.206 98.3379 121.484 98.3889 120.74C98.4161 120.402 98.421 120.064 98.447 119.703C98.4506 119.771 98.4541 119.838 98.4363 119.929C98.3724 120.853 98.2906 121.869 98.2113 122.929L98.1888 122.93Z" fill="white"/>
<path d="M95.2434 98.0319C95.5606 98.9365 95.8566 99.8647 96.1076 100.795C95.8895 100.065 95.5948 99.1594 95.2434 98.0319Z" fill="white"/>
<path d="M96.5258 119.939C95.7093 123.666 94.3712 127.309 92.508 130.799C90.6437 134.267 88.2318 137.584 85.309 140.59C85.3125 140.658 85.3373 140.701 85.3632 140.767C85.3904 140.856 85.4411 140.965 85.4694 141.076C85.4694 141.076 85.4705 141.099 85.4717 141.121C85.4752 141.188 85.5012 141.254 85.5259 141.298C85.5531 141.387 85.5813 141.497 85.6085 141.586C85.6085 141.586 85.6096 141.608 85.6108 141.631C85.6143 141.698 85.6179 141.765 85.6651 141.808C85.6698 141.897 85.7205 142.007 85.7263 142.119C85.7263 142.119 85.7287 142.164 85.7298 142.186C85.7334 142.253 85.7369 142.321 85.7617 142.364C85.7675 142.476 85.7946 142.565 85.8229 142.676C85.8241 142.698 85.8253 142.72 85.8265 142.743C88.3065 140.299 90.4161 137.649 92.1363 134.863C93.8565 132.077 95.2322 129.151 96.1983 126.135C97.1645 123.118 97.7909 120.052 98.0337 116.961C98.2765 113.87 98.1582 110.754 97.6611 107.701L97.4985 106.744C97.1497 104.807 96.9694 103.94 96.5568 102.502C96.4189 102.015 96.2562 101.484 96.064 100.82C96.7607 103.39 97.1918 106.041 97.3539 108.706C97.5948 112.446 97.2987 116.236 96.4822 119.963L96.5258 119.939Z" fill="white"/>
<path d="M95.2435 98.0319C95.2435 98.0319 95.2423 98.0095 95.2411 97.987L95.1361 97.7001C95.1361 97.7001 95.1632 97.7887 95.1868 97.8099C95.2128 97.8761 95.2399 97.9646 95.2659 98.0307L95.2435 98.0319Z" fill="white"/>
<path d="M82.5487 136.826C82.5487 136.826 82.6183 136.867 82.6655 136.909C82.6879 136.908 82.7127 136.952 82.7599 136.994C82.8059 137.014 82.8531 137.057 82.9003 137.099C82.9003 137.099 82.9463 137.119 82.9699 137.141C82.9699 137.141 82.9699 137.141 82.9935 137.162C83.0867 137.224 83.1586 137.31 83.2294 137.374C83.3002 137.438 83.3474 137.48 83.4182 137.544C83.4654 137.586 83.4901 137.63 83.5373 137.673C83.5373 137.673 83.5609 137.694 83.5845 137.715C83.5845 137.715 83.5845 137.715 83.6081 137.736C83.6565 137.801 83.7273 137.865 83.7756 137.93C83.7992 137.951 83.824 137.995 83.8476 138.016C83.8476 138.016 83.8724 138.059 83.8948 138.058C83.9172 138.057 83.9196 138.102 83.9432 138.123C92.9182 128.329 103.626 105.681 86.8479 82.8337C86.8479 82.8337 86.8479 82.8337 86.8467 82.8113C85.9572 81.712 85.4771 81.1305 84.7622 80.3591C84.0249 79.5889 83.0291 78.6075 81.0636 76.7108C80.4737 76.18 79.747 75.6114 79.0426 75.0416C79.0662 75.0629 79.1134 75.1053 79.137 75.1266C95.1116 88.6471 100.701 114.665 82.5947 136.846L82.5487 136.826Z" fill="white"/>
<path d="M77.0983 73.5477C77.7309 74.0315 78.3635 74.5153 78.9761 75.0452C78.3187 74.5177 77.6624 74.0126 77.0983 73.5477Z" fill="white"/>
<path d="M62.4163 66.678C64.3255 67.4992 66.1992 68.502 68.0138 69.6652C69.8285 70.8284 71.5617 72.1531 73.2358 73.6382C77.5526 77.5013 80.9205 82.1331 83.3217 87.1975C85.7229 92.2619 87.1339 97.7377 87.5383 103.311C87.9426 108.885 87.3627 114.554 85.7362 119.987C84.1096 125.42 81.4813 130.613 77.7674 135.256C77.7898 135.255 77.8122 135.254 77.8346 135.253C77.9916 135.244 78.1509 135.281 78.309 135.295C78.309 135.295 78.3314 135.294 78.3539 135.293C78.5344 135.306 78.6937 135.342 78.8743 135.355L78.9191 135.353C78.9415 135.352 78.9864 135.35 79.01 135.371C79.1232 135.387 79.2601 135.425 79.3734 135.442C79.3958 135.44 79.4407 135.438 79.4631 135.437L79.5079 135.435C79.6673 135.471 79.8266 135.508 79.9634 135.546C83.7918 130.941 86.5783 125.762 88.3193 120.369C90.0592 114.953 90.7523 109.299 90.4388 103.743C90.1253 98.1877 88.7828 92.7308 86.45 87.6852C84.1172 82.6397 80.773 78.0292 76.4549 74.1436C75.3223 73.1245 74.1484 72.1749 72.9343 71.3173C71.7203 70.4597 70.4873 69.6705 69.213 68.9508C67.9387 68.2312 66.6467 67.6023 65.3133 67.043C64.3942 66.6643 63.4761 66.3079 62.5381 65.9976C62.1262 65.8619 61.692 65.7274 61.2802 65.5916C61.1209 65.5551 60.938 65.4972 60.7787 65.4606C59.3875 65.0841 57.7036 64.7005 56.3607 64.3889C56.3383 64.3901 56.3159 64.3912 56.2923 64.37C56.2475 64.3723 56.2026 64.3747 56.1566 64.3546C55.34 64.2177 54.4101 64.0642 53.4814 63.9331C54.5022 64.1043 55.5028 64.3215 56.5058 64.5835C58.4882 65.0863 60.4565 65.7471 62.3668 66.5907L62.4163 66.678Z" fill="white"/>
<path d="M53.5322 64.0428C52.6932 63.907 51.8329 63.7948 50.9963 63.7038C50.8381 63.6896 50.68 63.6754 50.5219 63.6612C50.5667 63.6589 50.634 63.6553 50.68 63.6754C51.5403 63.7876 52.5362 63.9152 53.5322 64.0428Z" fill="white"/>
<path d="M31.2329 64.986C30.6322 65.1073 30.0539 65.2275 29.5193 65.3229C29.9194 65.2346 30.2982 65.1698 30.6994 65.1038C67.0069 58.5961 92.555 102.936 70.951 136.04C70.951 136.04 70.9958 136.038 71.0182 136.036C71.2625 135.979 71.5068 135.921 71.7511 135.863C71.7511 135.863 71.7511 135.863 71.7736 135.862C71.796 135.861 71.8408 135.859 71.8632 135.857C72.0627 135.802 72.2633 135.769 72.4639 135.736C72.4864 135.735 72.5312 135.733 72.5536 135.731C72.5985 135.729 72.6209 135.728 72.6657 135.725C72.8439 135.694 73.0221 135.662 73.1779 135.631C73.2228 135.629 73.2676 135.627 73.3125 135.624C73.3125 135.624 73.3349 135.623 73.3573 135.622C73.5804 135.588 73.8034 135.554 74.0264 135.519C74.0264 135.519 74.0264 135.519 74.0489 135.518C94.4796 107.486 76.2712 60.7621 37.3189 63.9932L36.7607 64.0674C35.1097 64.3111 33.0845 64.7093 31.2376 65.0756L31.2329 64.986Z" fill="white"/>
<path d="M19.3423 68.4848C18.9009 68.6427 18.4395 68.8467 17.9544 69.0293C16.6337 69.5704 15.2045 70.1845 13.9286 70.7231C16.4614 69.7142 19.125 69.0579 21.8547 68.8026C25.008 68.4801 28.2555 68.6695 31.5053 69.3306C34.7775 69.9906 38.0532 71.1446 41.2436 72.8199C44.4554 74.4716 47.582 76.6445 50.5539 79.2974C54.8944 83.1818 58.4628 87.7806 61.2417 92.7578C63.9981 97.7362 65.9437 103.117 67.0149 108.543C68.0636 113.97 68.2615 119.464 67.4788 124.696C66.7185 129.926 65 134.891 62.2845 139.28C62.2845 139.28 62.3294 139.278 62.3506 139.254C62.6362 139.127 62.9218 139 63.2075 138.872C63.2075 138.872 63.2523 138.87 63.2736 138.846C63.3184 138.844 63.3621 138.819 63.3833 138.796C63.6253 138.693 63.8672 138.591 64.1092 138.488C64.154 138.486 64.1753 138.462 64.2189 138.437L64.2638 138.435C64.5494 138.308 64.8138 138.204 65.0782 138.1C65.0782 138.1 65.123 138.098 65.1442 138.074C65.1891 138.072 65.2103 138.048 65.254 138.024C65.4959 137.921 65.7166 137.842 65.9586 137.74C66.0034 137.737 66.0247 137.714 66.0684 137.689C69.0258 133.198 70.9638 128.131 71.9448 122.822C72.9258 117.513 72.9262 111.94 72.0309 106.438C71.1356 100.935 69.3234 95.525 66.6542 90.4971C63.9851 85.4692 60.4615 80.868 56.1211 76.9837C53.3132 74.457 50.3505 72.4103 47.2768 70.8188C44.2256 69.2261 41.0621 68.0661 37.9232 67.3768C34.762 66.6885 31.6006 66.4272 28.5075 66.6117C25.6162 66.7856 22.7897 67.3381 20.074 68.2892C19.8758 68.367 19.6763 68.4224 19.478 68.5002C19.4332 68.5025 19.3895 68.5273 19.3459 68.552L19.3423 68.4848Z" fill="white"/>
<path d="M0.269418 77.7973C-0.232206 78.0932 -0.733827 78.3891 -1.19178 78.6602C-1.0171 78.5612 -0.863658 78.4858 -0.688975 78.3867C1.56417 77.1902 4.01898 76.4101 6.60703 76.0274C9.61876 75.5775 12.8404 75.7009 16.135 76.3596C19.4297 77.0184 22.8221 78.2562 26.1978 80.0341C29.5735 81.812 32.9338 84.1525 36.1664 87.0613C40.5068 90.9457 44.2075 95.4927 47.2047 100.346C50.2031 105.222 52.4757 110.405 53.941 115.631C55.4052 120.835 56.0846 126.079 55.8484 131.012C55.6345 135.944 54.5062 140.586 52.4257 144.65C52.4694 144.625 52.5131 144.6 52.5567 144.576C52.84 144.403 53.1009 144.232 53.3853 144.083C53.429 144.058 53.4726 144.033 53.5163 144.008C53.5163 144.008 53.5612 144.006 53.56 143.984C53.8645 143.788 54.1926 143.614 54.4971 143.418C54.5196 143.417 54.5408 143.393 54.5845 143.368C54.6282 143.344 54.6718 143.319 54.7155 143.294C54.9775 143.146 55.2608 142.973 55.5228 142.825C55.5677 142.823 55.5877 142.777 55.6314 142.752C55.6314 142.752 55.6538 142.751 55.6751 142.727C55.9808 142.554 56.2865 142.38 56.5922 142.207C56.6146 142.206 56.6358 142.182 56.6795 142.158C59.0444 137.945 60.4124 133.155 60.8658 128.075C61.3192 122.996 60.8593 117.65 59.5687 112.326C58.278 107.001 56.1365 101.743 53.2478 96.8166C50.3592 91.8901 46.7034 87.3407 42.3618 83.434C39.2235 80.6101 35.9352 78.3557 32.6291 76.6191C29.3006 74.8836 25.9341 73.7119 22.6395 73.0531C19.3224 72.3955 16.0784 72.2734 12.9746 72.6831C10.3169 73.0245 7.77125 73.787 5.38006 74.9233C5.13928 75.0482 4.87608 75.1744 4.6353 75.2993C4.50429 75.3736 4.3721 75.4255 4.24109 75.4997C3.06081 76.1457 1.62086 76.9851 0.268245 77.7749L0.269418 77.7973Z" fill="white"/>
<path d="M42.7423 151.223C42.7423 151.223 42.8509 151.15 42.8934 151.103C43.2841 150.835 43.6512 150.547 44.0419 150.279C44.0643 150.278 44.0856 150.254 44.1068 150.231C44.1941 150.181 44.2803 150.109 44.3452 150.061C44.6273 149.866 44.887 149.673 45.1691 149.478C45.2777 149.405 45.3638 149.333 45.4724 149.26C45.6023 149.164 45.7545 149.066 45.8844 148.969C46.0142 148.872 46.1665 148.775 46.2963 148.678C47.9861 144.882 48.745 140.484 48.6106 135.772C48.4987 131.06 47.5148 126.011 45.7897 120.979C44.0635 115.924 41.5726 110.864 38.422 106.086C35.2713 101.308 31.4845 96.8329 27.1429 92.9262C23.8159 89.9324 20.4061 87.5047 17.0044 85.6607C13.624 83.7932 10.2516 82.5094 7.04318 81.7787C3.81229 81.0492 0.724031 80.8964 -2.13309 81.2932C-4.99021 81.69 -7.59143 82.6801 -9.87181 84.215L-14.9236 87.7825L-15.1621 87.9522L-15.6377 88.3142C-15.6377 88.3142 -15.4867 88.1939 -15.3993 88.1444C-13.3821 86.7356 -11.0229 85.8481 -8.43246 85.5102C-5.73112 85.144 -2.72903 85.3687 0.414512 86.1477C3.55806 86.9268 6.88907 88.2801 10.2506 90.2161C13.6334 92.1284 17.0691 94.6222 20.4657 97.6573C24.8073 101.564 28.6603 106.013 31.9183 110.696C35.1776 115.401 37.8196 120.34 39.7417 125.272C41.6627 130.182 42.8626 135.062 43.2354 139.604C43.6082 144.145 43.1314 148.349 41.7225 151.928C41.9397 151.782 42.1333 151.615 42.3505 151.468C42.4803 151.372 42.5889 151.299 42.7187 151.202L42.7423 151.223Z" fill="white"/>
<path d="M31.7284 159.866C31.7284 159.866 31.8783 159.724 31.9657 159.674C32.2678 159.434 32.5688 159.171 32.871 158.93C32.9796 158.857 33.0646 158.763 33.1732 158.69C33.3243 158.569 33.4753 158.449 33.6264 158.329C33.7775 158.209 33.9286 158.088 34.0797 157.968C34.2733 157.801 34.468 157.656 34.6616 157.488C34.7903 157.369 34.9425 157.271 35.0712 157.152C35.1361 157.104 35.201 157.056 35.2435 157.009C36.2417 153.743 36.3077 149.853 35.5666 145.578C34.8256 141.303 33.3022 136.686 31.1003 131.994C28.8973 127.278 26.0393 122.507 22.6289 117.923C19.2186 113.338 15.2795 108.961 10.9379 105.054C7.49291 101.954 4.05369 99.3932 0.711055 97.3889C-2.63158 95.3845 -5.85635 93.9133 -8.84881 93.014C-11.8637 92.1159 -14.6474 91.7674 -17.1304 92.0098C-19.3455 92.2157 -21.3117 92.8804 -22.9394 93.9992C-23.1342 94.1442 -23.3301 94.2668 -23.5249 94.4118L-25.3155 95.8537L-26.9338 97.1518L-29.1954 99.0453C-27.688 97.7755 -25.7218 97.1108 -23.4347 96.991C-21.1253 96.87 -18.4714 97.3152 -15.5851 98.3324C-12.6777 99.3259 -9.53907 100.869 -6.25901 102.967C-2.9577 105.041 0.462639 107.67 3.95364 110.79C8.29526 114.697 12.2993 119.026 15.8182 123.537C19.3359 128.026 22.3686 132.698 24.7641 137.224C27.1607 141.771 28.9213 146.195 29.9209 150.255C30.9193 154.292 31.1342 157.965 30.4595 160.966C30.8691 160.63 31.2562 160.296 31.6658 159.96C31.6658 159.96 31.7095 159.935 31.7307 159.911L31.7284 159.866Z" fill="white"/>
<path d="M-31.7152 112.321C-29.13 113.601 -26.2027 115.403 -23.049 117.664C-19.8952 119.925 -16.5138 122.669 -12.9745 125.854C-8.63286 129.761 -4.47777 133.969 -0.680268 138.219C3.11723 142.469 6.5359 146.784 9.42713 150.901C12.3184 155.019 14.6585 158.918 16.3026 162.404C17.9455 165.868 18.8698 168.921 18.9246 171.254C18.9246 171.254 18.9458 171.231 18.9671 171.207C19.0308 171.136 19.0958 171.088 19.1819 171.016C19.503 170.707 19.8252 170.421 20.1463 170.112C20.2313 170.018 20.3399 169.944 20.4249 169.85C20.5748 169.707 20.7247 169.565 20.8758 169.445C21.0257 169.302 21.198 169.158 21.348 169.015C21.5404 168.826 21.7339 168.658 21.9488 168.467C22.0774 168.348 22.2274 168.205 22.356 168.086C22.4198 168.016 22.4847 167.967 22.5484 167.897C22.9569 167.538 23.3641 167.157 23.7501 166.8C24.0164 164.157 23.3718 160.866 22.0075 157.14C20.6432 153.414 18.5379 149.278 15.8615 144.97C13.1851 140.661 9.91636 136.204 6.2487 131.857C2.57986 127.488 -1.51029 123.231 -5.85192 119.325C-9.36769 116.161 -12.7916 113.464 -16.009 111.274C-19.2265 109.083 -22.2376 107.398 -24.974 106.239C-27.6878 105.078 -30.1257 104.464 -32.1767 104.369C-34.092 104.29 -35.6663 104.709 -36.8325 105.624C-36.8974 105.672 -36.9836 105.744 -37.0474 105.815L-38.0566 106.722L-38.851 107.437L-42.6248 110.938C-41.7029 110.081 -40.2572 109.78 -38.4234 110.021C-36.5672 110.261 -34.3229 111.042 -31.7152 112.321Z" fill="white"/>
<path d="M8.53453 181.505C8.72694 181.315 8.91936 181.125 9.08935 180.937C9.23926 180.794 9.36674 180.653 9.51548 180.487C9.57923 180.417 9.66539 180.345 9.72914 180.274C10.1352 179.871 10.5413 179.468 10.9238 179.043C10.9663 178.996 10.9875 178.972 11.03 178.925C11.3936 178.569 11.756 178.191 12.1195 177.835C11.6363 175.905 10.2846 173.28 8.27817 170.172C6.27172 167.064 3.58803 163.475 0.396978 159.643C-2.77165 155.809 -6.42641 151.709 -10.3738 147.602C-14.3212 143.495 -18.5613 139.381 -22.9041 135.451C-26.4671 132.245 -29.8071 129.432 -32.877 127.054C-35.947 124.676 -38.7019 122.731 -41.0947 121.261C-43.4875 119.791 -45.5182 118.796 -47.0947 118.317C-48.6711 117.838 -49.7934 117.874 -50.3706 118.444L-50.6055 118.681L-54.5116 122.66L-55.8136 123.986C-55.8136 123.986 -55.77 123.962 -55.7487 123.938C-55.3592 123.648 -54.4942 123.85 -53.1798 124.478C-51.7957 125.146 -49.9575 126.331 -47.6922 127.942C-45.4269 129.554 -42.7781 131.617 -39.7932 134.089C-39.1113 134.66 -38.4069 135.23 -37.7002 135.845C-35.2781 137.875 -32.6861 140.143 -29.9254 142.627C-28.4152 143.986 -26.9039 145.367 -25.4139 146.772C-22.6249 149.367 -19.856 152.008 -17.2239 154.612C-16.3462 155.487 -15.4696 156.34 -14.6155 157.194C-14.4739 157.321 -14.3312 157.471 -14.1896 157.598C-13.0499 158.752 -11.9339 159.884 -10.8403 161.018C-9.12963 162.77 -7.48861 164.482 -5.96205 166.155C-5.43824 166.711 -4.96046 167.248 -4.46026 167.783C-3.67338 168.641 -2.93252 169.478 -2.21526 170.295C-0.399678 172.334 1.22947 174.248 2.60142 175.974C3.58646 177.181 4.40867 178.283 5.1365 179.301C6.10732 180.666 6.86579 181.84 7.31868 182.759C7.40367 182.665 7.48866 182.571 7.59608 182.475C7.74482 182.31 7.89473 182.168 8.04347 182.003C8.21463 181.836 8.36337 181.671 8.53453 181.505Z" fill="white"/>
<path d="M-3.01869 194.018C-3.01869 194.018 -2.86995 193.853 -2.80738 193.76C-2.42608 193.313 -2.0436 192.889 -1.63989 192.441L-1.64106 192.418C-1.3849 192.158 -1.15118 191.898 -0.916273 191.661C-0.767531 191.496 -0.618796 191.331 -0.471228 191.144C-0.38624 191.049 -0.322492 190.979 -0.237497 190.884C-0.0887544 190.719 0.0387465 190.578 0.187481 190.413L0.69744 189.847C-8.98023 180.647 -59.586 134.812 -63.3072 132.018L-63.4135 132.136C-64.8595 133.717 -66.4308 135.485 -67.6832 136.898C-67.8107 137.04 -67.9595 137.205 -68.0858 137.369C-68.192 137.487 -68.2971 137.627 -68.4258 137.746L-68.5745 137.911C-68.7421 138.145 -68.3435 138.888 -67.4517 140.032C-66.5362 141.197 -65.0805 142.806 -63.1551 144.795C-61.2298 146.783 -58.836 149.129 -56.0435 151.792C-53.251 154.454 -50.0149 157.43 -46.4519 160.636C-42.1103 164.543 -37.6566 168.444 -33.3255 172.149C-28.9944 175.854 -24.8096 179.342 -20.9587 182.466C-17.1078 185.589 -13.6155 188.305 -10.7142 190.467C-7.81301 192.629 -5.48278 194.192 -3.9548 195.034C-3.78599 194.822 -3.59358 194.633 -3.42476 194.422C-3.29845 194.258 -3.14853 194.115 -3.02221 193.951L-3.01869 194.018Z" fill="white"/>
</g>
<defs>
<clipPath id="clip0_192_264">
<rect width="287.134" height="287.509" fill="white" transform="translate(-179.806 301.78) rotate(-92.9984)"/>
</clipPath>
</defs>
</svg>
