<svg width="430" height="689" viewBox="0 0 430 689" fill="none" xmlns="http://www.w3.org/2000/svg">
<mask id="mask0_371_158" style="mask-type:alpha" maskUnits="userSpaceOnUse" x="-1" y="94" width="421" height="444">
<path d="M3.97365 370.857L0.657652 283.162C0.220993 271.614 1.2557 260.058 3.73684 248.771C8.07012 229.059 16.7298 210.556 29.0898 194.601L31.8935 190.981C37.5097 183.731 43.7522 176.989 50.5488 170.832L105.069 121.441C110.547 116.478 116.549 112.124 122.967 108.457L123.44 108.186C138.562 99.5452 155.677 95 173.094 95C180.119 95 187.125 95.7397 193.995 97.2069L282.472 116.102C301.699 120.208 319.558 129.162 334.35 142.113C343.885 150.46 351.978 160.322 358.305 171.302L381.205 211.044L404.778 259.337C413.708 277.632 418.35 297.722 418.35 318.08C418.35 336.793 414.428 355.298 406.837 372.402L372.989 448.675C364.719 467.309 351.852 483.538 335.595 495.84C322.008 506.122 306.392 513.402 289.782 517.199L223.949 532.248C201.641 537.348 178.46 537.253 156.195 531.97C135.233 526.996 115.595 517.546 98.6295 504.267L54.967 470.094L47.3634 463.28C30.5808 448.238 17.9712 429.115 10.758 407.764C6.73374 395.852 4.44875 383.422 3.97365 370.857Z" fill="#16181B"/>
<path d="M3.97365 370.857L0.657652 283.162C0.220993 271.614 1.2557 260.058 3.73684 248.771C8.07012 229.059 16.7298 210.556 29.0898 194.601L31.8935 190.981C37.5097 183.731 43.7522 176.989 50.5488 170.832L105.069 121.441C110.547 116.478 116.549 112.124 122.967 108.457L123.44 108.186C138.562 99.5452 155.677 95 173.094 95C180.119 95 187.125 95.7397 193.995 97.2069L282.472 116.102C301.699 120.208 319.558 129.162 334.35 142.113C343.885 150.46 351.978 160.322 358.305 171.302L381.205 211.044L404.778 259.337C413.708 277.632 418.35 297.722 418.35 318.08C418.35 336.793 414.428 355.298 406.837 372.402L372.989 448.675C364.719 467.309 351.852 483.538 335.595 495.84C322.008 506.122 306.392 513.402 289.782 517.199L223.949 532.248C201.641 537.348 178.46 537.253 156.195 531.97C135.233 526.996 115.595 517.546 98.6295 504.267L54.967 470.094L47.3634 463.28C30.5808 448.238 17.9712 429.115 10.758 407.764C6.73374 395.852 4.44875 383.422 3.97365 370.857Z" fill="black" fill-opacity="0.2"/>
<path d="M3.97365 370.857L0.657652 283.162C0.220993 271.614 1.2557 260.058 3.73684 248.771C8.07012 229.059 16.7298 210.556 29.0898 194.601L31.8935 190.981C37.5097 183.731 43.7522 176.989 50.5488 170.832L105.069 121.441C110.547 116.478 116.549 112.124 122.967 108.457L123.44 108.186C138.562 99.5452 155.677 95 173.094 95C180.119 95 187.125 95.7397 193.995 97.2069L282.472 116.102C301.699 120.208 319.558 129.162 334.35 142.113C343.885 150.46 351.978 160.322 358.305 171.302L381.205 211.044L404.778 259.337C413.708 277.632 418.35 297.722 418.35 318.08C418.35 336.793 414.428 355.298 406.837 372.402L372.989 448.675C364.719 467.309 351.852 483.538 335.595 495.84C322.008 506.122 306.392 513.402 289.782 517.199L223.949 532.248C201.641 537.348 178.46 537.253 156.195 531.97C135.233 526.996 115.595 517.546 98.6295 504.267L54.967 470.094L47.3634 463.28C30.5808 448.238 17.9712 429.115 10.758 407.764C6.73374 395.852 4.44875 383.422 3.97365 370.857Z" stroke="#404040" stroke-width="2"/>
</mask>
<g mask="url(#mask0_371_158)">
<path opacity="0.2" d="M11.1561 173.365H9.9165V950.155H11.1561V173.365Z" fill="white" fill-opacity="0.1"/>
<path opacity="0.2" d="M32.848 173.365H31.6084V950.155H32.848V173.365Z" fill="white" fill-opacity="0.1"/>
<path opacity="0.2" d="M54.5407 173.365H53.3011V950.155H54.5407V173.365Z" fill="white" fill-opacity="0.1"/>
<path opacity="0.2" d="M76.2325 173.365H74.9929V950.155H76.2325V173.365Z" fill="white" fill-opacity="0.1"/>
<path opacity="0.5" d="M97.9246 173.365H96.6851V950.155H97.9246V173.365Z" fill="white" fill-opacity="0.1"/>
<path opacity="0.2" d="M119.617 173.365H118.378V950.155H119.617V173.365Z" fill="white" fill-opacity="0.1"/>
<path opacity="0.2" d="M141.309 173.365H140.07V950.155H141.309V173.365Z" fill="white" fill-opacity="0.1"/>
<path opacity="0.2" d="M163.001 173.365H161.762V950.155H163.001V173.365Z" fill="white" fill-opacity="0.1"/>
<path opacity="0.2" d="M184.693 173.365H183.454V950.155H184.693V173.365Z" fill="white" fill-opacity="0.1"/>
<path opacity="0.5" d="M206.386 173.365H205.146V950.155H206.386V173.365Z" fill="white" fill-opacity="0.1"/>
<path opacity="0.2" d="M228.078 173.365H226.838V950.155H228.078V173.365Z" fill="white" fill-opacity="0.1"/>
<path opacity="0.2" d="M249.77 173.365H248.53V950.155H249.77V173.365Z" fill="white" fill-opacity="0.1"/>
<path opacity="0.2" d="M271.462 173.365H270.223V950.155H271.462V173.365Z" fill="white" fill-opacity="0.1"/>
<path opacity="0.2" d="M293.155 173.365H291.915V950.155H293.155V173.365Z" fill="white" fill-opacity="0.1"/>
<path opacity="0.5" d="M314.846 173.365H313.607V950.155H314.846V173.365Z" fill="white" fill-opacity="0.1"/>
<path opacity="0.2" d="M336.539 173.365H335.3V950.155H336.539V173.365Z" fill="white" fill-opacity="0.1"/>
<path opacity="0.2" d="M358.23 173.365H356.991V950.155H358.23V173.365Z" fill="white" fill-opacity="0.1"/>
<path opacity="0.2" d="M379.924 173.365H378.684V950.155H379.924V173.365Z" fill="white" fill-opacity="0.1"/>
<path opacity="0.2" d="M401.615 173.365H400.376V950.155H401.615V173.365Z" fill="white" fill-opacity="0.1"/>
<path opacity="0.5" d="M422.068 173.365H-10.5366V175.584H422.068V173.365Z" fill="white" fill-opacity="0.1"/>
<path opacity="0.2" d="M422.688 211.095H-11.1561V213.314H422.688V211.095Z" fill="white" fill-opacity="0.1"/>
<path opacity="0.2" d="M422.688 249.934H-11.1561V252.153H422.688V249.934Z" fill="white" fill-opacity="0.1"/>
<path opacity="0.2" d="M422.688 288.774H-11.1561V290.993H422.688V288.774Z" fill="white" fill-opacity="0.1"/>
<path opacity="0.2" d="M422.688 327.613H-11.1561V329.833H422.688V327.613Z" fill="white" fill-opacity="0.1"/>
<path opacity="0.5" d="M422.688 366.453H-11.1561V368.672H422.688V366.453Z" fill="white" fill-opacity="0.1"/>
<path opacity="0.2" d="M422.688 405.292H-11.1561V407.511H422.688V405.292Z" fill="white" fill-opacity="0.1"/>
<path opacity="0.2" d="M422.688 444.132H-11.1561V446.351H422.688V444.132Z" fill="white" fill-opacity="0.1"/>
<path opacity="0.2" d="M422.688 482.971H-11.1561V485.191H422.688V482.971Z" fill="white" fill-opacity="0.1"/>
<path opacity="0.2" d="M422.688 521.811H-11.1561V524.03H422.688V521.811Z" fill="white" fill-opacity="0.1"/>
<path d="M425.787 173.624H418.219V175.56H425.787V173.624Z" fill="white" fill-opacity="0.1"/>
<path d="M425.787 367.208H418.219V369.144H425.787V367.208Z" fill="white" fill-opacity="0.1"/>
<path d="M98.1882 167.816H97.1071V181.367H98.1882V167.816Z" fill="white" fill-opacity="0.1"/>
<path d="M101.431 173.624H93.863V175.559H101.431V173.624Z" fill="white" fill-opacity="0.1"/>
<path d="M98.1882 361.4H97.1071V374.951H98.1882V361.4Z" fill="white" fill-opacity="0.1"/>
<path d="M101.431 367.208H93.863V369.144H101.431V367.208Z" fill="white" fill-opacity="0.1"/>
<path d="M206.307 167.816H205.226V181.367H206.307V167.816Z" fill="white" fill-opacity="0.1"/>
<path d="M209.55 173.624H201.982V175.559H209.55V173.624Z" fill="white" fill-opacity="0.1"/>
<path d="M206.307 361.4H205.226V374.951H206.307V361.4Z" fill="white" fill-opacity="0.1"/>
<path d="M209.55 367.208H201.982V369.144H209.55V367.208Z" fill="white" fill-opacity="0.1"/>
<path d="M314.425 167.816H313.344V181.367H314.425V167.816Z" fill="white" fill-opacity="0.1"/>
<path d="M317.668 173.624H310.1V175.559H317.668V173.624Z" fill="white" fill-opacity="0.1"/>
<path d="M314.425 361.4H313.344V374.951H314.425V361.4Z" fill="white" fill-opacity="0.1"/>
<path d="M317.668 367.208H310.1V369.144H317.668V367.208Z" fill="white" fill-opacity="0.1"/>
<path d="M44.0041 269.909H42.7645V272.128H44.0041V269.909Z" fill="white" fill-opacity="0.1"/>
<path d="M152.465 269.909H151.226V272.128H152.465V269.909Z" fill="white" fill-opacity="0.1"/>
<path d="M260.307 269.909H259.067V272.128H260.307V269.909Z" fill="white" fill-opacity="0.1"/>
<path d="M368.767 269.909H367.528V272.128H368.767V269.909Z" fill="white" fill-opacity="0.1"/>
<path d="M44.0041 464.106H42.7645V466.326H44.0041V464.106Z" fill="white" fill-opacity="0.1"/>
<path d="M152.465 464.106H151.226V466.326H152.465V464.106Z" fill="white" fill-opacity="0.1"/>
<path d="M260.307 464.106H259.067V466.326H260.307V464.106Z" fill="white" fill-opacity="0.1"/>
<path d="M368.767 464.106H367.528V466.326H368.767V464.106Z" fill="white" fill-opacity="0.1"/>
</g>
<g clip-path="url(#clip0_371_158)" filter="url(#filter0_f_371_158)">
<g opacity="0.9">
<path d="M401.573 481.148C402.869 461.269 372.321 442.627 333.341 439.51C294.361 436.394 261.711 449.983 260.414 469.862C259.118 489.742 289.666 508.384 328.646 511.5C367.626 514.617 400.276 501.028 401.573 481.148Z" stroke="white" stroke-width="0.8" stroke-miterlimit="10"/>
<path d="M398.978 476.998C399.487 457.562 368.999 440.814 330.882 439.591C292.765 438.368 261.452 453.132 260.943 472.568C260.435 492.004 290.922 508.752 329.04 509.975C367.157 511.198 398.47 496.434 398.978 476.998Z" stroke="white" stroke-width="0.8" stroke-miterlimit="10"/>
<path d="M329.46 508.47C366.709 507.8 396.679 491.859 396.401 472.864C396.122 453.869 365.7 439.013 328.452 439.682C291.203 440.352 261.233 456.293 261.512 475.288C261.79 494.283 292.212 509.139 329.46 508.47Z" stroke="white" stroke-width="0.8" stroke-miterlimit="10"/>
<path d="M329.863 506.952C366.247 504.389 394.877 487.27 393.811 468.716C392.745 450.162 362.386 437.198 326.002 439.761C289.619 442.324 260.988 459.443 262.054 477.997C263.12 496.551 293.479 509.515 329.863 506.952Z" stroke="white" stroke-width="0.8" stroke-miterlimit="10"/>
<path d="M330.257 505.439C365.781 500.986 393.077 482.694 391.225 464.583C389.373 446.473 359.074 435.401 323.551 439.855C288.027 444.309 260.731 462.601 262.583 480.711C264.435 498.822 294.734 509.893 330.257 505.439Z" stroke="white" stroke-width="0.8" stroke-miterlimit="10"/>
<path d="M330.644 503.939C365.301 497.594 391.256 478.123 388.616 460.449C385.976 442.776 355.742 433.593 321.086 439.939C286.429 446.285 260.475 465.756 263.114 483.429C265.754 501.102 295.988 510.285 330.644 503.939Z" stroke="white" stroke-width="0.8" stroke-miterlimit="10"/>
<path d="M331.051 502.42C364.845 494.179 389.462 473.533 386.036 456.305C382.609 439.077 352.436 431.792 318.643 440.032C284.849 448.273 260.232 468.919 263.658 486.147C267.085 503.374 297.258 510.66 331.051 502.42Z" stroke="white" stroke-width="0.8" stroke-miterlimit="10"/>
<path d="M331.448 500.914C364.374 490.783 387.65 468.959 383.436 452.169C379.222 435.38 349.114 429.982 316.188 440.113C283.262 450.244 259.986 472.067 264.2 488.857C268.414 505.647 298.521 511.045 331.448 500.914Z" stroke="white" stroke-width="0.8" stroke-miterlimit="10"/>
<path d="M331.855 499.385C363.914 487.356 385.847 464.355 380.845 448.01C375.842 431.665 345.798 428.166 313.74 440.195C281.682 452.223 259.748 475.225 264.751 491.57C269.753 507.915 299.797 511.414 331.855 499.385Z" stroke="white" stroke-width="0.8" stroke-miterlimit="10"/>
<path d="M332.258 497.877C363.455 483.956 384.051 459.778 378.262 443.873C372.473 427.969 342.491 426.36 311.295 440.281C280.098 454.202 259.502 478.38 265.291 494.285C271.08 510.189 301.062 511.798 332.258 497.877Z" stroke="white" stroke-width="0.8" stroke-miterlimit="10"/>
<path d="M332.658 496.377C362.989 480.567 382.246 455.211 375.67 439.744C369.094 424.277 339.174 424.555 308.843 440.366C278.511 456.176 259.254 481.532 265.831 496.999C272.407 512.466 302.327 512.188 332.658 496.377Z" stroke="white" stroke-width="0.8" stroke-miterlimit="10"/>
<path d="M333.064 494.854C362.529 477.148 380.444 450.614 373.079 435.588C365.714 420.563 335.858 422.736 306.394 440.443C276.929 458.149 259.014 484.683 266.378 499.708C273.743 514.734 303.6 512.56 333.064 494.854Z" stroke="white" stroke-width="0.8" stroke-miterlimit="10"/>
<path d="M333.459 493.344C362.06 473.747 378.639 446.04 370.49 431.458C362.34 416.877 332.548 420.942 303.947 440.539C275.346 460.136 258.767 487.843 266.916 502.425C275.065 517.007 304.858 512.941 333.459 493.344Z" stroke="white" stroke-width="0.8" stroke-miterlimit="10"/>
<path d="M333.867 491.817C361.602 470.322 376.84 441.436 367.903 427.297C358.965 413.158 329.236 419.122 301.5 440.617C273.765 462.112 258.527 490.999 267.464 505.138C276.402 519.276 306.132 513.313 333.867 491.817Z" stroke="white" stroke-width="0.8" stroke-miterlimit="10"/>
<path d="M334.257 490.294C361.128 466.906 375.026 436.841 365.3 423.141C355.574 409.441 325.906 417.294 299.035 440.682C272.164 464.07 258.265 494.135 267.992 507.835C277.718 521.535 307.386 513.682 334.257 490.294Z" stroke="white" stroke-width="0.8" stroke-miterlimit="10"/>
<path d="M334.646 488.792C360.654 463.51 373.217 432.269 362.706 419.012C352.195 405.755 322.59 415.503 296.582 440.784C270.574 466.066 258.011 497.307 268.522 510.564C279.033 523.821 308.637 514.073 334.646 488.792Z" stroke="white" stroke-width="0.8" stroke-miterlimit="10"/>
<path d="M335.047 487.274C360.187 460.1 371.408 427.684 360.111 414.87C348.813 402.056 319.275 413.697 294.135 440.87C268.996 468.043 257.774 500.459 269.072 513.273C280.369 526.087 309.908 514.447 335.047 487.274Z" stroke="white" stroke-width="0.8" stroke-miterlimit="10"/>
<path d="M335.45 485.762C359.726 456.695 369.607 423.1 357.522 410.725C345.436 398.351 315.959 411.883 291.684 440.95C267.408 470.017 257.527 503.612 269.612 515.987C281.698 528.361 311.175 514.829 335.45 485.762Z" stroke="white" stroke-width="0.8" stroke-miterlimit="10"/>
<path d="M335.845 484.245C359.257 453.286 367.802 418.516 354.933 406.585C342.063 394.653 312.65 410.077 289.239 441.036C265.827 471.995 257.281 506.765 270.151 518.697C283.021 530.629 312.433 515.204 335.845 484.245Z" stroke="white" stroke-width="0.8" stroke-miterlimit="10"/>
<path d="M336.245 482.723C358.79 449.871 365.996 413.925 352.339 402.435C338.682 390.944 309.334 408.261 286.789 441.113C264.243 473.965 257.038 509.911 270.695 521.402C284.352 532.892 313.7 515.575 336.245 482.723Z" stroke="white" stroke-width="0.8" stroke-miterlimit="10"/>
<path d="M336.645 481.209C358.324 446.466 364.189 409.344 349.745 398.295C335.302 387.246 306.019 406.453 284.34 441.197C262.661 475.94 256.796 513.062 271.24 524.111C285.684 535.16 314.967 515.952 336.645 481.209Z" stroke="white" stroke-width="0.8" stroke-miterlimit="10"/>
<path d="M337.048 479.721C357.868 443.086 362.398 404.785 347.167 394.173C331.936 383.561 302.711 404.657 281.892 441.292C261.072 477.926 256.542 516.227 271.773 526.839C287.004 537.451 316.229 516.355 337.048 479.721Z" stroke="white" stroke-width="0.8" stroke-miterlimit="10"/>
</g>
</g>
<g clip-path="url(#clip1_371_158)" filter="url(#filter1_f_371_158)">
<g opacity="0.9">
<path d="M132.412 233.643C127.976 221.719 105.226 218.873 81.5987 227.287C57.9714 235.701 42.4137 252.188 46.8496 264.112C51.2855 276.037 74.0352 278.883 97.6625 270.469C121.29 262.055 136.847 245.567 132.412 233.643Z" stroke="white" stroke-width="0.8" stroke-miterlimit="10"/>
<path d="M129.809 231.905C125.028 220.446 102.808 218.688 80.1807 227.979C57.5529 237.27 43.0852 254.091 47.8662 265.55C52.6472 277.01 74.8664 278.767 97.4942 269.477C120.122 260.186 134.59 243.365 129.809 231.905Z" stroke="white" stroke-width="0.8" stroke-miterlimit="10"/>
<path d="M97.347 268.489C118.972 258.323 132.346 241.169 127.22 230.173C122.093 219.177 100.407 218.504 78.7823 228.67C57.1575 238.836 43.7831 255.99 48.9096 266.986C54.0361 277.982 75.7223 278.655 97.347 268.489Z" stroke="white" stroke-width="0.8" stroke-miterlimit="10"/>
<path d="M97.186 267.499C117.81 256.457 130.093 238.968 124.621 228.436C119.149 217.904 97.9935 218.317 77.3695 229.359C56.7455 240.401 44.4626 257.89 49.9348 268.422C55.407 278.954 76.5621 278.541 97.186 267.499Z" stroke="white" stroke-width="0.8" stroke-miterlimit="10"/>
<path d="M97.0218 266.514C116.648 254.596 127.843 236.774 122.027 226.706C116.211 216.639 95.5855 218.139 75.9592 230.057C56.3329 241.975 45.1377 259.798 50.9539 269.865C56.7702 279.932 77.3955 278.432 97.0218 266.514Z" stroke="white" stroke-width="0.8" stroke-miterlimit="10"/>
<path d="M96.8562 265.539C115.481 252.745 125.583 234.588 119.42 224.982C113.257 215.376 93.1629 217.96 74.5384 230.753C55.9139 243.546 45.8118 261.704 51.9747 271.31C58.1376 280.915 78.2317 278.332 96.8562 265.539Z" stroke="white" stroke-width="0.8" stroke-miterlimit="10"/>
<path d="M96.6973 264.546C114.322 250.875 123.334 232.384 116.827 223.244C110.32 214.105 90.7573 217.778 73.1329 231.448C55.5085 245.119 46.4962 263.61 53.0033 272.75C59.5104 281.89 79.0729 278.217 96.6973 264.546Z" stroke="white" stroke-width="0.8" stroke-miterlimit="10"/>
<path d="M96.5359 263.565C113.159 249.02 121.078 230.194 114.225 221.516C107.371 212.839 88.3402 217.595 71.7175 232.139C55.0947 246.684 47.1751 265.51 54.0285 274.188C60.8819 282.865 79.9131 278.109 96.5359 263.565Z" stroke="white" stroke-width="0.8" stroke-miterlimit="10"/>
<path d="M96.3747 262.567C111.994 247.144 118.82 227.984 111.621 219.773C104.423 211.561 85.9252 217.407 70.3061 232.83C54.687 248.252 47.8609 267.412 55.0596 275.624C62.2582 283.835 80.7557 277.99 96.3747 262.567Z" stroke="white" stroke-width="0.8" stroke-miterlimit="10"/>
<path d="M96.2167 261.582C110.837 245.283 116.573 225.789 109.029 218.04C101.485 210.291 83.5176 217.223 68.8975 233.522C54.2774 249.821 48.5411 269.315 56.0851 277.064C63.6291 284.813 81.5966 277.881 96.2167 261.582Z" stroke="white" stroke-width="0.8" stroke-miterlimit="10"/>
<path d="M96.0586 260.604C109.679 243.43 114.323 223.601 106.433 216.314C98.5424 209.027 81.1046 217.041 67.4846 234.215C53.8646 251.388 49.2199 271.217 57.1104 278.504C65.0009 285.791 82.4386 277.777 96.0586 260.604Z" stroke="white" stroke-width="0.8" stroke-miterlimit="10"/>
<path d="M95.8984 259.609C108.516 241.559 112.067 221.395 103.831 214.572C95.5944 207.75 78.689 216.852 66.0715 234.902C53.4541 252.953 49.9026 273.116 58.139 279.939C66.3755 286.762 83.281 277.66 95.8984 259.609Z" stroke="white" stroke-width="0.8" stroke-miterlimit="10"/>
<path d="M95.7347 258.626C107.353 239.7 109.816 219.204 101.236 212.845C92.6564 206.487 76.2829 216.675 64.6648 235.601C53.0468 254.526 50.5838 275.023 59.1635 281.381C67.7432 287.739 84.1167 277.551 95.7347 258.626Z" stroke="white" stroke-width="0.8" stroke-miterlimit="10"/>
<path d="M95.5746 257.629C106.19 237.825 107.56 216.993 98.6346 211.099C89.7093 205.206 73.8685 216.484 63.2532 236.288C52.6379 256.092 51.2679 276.925 60.1932 282.818C69.1185 288.711 84.9593 277.434 95.5746 257.629Z" stroke="white" stroke-width="0.8" stroke-miterlimit="10"/>
<path d="M95.4048 256.639C105.02 235.959 105.297 214.791 96.0253 209.361C86.7532 203.93 71.4422 216.292 61.8273 236.973C52.2124 257.653 51.9345 278.821 61.2067 284.251C70.4789 289.682 85.7899 277.32 95.4048 256.639Z" stroke="white" stroke-width="0.8" stroke-miterlimit="10"/>
<path d="M95.2398 255.662C103.855 234.104 103.044 212.602 93.4282 207.636C83.8125 202.669 69.0335 216.119 60.4184 237.676C51.8032 259.234 52.6142 280.736 62.2299 285.702C71.8456 290.669 86.6246 277.219 95.2398 255.662Z" stroke="white" stroke-width="0.8" stroke-miterlimit="10"/>
<path d="M95.0781 254.672C102.691 232.24 100.787 210.405 90.8272 205.903C80.8669 201.401 66.6214 215.936 59.0089 238.368C51.3964 260.8 53.2996 282.634 63.2598 287.137C73.2201 291.639 87.4656 277.103 95.0781 254.672Z" stroke="white" stroke-width="0.8" stroke-miterlimit="10"/>
<path d="M94.919 253.685C101.531 230.376 98.5356 208.206 88.2288 204.167C77.9221 200.128 64.2069 215.749 57.5951 239.058C50.9833 262.367 53.9785 284.537 64.2852 288.576C74.5919 292.615 88.3071 276.994 94.919 253.685Z" stroke="white" stroke-width="0.8" stroke-miterlimit="10"/>
<path d="M94.7536 252.698C100.366 228.513 96.2815 206.009 85.6315 202.434C74.9815 198.859 61.7985 215.566 56.1865 239.75C50.5745 263.935 54.6586 286.439 65.3086 290.014C75.9586 293.589 89.1415 276.882 94.7536 252.698Z" stroke="white" stroke-width="0.8" stroke-miterlimit="10"/>
<path d="M94.5901 251.706C99.2004 226.645 94.0243 203.808 83.0291 200.696C72.0339 197.585 59.3831 215.378 54.7728 240.438C50.1625 265.498 55.3386 288.336 66.3338 291.447C77.329 294.559 89.9798 276.766 94.5901 251.706Z" stroke="white" stroke-width="0.8" stroke-miterlimit="10"/>
<path d="M94.4287 250.718C98.0376 224.783 91.77 201.612 80.4296 198.965C69.0892 196.317 56.9704 215.194 53.3615 241.129C49.7526 267.064 56.0202 290.235 67.3606 292.883C78.7011 295.531 90.8198 276.653 94.4287 250.718Z" stroke="white" stroke-width="0.8" stroke-miterlimit="10"/>
<path d="M94.2758 249.745C96.8877 222.934 89.5308 199.426 77.8438 197.24C66.1569 195.053 54.5654 215.016 51.9536 241.827C49.3418 268.639 56.6986 292.146 68.3856 294.333C80.0726 296.519 91.664 276.557 94.2758 249.745Z" stroke="white" stroke-width="0.8" stroke-miterlimit="10"/>
</g>
</g>
<line x1="145.378" y1="437.449" x2="128.196" y2="465.004" stroke="#585858"/>
<circle cx="128.558" cy="463.558" r="2.47405" transform="rotate(-178.029 128.558 463.558)" fill="#585858"/>
<path d="M322 221L322.35 219.08H321.55V218.22H322.51L322.78 216.78H321.94V215.92H322.94L323.3 214H324.32L323.96 215.92H325.42L325.78 214H326.8L326.44 215.92H327.25V216.78H326.28L326.01 218.22H326.86V219.08H325.85L325.5 221H324.48L324.83 219.08H323.37L323.02 221H322ZM323.53 218.22H324.99L325.26 216.78H323.8L323.53 218.22ZM328.697 221V214H333.347V215.04H329.897V217.03H333.047V218.07H329.897V221H328.697ZM334.644 221V214H339.294V215.04H335.844V217.03H338.994V218.07H335.844V221H334.644ZM340.591 221V214H345.241V215.04H341.791V217.03H344.941V218.07H341.791V221H340.591ZM346.539 221V214H351.189V215.04H347.739V217.03H350.889V218.07H347.739V221H346.539ZM352.486 221V214H357.136V215.04H353.686V217.03H356.836V218.07H353.686V221H352.486ZM358.433 221V214H363.083V215.04H359.633V217.03H362.783V218.07H359.633V221H358.433Z" fill="white"/>
<path d="M81 482L81.35 480.08H80.55V479.22H81.51L81.78 477.78H80.94V476.92H81.94L82.3 475H83.32L82.96 476.92H84.42L84.78 475H85.8L85.44 476.92H86.25V477.78H85.28L85.01 479.22H85.86V480.08H84.85L84.5 482H83.48L83.83 480.08H82.37L82.02 482H81ZM82.53 479.22H83.99L84.26 477.78H82.8L82.53 479.22ZM89.9969 482.11C89.1702 482.11 88.5202 481.85 88.0469 481.33C87.5802 480.81 87.3469 479.983 87.3469 478.85V478.65C87.3469 477.743 87.4669 477.017 87.7069 476.47C87.9469 475.917 88.2735 475.517 88.6869 475.27C89.1069 475.017 89.5769 474.89 90.0969 474.89C90.4969 474.89 90.8469 474.95 91.1469 475.07C91.4535 475.183 91.7035 475.363 91.8969 475.61C92.0969 475.85 92.2302 476.163 92.2969 476.55H91.0969C91.0235 476.337 90.9035 476.183 90.7369 476.09C90.5702 475.997 90.3569 475.95 90.0969 475.95C89.7969 475.95 89.5235 476.017 89.2769 476.15C89.0369 476.283 88.8435 476.517 88.6969 476.85C88.5569 477.177 88.4802 477.643 88.4669 478.25C88.6402 477.957 88.8902 477.75 89.2169 477.63C89.5502 477.503 89.8769 477.44 90.1969 477.44C90.6702 477.44 91.0735 477.527 91.4069 477.7C91.7402 477.873 91.9969 478.127 92.1769 478.46C92.3569 478.787 92.4469 479.19 92.4469 479.67V479.77C92.4469 480.23 92.3402 480.637 92.1269 480.99C91.9135 481.343 91.6202 481.62 91.2469 481.82C90.8802 482.013 90.4635 482.11 89.9969 482.11ZM89.9169 481.05C90.3169 481.05 90.6369 480.933 90.8769 480.7C91.1235 480.46 91.2469 480.15 91.2469 479.77V479.67C91.2469 479.297 91.1235 478.993 90.8769 478.76C90.6369 478.52 90.3169 478.4 89.9169 478.4C89.5169 478.4 89.1935 478.52 88.9469 478.76C88.7069 478.993 88.5869 479.297 88.5869 479.67V479.77C88.5869 480.15 88.7069 480.46 88.9469 480.7C89.1935 480.933 89.5169 481.05 89.9169 481.05ZM93.0992 482L95.7492 475H96.9492L99.5992 482H98.3192L97.7292 480.42H94.8892L94.2992 482H93.0992ZM95.2792 479.38H97.3392L96.3192 476.5L95.2792 479.38ZM102.946 482.11C102.119 482.11 101.469 481.85 100.996 481.33C100.529 480.81 100.296 479.983 100.296 478.85V478.65C100.296 477.743 100.416 477.017 100.656 476.47C100.896 475.917 101.223 475.517 101.636 475.27C102.056 475.017 102.526 474.89 103.046 474.89C103.446 474.89 103.796 474.95 104.096 475.07C104.403 475.183 104.653 475.363 104.846 475.61C105.046 475.85 105.179 476.163 105.246 476.55H104.046C103.973 476.337 103.853 476.183 103.686 476.09C103.519 475.997 103.306 475.95 103.046 475.95C102.746 475.95 102.473 476.017 102.226 476.15C101.986 476.283 101.793 476.517 101.646 476.85C101.506 477.177 101.429 477.643 101.416 478.25C101.589 477.957 101.839 477.75 102.166 477.63C102.499 477.503 102.826 477.44 103.146 477.44C103.619 477.44 104.023 477.527 104.356 477.7C104.689 477.873 104.946 478.127 105.126 478.46C105.306 478.787 105.396 479.19 105.396 479.67V479.77C105.396 480.23 105.289 480.637 105.076 480.99C104.863 481.343 104.569 481.62 104.196 481.82C103.829 482.013 103.413 482.11 102.946 482.11ZM102.866 481.05C103.266 481.05 103.586 480.933 103.826 480.7C104.073 480.46 104.196 480.15 104.196 479.77V479.67C104.196 479.297 104.073 478.993 103.826 478.76C103.586 478.52 103.266 478.4 102.866 478.4C102.466 478.4 102.143 478.52 101.896 478.76C101.656 478.993 101.536 479.297 101.536 479.67V479.77C101.536 480.15 101.656 480.46 101.896 480.7C102.143 480.933 102.466 481.05 102.866 481.05ZM106.048 482L108.698 475H109.898L112.548 482H111.268L110.678 480.42H107.838L107.248 482H106.048ZM108.228 479.38H110.288L109.268 476.5L108.228 479.38ZM115.895 482.11C115.069 482.11 114.419 481.85 113.945 481.33C113.479 480.81 113.245 479.983 113.245 478.85V478.65C113.245 477.743 113.365 477.017 113.605 476.47C113.845 475.917 114.172 475.517 114.585 475.27C115.005 475.017 115.475 474.89 115.995 474.89C116.395 474.89 116.745 474.95 117.045 475.07C117.352 475.183 117.602 475.363 117.795 475.61C117.995 475.85 118.129 476.163 118.195 476.55H116.995C116.922 476.337 116.802 476.183 116.635 476.09C116.469 475.997 116.255 475.95 115.995 475.95C115.695 475.95 115.422 476.017 115.175 476.15C114.935 476.283 114.742 476.517 114.595 476.85C114.455 477.177 114.379 477.643 114.365 478.25C114.539 477.957 114.789 477.75 115.115 477.63C115.449 477.503 115.775 477.44 116.095 477.44C116.569 477.44 116.972 477.527 117.305 477.7C117.639 477.873 117.895 478.127 118.075 478.46C118.255 478.787 118.345 479.19 118.345 479.67V479.77C118.345 480.23 118.239 480.637 118.025 480.99C117.812 481.343 117.519 481.62 117.145 481.82C116.779 482.013 116.362 482.11 115.895 482.11ZM115.815 481.05C116.215 481.05 116.535 480.933 116.775 480.7C117.022 480.46 117.145 480.15 117.145 479.77V479.67C117.145 479.297 117.022 478.993 116.775 478.76C116.535 478.52 116.215 478.4 115.815 478.4C115.415 478.4 115.092 478.52 114.845 478.76C114.605 478.993 114.485 479.297 114.485 479.67V479.77C114.485 480.15 114.605 480.46 114.845 480.7C115.092 480.933 115.415 481.05 115.815 481.05ZM118.998 482L121.648 475H122.848L125.498 482H124.218L123.628 480.42H120.788L120.198 482H118.998ZM121.178 479.38H123.238L122.218 476.5L121.178 479.38Z" fill="#585858"/>
<g filter="url(#filter2_dddddd_371_158)">
<path d="M95 269.417L127.098 253.021V314.728L192.824 350.5V389.849L95 334.999V269.417Z" fill="url(#paint0_linear_371_158)"/>
<path d="M95 409.524V372.857L211.777 438.439L229.202 429.198V331.123L160.42 291.774V233.644L192.824 216.653V273.59L264.663 314.728V446.786L211.777 476L95 409.524Z" fill="url(#paint1_linear_371_158)"/>
<path d="M229.202 253.021V213L331 269.417V409.524L295.233 429.198V291.774L229.202 253.021Z" fill="url(#paint2_linear_371_158)"/>
</g>
<line x1="298.158" y1="251.916" x2="313.01" y2="228.976" stroke="white"/>
<circle cx="311.475" cy="230.475" r="2.475" fill="white"/>
<defs>
<filter id="filter0_f_371_158" x="257" y="388" width="148" height="145" filterUnits="userSpaceOnUse" color-interpolation-filters="sRGB">
<feFlood flood-opacity="0" result="BackgroundImageFix"/>
<feBlend mode="normal" in="SourceGraphic" in2="BackgroundImageFix" result="shape"/>
<feGaussianBlur stdDeviation="1.5" result="effect1_foregroundBlur_371_158"/>
</filter>
<filter id="filter1_f_371_158" x="16" y="171" width="139.427" height="138.264" filterUnits="userSpaceOnUse" color-interpolation-filters="sRGB">
<feFlood flood-opacity="0" result="BackgroundImageFix"/>
<feBlend mode="normal" in="SourceGraphic" in2="BackgroundImageFix" result="shape"/>
<feGaussianBlur stdDeviation="5" result="effect1_foregroundBlur_371_158"/>
</filter>
<filter id="filter2_dddddd_371_158" x="-117.184" y="0.815994" width="660.368" height="687.368" filterUnits="userSpaceOnUse" color-interpolation-filters="sRGB">
<feFlood flood-opacity="0" result="BackgroundImageFix"/>
<feColorMatrix in="SourceAlpha" type="matrix" values="0 0 0 0 0 0 0 0 0 0 0 0 0 0 0 0 0 0 127 0" result="hardAlpha"/>
<feOffset/>
<feGaussianBlur stdDeviation="2.526"/>
<feColorMatrix type="matrix" values="0 0 0 0 0.301961 0 0 0 0 0.301961 0 0 0 0 0.301961 0 0 0 1 0"/>
<feBlend mode="normal" in2="BackgroundImageFix" result="effect1_dropShadow_371_158"/>
<feColorMatrix in="SourceAlpha" type="matrix" values="0 0 0 0 0 0 0 0 0 0 0 0 0 0 0 0 0 0 127 0" result="hardAlpha"/>
<feOffset/>
<feGaussianBlur stdDeviation="5.052"/>
<feColorMatrix type="matrix" values="0 0 0 0 0.301961 0 0 0 0 0.301961 0 0 0 0 0.301961 0 0 0 1 0"/>
<feBlend mode="normal" in2="effect1_dropShadow_371_158" result="effect2_dropShadow_371_158"/>
<feColorMatrix in="SourceAlpha" type="matrix" values="0 0 0 0 0 0 0 0 0 0 0 0 0 0 0 0 0 0 127 0" result="hardAlpha"/>
<feOffset/>
<feGaussianBlur stdDeviation="17.682"/>
<feColorMatrix type="matrix" values="0 0 0 0 0.301961 0 0 0 0 0.301961 0 0 0 0 0.301961 0 0 0 1 0"/>
<feBlend mode="normal" in2="effect2_dropShadow_371_158" result="effect3_dropShadow_371_158"/>
<feColorMatrix in="SourceAlpha" type="matrix" values="0 0 0 0 0 0 0 0 0 0 0 0 0 0 0 0 0 0 127 0" result="hardAlpha"/>
<feOffset/>
<feGaussianBlur stdDeviation="35.364"/>
<feColorMatrix type="matrix" values="0 0 0 0 0.301961 0 0 0 0 0.301961 0 0 0 0 0.301961 0 0 0 1 0"/>
<feBlend mode="normal" in2="effect3_dropShadow_371_158" result="effect4_dropShadow_371_158"/>
<feColorMatrix in="SourceAlpha" type="matrix" values="0 0 0 0 0 0 0 0 0 0 0 0 0 0 0 0 0 0 127 0" result="hardAlpha"/>
<feOffset/>
<feGaussianBlur stdDeviation="60.624"/>
<feColorMatrix type="matrix" values="0 0 0 0 0.301961 0 0 0 0 0.301961 0 0 0 0 0.301961 0 0 0 1 0"/>
<feBlend mode="normal" in2="effect4_dropShadow_371_158" result="effect5_dropShadow_371_158"/>
<feColorMatrix in="SourceAlpha" type="matrix" values="0 0 0 0 0 0 0 0 0 0 0 0 0 0 0 0 0 0 127 0" result="hardAlpha"/>
<feOffset/>
<feGaussianBlur stdDeviation="106.092"/>
<feColorMatrix type="matrix" values="0 0 0 0 0.301961 0 0 0 0 0.301961 0 0 0 0 0.301961 0 0 0 1 0"/>
<feBlend mode="normal" in2="effect5_dropShadow_371_158" result="effect6_dropShadow_371_158"/>
<feBlend mode="normal" in="SourceGraphic" in2="effect6_dropShadow_371_158" result="shape"/>
</filter>
<linearGradient id="paint0_linear_371_158" x1="298.382" y1="213" x2="124.956" y2="448.996" gradientUnits="userSpaceOnUse">
<stop stop-color="white"/>
<stop offset="1" stop-color="white" stop-opacity="0"/>
</linearGradient>
<linearGradient id="paint1_linear_371_158" x1="298.382" y1="213" x2="124.956" y2="448.996" gradientUnits="userSpaceOnUse">
<stop stop-color="white"/>
<stop offset="1" stop-color="white" stop-opacity="0"/>
</linearGradient>
<linearGradient id="paint2_linear_371_158" x1="298.382" y1="213" x2="124.956" y2="448.996" gradientUnits="userSpaceOnUse">
<stop stop-color="white"/>
<stop offset="1" stop-color="white" stop-opacity="0"/>
</linearGradient>
<clipPath id="clip0_371_158">
<rect width="142" height="139" fill="white" transform="translate(260 391)"/>
</clipPath>
<clipPath id="clip1_371_158">
<rect width="91.0787" height="88.7688" fill="white" transform="translate(26 218.267) rotate(-24.1526)"/>
</clipPath>
</defs>
</svg>
