<svg width="119" height="90" viewBox="0 0 119 90" fill="none" xmlns="http://www.w3.org/2000/svg">
<path d="M37 10.7256L43.2565 7.60856V19.3399L56.0674 26.1406V33.6215L37 23.1936V10.7256Z" fill="url(#paint0_linear_370_156)"/>
<path d="M37 37.3619V30.3911L59.7617 42.8592L63.158 41.1023V22.4569L49.7513 14.9761V3.92481L56.0674 0.694444V11.519L70.0699 19.3399V44.446L59.7617 50L37 37.3619Z" fill="url(#paint1_linear_370_156)"/>
<path d="M63.158 7.60856V0L83 10.7256V37.3619L76.0285 41.1023V14.9761L63.158 7.60856Z" fill="url(#paint2_linear_370_156)"/>
<path d="M1.10085 79V64.4545H7.16619C8.25521 64.4545 9.16667 64.6084 9.90057 64.9162C10.6392 65.224 11.1932 65.6548 11.5625 66.2088C11.9366 66.7628 12.1236 67.4044 12.1236 68.1335C12.1236 68.6875 12.0076 69.1823 11.7756 69.6179C11.5436 70.0488 11.224 70.4062 10.8168 70.6903C10.4096 70.9744 9.93845 71.1733 9.40341 71.2869V71.429C9.99053 71.4574 10.5327 71.616 11.0298 71.9048C11.5317 72.1937 11.9342 72.5961 12.2372 73.1122C12.5402 73.6236 12.6918 74.2296 12.6918 74.9304C12.6918 75.7116 12.4929 76.41 12.0952 77.0256C11.6974 77.6364 11.1222 78.1193 10.3693 78.4744C9.61648 78.8248 8.70265 79 7.62784 79H1.10085ZM4.61648 76.1662H6.78977C7.55208 76.1662 8.11316 76.0218 8.47301 75.733C8.8376 75.4441 9.01989 75.0417 9.01989 74.5256C9.01989 74.1515 8.93229 73.8295 8.7571 73.5597C8.58191 73.285 8.33333 73.0743 8.01136 72.9276C7.68939 72.776 7.3035 72.7003 6.85369 72.7003H4.61648V76.1662ZM4.61648 70.4347H6.5625C6.94602 70.4347 7.28693 70.3707 7.58523 70.2429C7.88352 70.1151 8.11553 69.9304 8.28125 69.6889C8.4517 69.4474 8.53693 69.1562 8.53693 68.8153C8.53693 68.3277 8.36411 67.9441 8.01847 67.6648C7.67282 67.3854 7.20644 67.2457 6.61932 67.2457H4.61648V70.4347ZM23.4977 64.4545V79H19.9821V64.4545H23.4977ZM38.2863 70.392V73.0625H31.5533V70.392H38.2863ZM45.5695 67.3097V64.4545H57.8636V67.3097H53.4531V79H49.9871V67.3097H45.5695ZM65.1805 79V64.4545H75.3226V67.3097H68.6962V70.2926H74.8041V73.1548H68.6962V76.1449H75.3226V79H65.1805ZM96.3274 69.7244H92.7763C92.7289 69.3598 92.6319 69.0308 92.4851 68.7372C92.3383 68.4437 92.1442 68.1927 91.9027 67.9844C91.6612 67.776 91.3748 67.6174 91.0433 67.5085C90.7166 67.3949 90.3544 67.3381 89.9567 67.3381C89.2512 67.3381 88.6428 67.5109 88.1314 67.8565C87.6248 68.2022 87.2341 68.7017 86.9595 69.3551C86.6896 70.0085 86.5547 70.7992 86.5547 71.7273C86.5547 72.6932 86.692 73.5028 86.9666 74.1562C87.246 74.8049 87.6366 75.295 88.1385 75.6264C88.6451 75.9531 89.2441 76.1165 89.9354 76.1165C90.3236 76.1165 90.6764 76.0668 90.9936 75.9673C91.3156 75.8679 91.5973 75.7235 91.8388 75.5341C92.085 75.34 92.2862 75.1056 92.4425 74.831C92.6035 74.5516 92.7147 74.2367 92.7763 73.8864L96.3274 73.9077C96.2659 74.5516 96.0788 75.1861 95.7663 75.8111C95.4586 76.4361 95.0348 77.0066 94.495 77.5227C93.9553 78.0341 93.2971 78.4413 92.5206 78.7443C91.7488 79.0473 90.8634 79.1989 89.8643 79.1989C88.5481 79.1989 87.3691 78.91 86.3274 78.3324C85.2905 77.75 84.4714 76.9025 83.87 75.7898C83.2687 74.6771 82.968 73.3229 82.968 71.7273C82.968 70.1269 83.2734 68.7704 83.8842 67.6577C84.495 66.545 85.3213 65.6998 86.3629 65.1222C87.4046 64.5445 88.5717 64.2557 89.8643 64.2557C90.745 64.2557 91.5594 64.3788 92.3075 64.625C93.0556 64.8665 93.7138 65.2216 94.282 65.6903C94.8501 66.1544 95.3118 66.7249 95.6669 67.402C96.022 68.0791 96.2422 68.8532 96.3274 69.7244ZM103.939 79V64.4545H107.455V70.2926H113.186V64.4545H116.695V79H113.186V73.1548H107.455V79H103.939Z" fill="url(#paint3_linear_370_156)"/>
<path d="M1.49 85.5C1.69 85.5 1.87 85.53 2.03 85.58C2.19 85.63 2.325 85.705 2.435 85.805C2.545 85.905 2.635 86.025 2.695 86.165C2.755 86.31 2.79 86.475 2.79 86.655C2.79 86.825 2.76 86.98 2.7 87.125C2.64 87.27 2.56 87.395 2.45 87.5C2.34 87.61 2.205 87.695 2.045 87.755C1.885 87.815 1.7 87.845 1.5 87.845H0.735V89H0.285V85.5H1.49ZM0.735 85.9V87.445H1.535C1.77 87.445 1.965 87.38 2.115 87.24C2.265 87.1 2.34 86.905 2.34 86.655C2.34 86.405 2.265 86.22 2.125 86.09C1.98 85.965 1.775 85.9 1.515 85.9H0.735ZM3.65109 89.07C3.54109 89.07 3.43609 89.06 3.33609 89.03C3.23609 89.005 3.14609 88.965 3.07609 88.905C3.00109 88.85 2.94109 88.78 2.90109 88.69C2.85609 88.605 2.83609 88.5 2.83609 88.38C2.83609 88.29 2.85609 88.19 2.89609 88.08C2.93609 87.975 3.02609 87.875 3.15609 87.785C3.28609 87.695 3.47109 87.62 3.71109 87.56C3.95109 87.5 4.26609 87.47 4.66109 87.47V87.38C4.66109 87.31 4.64609 87.235 4.62109 87.165C4.59609 87.095 4.55609 87.035 4.50609 86.98C4.45109 86.925 4.38109 86.88 4.29109 86.85C4.20109 86.82 4.09609 86.8 3.97609 86.8C3.74109 86.8 3.56609 86.855 3.45109 86.965C3.33609 87.075 3.28109 87.215 3.28109 87.385H2.85109C2.85109 87.225 2.88109 87.08 2.94609 86.96C3.00609 86.84 3.09109 86.745 3.19609 86.665C3.29609 86.585 3.41609 86.53 3.55109 86.49C3.68109 86.45 3.82109 86.43 3.96109 86.43C4.16609 86.43 4.34109 86.455 4.48609 86.505C4.62609 86.555 4.74609 86.625 4.83609 86.715C4.92609 86.805 4.99109 86.915 5.03109 87.035C5.07109 87.16 5.09109 87.295 5.09109 87.445V88.1C5.09109 88.225 5.09109 88.33 5.09609 88.42C5.10109 88.51 5.11109 88.59 5.12109 88.66C5.13109 88.73 5.14109 88.795 5.15609 88.845C5.16609 88.9 5.18109 88.95 5.19609 89H4.75609C4.72609 88.935 4.70609 88.855 4.69609 88.765C4.68609 88.675 4.67609 88.595 4.67609 88.525H4.62109C4.54109 88.68 4.41609 88.81 4.24609 88.915C4.07609 89.02 3.87609 89.07 3.65109 89.07ZM3.71109 88.71C3.84109 88.71 3.96109 88.69 4.08109 88.645C4.19609 88.6 4.29609 88.54 4.38109 88.465C4.46609 88.395 4.53609 88.315 4.58609 88.225C4.63609 88.135 4.66109 88.045 4.66109 87.955V87.78C4.38109 87.79 4.15609 87.81 3.97609 87.84C3.79609 87.875 3.65609 87.92 3.55109 87.97C3.44609 88.02 3.37109 88.08 3.33109 88.15C3.29109 88.22 3.27109 88.29 3.27109 88.36C3.27109 88.48 3.31109 88.57 3.39609 88.625C3.47609 88.685 3.58109 88.71 3.71109 88.71ZM5.37105 88.095H5.79105V88.115C5.79105 88.225 5.80605 88.32 5.84605 88.39C5.88605 88.465 5.93605 88.525 6.00605 88.57C6.07105 88.615 6.14605 88.645 6.23605 88.665C6.32605 88.685 6.41605 88.695 6.51605 88.695C6.64605 88.695 6.75605 88.685 6.83605 88.655C6.91605 88.63 6.97605 88.595 7.02105 88.555C7.06105 88.515 7.09105 88.47 7.10605 88.42C7.11605 88.37 7.12605 88.325 7.12605 88.275C7.12605 88.22 7.11605 88.17 7.09605 88.12C7.07605 88.07 7.04605 88.03 7.00105 87.995C6.95605 87.96 6.89605 87.935 6.82105 87.915C6.74105 87.9 6.64605 87.895 6.53605 87.895L6.21105 87.91V87.525L6.53105 87.54C6.63605 87.55 6.72605 87.54 6.79605 87.52C6.86605 87.5 6.92105 87.475 6.96105 87.44C7.00105 87.405 7.02605 87.365 7.04605 87.315C7.06105 87.265 7.07105 87.215 7.07105 87.16C7.07105 87.06 7.02105 86.975 6.93105 86.905C6.84105 86.835 6.68105 86.8 6.45105 86.8C6.33105 86.8 6.23105 86.82 6.15105 86.85C6.06605 86.88 5.99605 86.925 5.94105 86.98C5.88605 87.035 5.84605 87.095 5.82105 87.165C5.79105 87.235 5.78105 87.31 5.78105 87.385H5.36105C5.36105 87.225 5.39105 87.09 5.45105 86.97C5.51105 86.85 5.59105 86.75 5.69105 86.67C5.79105 86.59 5.90605 86.53 6.03605 86.49C6.16605 86.45 6.30605 86.43 6.45605 86.43C6.64105 86.43 6.80105 86.45 6.93105 86.49C7.06105 86.53 7.17105 86.585 7.25605 86.65C7.33605 86.715 7.39605 86.79 7.43605 86.875C7.47605 86.965 7.49605 87.05 7.49605 87.14C7.49605 87.28 7.45605 87.4 7.38105 87.495C7.30105 87.595 7.18605 87.655 7.02605 87.68V87.745C7.21605 87.785 7.35105 87.85 7.43605 87.95C7.51605 88.05 7.56105 88.17 7.56105 88.305C7.56105 88.415 7.53605 88.52 7.49605 88.61C7.45605 88.705 7.39105 88.785 7.30605 88.855C7.21605 88.925 7.10605 88.975 6.97605 89.015C6.84105 89.055 6.68105 89.07 6.50105 89.07C6.35105 89.07 6.21105 89.055 6.07605 89.02C5.93605 88.985 5.81605 88.93 5.71105 88.855C5.60605 88.78 5.52105 88.68 5.46105 88.56C5.40105 88.44 5.37105 88.29 5.37105 88.115V88.095ZM8.24871 86.5L8.27371 86.95H8.33371C8.44371 86.76 8.57871 86.625 8.74371 86.545C8.90371 86.47 9.08371 86.43 9.27371 86.43C9.43871 86.43 9.59371 86.46 9.73871 86.52C9.87871 86.58 10.0037 86.665 10.1087 86.775C10.2087 86.89 10.2887 87.03 10.3487 87.19C10.4087 87.35 10.4387 87.535 10.4387 87.745C10.4387 87.965 10.4087 88.155 10.3487 88.32C10.2887 88.485 10.2037 88.625 10.0987 88.735C9.98871 88.845 9.86371 88.93 9.71871 88.985C9.57371 89.045 9.41371 89.07 9.24371 89.07C9.07371 89.07 8.90871 89.035 8.74371 88.96C8.57871 88.885 8.44371 88.76 8.33371 88.58H8.27371L8.29371 88.95V89.9H7.86371V86.5H8.24871ZM10.0087 87.755C10.0087 87.585 9.98371 87.44 9.94371 87.315C9.90371 87.195 9.84371 87.09 9.76871 87.01C9.69371 86.93 9.60371 86.875 9.50371 86.835C9.39871 86.8 9.28871 86.78 9.16871 86.78C9.04871 86.78 8.93871 86.8 8.83371 86.83C8.72371 86.865 8.63371 86.92 8.55371 86.995C8.47371 87.075 8.40871 87.175 8.36371 87.295C8.31371 87.42 8.29371 87.575 8.29371 87.755C8.29371 87.935 8.31371 88.09 8.36371 88.21C8.40871 88.33 8.47371 88.43 8.55371 88.505C8.63371 88.585 8.72371 88.64 8.83371 88.67C8.93871 88.705 9.04871 88.72 9.16871 88.72C9.28871 88.72 9.39871 88.705 9.50371 88.665C9.60371 88.63 9.69371 88.575 9.76871 88.495C9.84371 88.415 9.90371 88.315 9.94371 88.195C9.98371 88.075 10.0087 87.925 10.0087 87.755ZM11.3568 89.07C11.2468 89.07 11.1418 89.06 11.0418 89.03C10.9418 89.005 10.8518 88.965 10.7818 88.905C10.7068 88.85 10.6468 88.78 10.6068 88.69C10.5618 88.605 10.5418 88.5 10.5418 88.38C10.5418 88.29 10.5618 88.19 10.6018 88.08C10.6418 87.975 10.7318 87.875 10.8618 87.785C10.9918 87.695 11.1768 87.62 11.4168 87.56C11.6568 87.5 11.9718 87.47 12.3668 87.47V87.38C12.3668 87.31 12.3518 87.235 12.3268 87.165C12.3018 87.095 12.2618 87.035 12.2118 86.98C12.1568 86.925 12.0868 86.88 11.9968 86.85C11.9068 86.82 11.8018 86.8 11.6818 86.8C11.4468 86.8 11.2718 86.855 11.1568 86.965C11.0418 87.075 10.9868 87.215 10.9868 87.385H10.5568C10.5568 87.225 10.5868 87.08 10.6518 86.96C10.7118 86.84 10.7968 86.745 10.9018 86.665C11.0018 86.585 11.1218 86.53 11.2568 86.49C11.3868 86.45 11.5268 86.43 11.6668 86.43C11.8718 86.43 12.0468 86.455 12.1918 86.505C12.3318 86.555 12.4518 86.625 12.5418 86.715C12.6318 86.805 12.6968 86.915 12.7368 87.035C12.7768 87.16 12.7968 87.295 12.7968 87.445V88.1C12.7968 88.225 12.7968 88.33 12.8018 88.42C12.8068 88.51 12.8168 88.59 12.8268 88.66C12.8368 88.73 12.8468 88.795 12.8618 88.845C12.8718 88.9 12.8868 88.95 12.9018 89H12.4618C12.4318 88.935 12.4118 88.855 12.4018 88.765C12.3918 88.675 12.3818 88.595 12.3818 88.525H12.3268C12.2468 88.68 12.1218 88.81 11.9518 88.915C11.7818 89.02 11.5818 89.07 11.3568 89.07ZM11.4168 88.71C11.5468 88.71 11.6668 88.69 11.7868 88.645C11.9018 88.6 12.0018 88.54 12.0868 88.465C12.1718 88.395 12.2418 88.315 12.2918 88.225C12.3418 88.135 12.3668 88.045 12.3668 87.955V87.78C12.0868 87.79 11.8618 87.81 11.6818 87.84C11.5018 87.875 11.3618 87.92 11.2568 87.97C11.1518 88.02 11.0768 88.08 11.0368 88.15C10.9968 88.22 10.9768 88.29 10.9768 88.36C10.9768 88.48 11.0168 88.57 11.1018 88.625C11.1818 88.685 11.2868 88.71 11.4168 88.71ZM13.0317 87.46C13.0317 87.18 13.0467 86.925 13.0867 86.695C13.1267 86.465 13.2017 86.27 13.3117 86.1C13.4217 85.93 13.5717 85.795 13.7717 85.69C13.9667 85.59 14.2217 85.52 14.5367 85.49L14.8967 85.455C14.9567 85.45 15.0067 85.445 15.0567 85.435C15.1017 85.43 15.1467 85.425 15.1917 85.415C15.2317 85.41 15.2767 85.405 15.3217 85.395C15.3667 85.385 15.4167 85.375 15.4767 85.365L15.4617 85.77C15.4017 85.78 15.3517 85.79 15.3017 85.795L15.1567 85.815C15.1067 85.825 15.0567 85.83 15.0067 85.835C14.9567 85.845 14.8967 85.85 14.8367 85.855L14.5167 85.885C14.3317 85.905 14.1717 85.94 14.0417 85.99C13.9117 86.04 13.8017 86.115 13.7117 86.21C13.6217 86.31 13.5567 86.43 13.5117 86.58C13.4667 86.73 13.4417 86.915 13.4317 87.125H13.4967C13.5867 86.935 13.7167 86.795 13.8917 86.695C14.0667 86.595 14.2717 86.545 14.5067 86.545C14.6867 86.545 14.8467 86.575 14.9967 86.63C15.1467 86.69 15.2717 86.77 15.3767 86.875C15.4817 86.985 15.5617 87.115 15.6217 87.27C15.6767 87.425 15.7067 87.6 15.7067 87.79C15.7067 88 15.6717 88.185 15.6067 88.345C15.5367 88.505 15.4467 88.64 15.3267 88.745C15.2067 88.855 15.0667 88.935 14.9067 88.99C14.7417 89.045 14.5667 89.07 14.3767 89.07C14.1667 89.07 13.9817 89.04 13.8167 88.97C13.6517 88.905 13.5117 88.805 13.3967 88.67C13.2767 88.54 13.1867 88.37 13.1267 88.17C13.0617 87.97 13.0317 87.73 13.0317 87.46ZM15.2767 87.8C15.2767 87.645 15.2517 87.51 15.2117 87.4C15.1667 87.29 15.1067 87.195 15.0267 87.12C14.9467 87.05 14.8467 86.995 14.7367 86.96C14.6267 86.93 14.5017 86.91 14.3717 86.91C14.2667 86.91 14.1617 86.925 14.0567 86.955C13.9517 86.985 13.8567 87.035 13.7767 87.105C13.6917 87.175 13.6217 87.265 13.5717 87.375C13.5217 87.485 13.4967 87.625 13.4967 87.785C13.4967 87.935 13.5167 88.07 13.5667 88.18C13.6167 88.295 13.6817 88.39 13.7617 88.47C13.8417 88.55 13.9317 88.605 14.0417 88.645C14.1467 88.685 14.2567 88.7 14.3767 88.7C14.4967 88.7 14.6067 88.685 14.7167 88.65C14.8267 88.615 14.9217 88.56 15.0067 88.485C15.0867 88.415 15.1517 88.32 15.2017 88.205C15.2517 88.095 15.2767 87.96 15.2767 87.8ZM15.7857 87.745C15.7857 87.54 15.8157 87.355 15.8857 87.19C15.9507 87.03 16.0407 86.89 16.1607 86.78C16.2757 86.67 16.4157 86.58 16.5757 86.52C16.7357 86.46 16.9157 86.43 17.1057 86.43C17.2957 86.43 17.4707 86.46 17.6307 86.52C17.7907 86.58 17.9307 86.67 18.0507 86.78C18.1657 86.89 18.2557 87.03 18.3257 87.19C18.3907 87.355 18.4257 87.54 18.4257 87.745C18.4257 87.965 18.3907 88.155 18.3257 88.32C18.2557 88.485 18.1657 88.625 18.0507 88.735C17.9307 88.845 17.7907 88.93 17.6307 88.985C17.4707 89.045 17.2957 89.07 17.1057 89.07C16.9157 89.07 16.7357 89.045 16.5757 88.985C16.4157 88.93 16.2757 88.845 16.1607 88.735C16.0407 88.625 15.9507 88.485 15.8857 88.32C15.8157 88.155 15.7857 87.965 15.7857 87.745ZM17.9957 87.755C17.9957 87.59 17.9707 87.445 17.9207 87.325C17.8707 87.205 17.8057 87.11 17.7257 87.03C17.6457 86.95 17.5507 86.895 17.4457 86.855C17.3357 86.82 17.2257 86.8 17.1057 86.8C16.9857 86.8 16.8707 86.82 16.7657 86.855C16.6557 86.895 16.5607 86.95 16.4807 87.03C16.4007 87.11 16.3357 87.205 16.2857 87.325C16.2357 87.445 16.2157 87.59 16.2157 87.755C16.2157 87.925 16.2357 88.065 16.2857 88.185C16.3357 88.305 16.4007 88.4 16.4807 88.475C16.5607 88.555 16.6557 88.61 16.7657 88.645C16.8707 88.685 16.9857 88.7 17.1057 88.7C17.2257 88.7 17.3357 88.685 17.4457 88.645C17.5507 88.61 17.6457 88.555 17.7257 88.475C17.8057 88.4 17.8707 88.305 17.9207 88.185C17.9707 88.065 17.9957 87.925 17.9957 87.755ZM18.4168 86.87V86.5H20.6868V86.87H19.7668V89H19.3368V86.87H18.4168ZM22.1025 88.215C22.0425 88.11 21.9775 88.035 21.9175 87.99C21.8525 87.95 21.7675 87.925 21.6625 87.925H21.3025V89H20.8725V86.5H21.3025V87.555H21.6625C21.7675 87.555 21.8575 87.535 21.9325 87.495C22.0025 87.455 22.0675 87.38 22.1175 87.26L22.4425 86.5H22.9075L22.5725 87.245C22.5325 87.33 22.4975 87.4 22.4625 87.455C22.4275 87.51 22.3925 87.555 22.3575 87.585C22.3225 87.62 22.2875 87.645 22.2475 87.66C22.2075 87.68 22.1675 87.69 22.1175 87.695V87.765C22.2225 87.785 22.3075 87.83 22.3725 87.905C22.4375 87.98 22.5075 88.08 22.5875 88.21L23.0475 89H22.5325L22.1025 88.215ZM23.887 89.07C23.777 89.07 23.672 89.06 23.572 89.03C23.472 89.005 23.382 88.965 23.312 88.905C23.237 88.85 23.177 88.78 23.137 88.69C23.092 88.605 23.072 88.5 23.072 88.38C23.072 88.29 23.092 88.19 23.132 88.08C23.172 87.975 23.262 87.875 23.392 87.785C23.522 87.695 23.707 87.62 23.947 87.56C24.187 87.5 24.502 87.47 24.897 87.47V87.38C24.897 87.31 24.882 87.235 24.857 87.165C24.832 87.095 24.792 87.035 24.742 86.98C24.687 86.925 24.617 86.88 24.527 86.85C24.437 86.82 24.332 86.8 24.212 86.8C23.977 86.8 23.802 86.855 23.687 86.965C23.572 87.075 23.517 87.215 23.517 87.385H23.087C23.087 87.225 23.117 87.08 23.182 86.96C23.242 86.84 23.327 86.745 23.432 86.665C23.532 86.585 23.652 86.53 23.787 86.49C23.917 86.45 24.057 86.43 24.197 86.43C24.402 86.43 24.577 86.455 24.722 86.505C24.862 86.555 24.982 86.625 25.072 86.715C25.162 86.805 25.227 86.915 25.267 87.035C25.307 87.16 25.327 87.295 25.327 87.445V88.1C25.327 88.225 25.327 88.33 25.332 88.42C25.337 88.51 25.347 88.59 25.357 88.66C25.367 88.73 25.377 88.795 25.392 88.845C25.402 88.9 25.417 88.95 25.432 89H24.992C24.962 88.935 24.942 88.855 24.932 88.765C24.922 88.675 24.912 88.595 24.912 88.525H24.857C24.777 88.68 24.652 88.81 24.482 88.915C24.312 89.02 24.112 89.07 23.887 89.07ZM23.947 88.71C24.077 88.71 24.197 88.69 24.317 88.645C24.432 88.6 24.532 88.54 24.617 88.465C24.702 88.395 24.772 88.315 24.822 88.225C24.872 88.135 24.897 88.045 24.897 87.955V87.78C24.617 87.79 24.392 87.81 24.212 87.84C24.032 87.875 23.892 87.92 23.787 87.97C23.682 88.02 23.607 88.08 23.567 88.15C23.527 88.22 23.507 88.29 23.507 88.36C23.507 88.48 23.547 88.57 23.632 88.625C23.712 88.685 23.817 88.71 23.947 88.71ZM27.902 86.5C28.202 86.5 28.422 86.565 28.557 86.685C28.687 86.805 28.757 86.96 28.757 87.15C28.757 87.21 28.747 87.265 28.727 87.32C28.707 87.38 28.677 87.43 28.642 87.48C28.602 87.53 28.557 87.575 28.507 87.61C28.457 87.65 28.397 87.67 28.332 87.68V87.75C28.427 87.77 28.507 87.8 28.572 87.84C28.637 87.88 28.687 87.925 28.727 87.975C28.767 88.025 28.792 88.085 28.812 88.145C28.827 88.21 28.837 88.275 28.837 88.335C28.837 88.54 28.767 88.7 28.637 88.82C28.507 88.94 28.297 89 28.017 89H26.752V86.5H27.902ZM27.182 86.87V87.55H28.002C28.127 87.55 28.217 87.52 28.267 87.45C28.317 87.38 28.347 87.3 28.347 87.2C28.347 87.1 28.312 87.02 28.247 86.96C28.177 86.9 28.082 86.87 27.952 86.87H27.182ZM27.182 87.905V88.63H27.992C28.137 88.63 28.242 88.6 28.307 88.53C28.367 88.465 28.402 88.38 28.402 88.27C28.402 88.16 28.367 88.07 28.302 88.005C28.237 87.94 28.147 87.905 28.027 87.905H27.182ZM30.2261 89.07C30.0311 89.07 29.8561 89.045 29.6961 88.99C29.5361 88.94 29.4011 88.855 29.2911 88.745C29.1811 88.635 29.0961 88.5 29.0361 88.335C28.9761 88.17 28.9461 87.975 28.9461 87.75C28.9461 87.54 28.9761 87.35 29.0361 87.185C29.0961 87.025 29.1861 86.885 29.2961 86.775C29.4061 86.665 29.5461 86.58 29.7061 86.52C29.8661 86.46 30.0411 86.43 30.2411 86.43C30.4011 86.43 30.5511 86.455 30.6961 86.505C30.8411 86.555 30.9711 86.625 31.0811 86.725C31.1911 86.825 31.2761 86.945 31.3411 87.09C31.4011 87.24 31.4361 87.41 31.4361 87.6C31.4361 87.65 31.4311 87.695 31.4311 87.745C31.4261 87.795 31.4211 87.845 31.4161 87.885H29.3661C29.3661 88.025 29.3861 88.145 29.4361 88.245C29.4811 88.35 29.5411 88.435 29.6211 88.5C29.7011 88.57 29.7911 88.62 29.8911 88.65C29.9911 88.685 30.1011 88.7 30.2161 88.7C30.3461 88.7 30.4561 88.685 30.5511 88.655C30.6411 88.625 30.7211 88.585 30.7811 88.535C30.8411 88.485 30.8861 88.43 30.9161 88.37C30.9461 88.31 30.9711 88.245 30.9861 88.185H31.4061C31.3761 88.345 31.3261 88.485 31.2561 88.595C31.1861 88.705 31.0961 88.795 30.9961 88.865C30.8961 88.935 30.7761 88.99 30.6461 89.02C30.5161 89.055 30.3761 89.07 30.2261 89.07ZM31.0311 87.54C31.0311 87.44 31.0111 87.34 30.9811 87.25C30.9461 87.16 30.8961 87.085 30.8311 87.015C30.7611 86.95 30.6811 86.9 30.5811 86.86C30.4811 86.82 30.3611 86.8 30.2311 86.8C30.1111 86.8 30.0011 86.815 29.9011 86.845C29.7961 86.875 29.7061 86.915 29.6311 86.975C29.5511 87.035 29.4911 87.115 29.4461 87.205C29.3961 87.3 29.3711 87.41 29.3661 87.54H31.0311ZM31.5196 87.46C31.5196 87.18 31.5346 86.925 31.5746 86.695C31.6146 86.465 31.6896 86.27 31.7996 86.1C31.9096 85.93 32.0596 85.795 32.2596 85.69C32.4546 85.59 32.7096 85.52 33.0246 85.49L33.3846 85.455C33.4446 85.45 33.4946 85.445 33.5446 85.435C33.5896 85.43 33.6346 85.425 33.6796 85.415C33.7196 85.41 33.7646 85.405 33.8096 85.395C33.8546 85.385 33.9046 85.375 33.9646 85.365L33.9496 85.77C33.8896 85.78 33.8396 85.79 33.7896 85.795L33.6446 85.815C33.5946 85.825 33.5446 85.83 33.4946 85.835C33.4446 85.845 33.3846 85.85 33.3246 85.855L33.0046 85.885C32.8196 85.905 32.6596 85.94 32.5296 85.99C32.3996 86.04 32.2896 86.115 32.1996 86.21C32.1096 86.31 32.0446 86.43 31.9996 86.58C31.9546 86.73 31.9296 86.915 31.9196 87.125H31.9846C32.0746 86.935 32.2046 86.795 32.3796 86.695C32.5546 86.595 32.7596 86.545 32.9946 86.545C33.1746 86.545 33.3346 86.575 33.4846 86.63C33.6346 86.69 33.7596 86.77 33.8646 86.875C33.9696 86.985 34.0496 87.115 34.1096 87.27C34.1646 87.425 34.1946 87.6 34.1946 87.79C34.1946 88 34.1596 88.185 34.0946 88.345C34.0246 88.505 33.9346 88.64 33.8146 88.745C33.6946 88.855 33.5546 88.935 33.3946 88.99C33.2296 89.045 33.0546 89.07 32.8646 89.07C32.6546 89.07 32.4696 89.04 32.3046 88.97C32.1396 88.905 31.9996 88.805 31.8846 88.67C31.7646 88.54 31.6746 88.37 31.6146 88.17C31.5496 87.97 31.5196 87.73 31.5196 87.46ZM33.7646 87.8C33.7646 87.645 33.7396 87.51 33.6996 87.4C33.6546 87.29 33.5946 87.195 33.5146 87.12C33.4346 87.05 33.3346 86.995 33.2246 86.96C33.1146 86.93 32.9896 86.91 32.8596 86.91C32.7546 86.91 32.6496 86.925 32.5446 86.955C32.4396 86.985 32.3446 87.035 32.2646 87.105C32.1796 87.175 32.1096 87.265 32.0596 87.375C32.0096 87.485 31.9846 87.625 31.9846 87.785C31.9846 87.935 32.0046 88.07 32.0546 88.18C32.1046 88.295 32.1696 88.39 32.2496 88.47C32.3296 88.55 32.4196 88.605 32.5296 88.645C32.6346 88.685 32.7446 88.7 32.8646 88.7C32.9846 88.7 33.0946 88.685 33.2046 88.65C33.3146 88.615 33.4096 88.56 33.4946 88.485C33.5746 88.415 33.6396 88.32 33.6896 88.205C33.7396 88.095 33.7646 87.96 33.7646 87.8ZM35.3236 87.75C35.3236 87.54 35.3536 87.35 35.4186 87.185C35.4786 87.025 35.5686 86.885 35.6836 86.775C35.7986 86.665 35.9336 86.58 36.0936 86.52C36.2536 86.46 36.4286 86.43 36.6186 86.43C36.7886 86.43 36.9486 86.45 37.0936 86.49C37.2386 86.53 37.3636 86.585 37.4686 86.665C37.5686 86.745 37.6486 86.84 37.7086 86.96C37.7636 87.08 37.7936 87.225 37.7936 87.385H37.3736C37.3736 87.205 37.3036 87.06 37.1686 86.955C37.0286 86.855 36.8536 86.8 36.6336 86.8C36.5136 86.8 36.3986 86.82 36.2936 86.86C36.1836 86.9 36.0936 86.955 36.0136 87.035C35.9336 87.115 35.8686 87.215 35.8236 87.335C35.7736 87.455 35.7536 87.595 35.7536 87.755C35.7536 87.915 35.7736 88.055 35.8186 88.175C35.8636 88.295 35.9236 88.39 36.0036 88.47C36.0786 88.55 36.1686 88.605 36.2686 88.645C36.3686 88.685 36.4736 88.7 36.5836 88.7C36.7336 88.7 36.8586 88.685 36.9586 88.645C37.0586 88.61 37.1436 88.565 37.2036 88.505C37.2636 88.445 37.3086 88.38 37.3336 88.31C37.3586 88.24 37.3736 88.165 37.3736 88.095H37.7936C37.7936 88.265 37.7586 88.415 37.6986 88.535C37.6336 88.655 37.5486 88.755 37.4436 88.835C37.3336 88.915 37.2136 88.975 37.0736 89.015C36.9336 89.055 36.7836 89.07 36.6336 89.07C36.4436 89.07 36.2636 89.045 36.1036 88.99C35.9436 88.94 35.8036 88.855 35.6886 88.745C35.5736 88.635 35.4836 88.5 35.4186 88.335C35.3536 88.17 35.3236 87.975 35.3236 87.75ZM39.1526 89.07C38.9576 89.07 38.7826 89.045 38.6226 88.99C38.4626 88.94 38.3276 88.855 38.2176 88.745C38.1076 88.635 38.0226 88.5 37.9626 88.335C37.9026 88.17 37.8726 87.975 37.8726 87.75C37.8726 87.54 37.9026 87.35 37.9626 87.185C38.0226 87.025 38.1126 86.885 38.2226 86.775C38.3326 86.665 38.4726 86.58 38.6326 86.52C38.7926 86.46 38.9676 86.43 39.1676 86.43C39.3276 86.43 39.4776 86.455 39.6226 86.505C39.7676 86.555 39.8976 86.625 40.0076 86.725C40.1176 86.825 40.2026 86.945 40.2676 87.09C40.3276 87.24 40.3626 87.41 40.3626 87.6C40.3626 87.65 40.3576 87.695 40.3576 87.745C40.3526 87.795 40.3476 87.845 40.3426 87.885H38.2926C38.2926 88.025 38.3126 88.145 38.3626 88.245C38.4076 88.35 38.4676 88.435 38.5476 88.5C38.6276 88.57 38.7176 88.62 38.8176 88.65C38.9176 88.685 39.0276 88.7 39.1426 88.7C39.2726 88.7 39.3826 88.685 39.4776 88.655C39.5676 88.625 39.6476 88.585 39.7076 88.535C39.7676 88.485 39.8126 88.43 39.8426 88.37C39.8726 88.31 39.8976 88.245 39.9126 88.185H40.3326C40.3026 88.345 40.2526 88.485 40.1826 88.595C40.1126 88.705 40.0226 88.795 39.9226 88.865C39.8226 88.935 39.7026 88.99 39.5726 89.02C39.4426 89.055 39.3026 89.07 39.1526 89.07ZM39.9576 87.54C39.9576 87.44 39.9376 87.34 39.9076 87.25C39.8726 87.16 39.8226 87.085 39.7576 87.015C39.6876 86.95 39.6076 86.9 39.5076 86.86C39.4076 86.82 39.2876 86.8 39.1576 86.8C39.0376 86.8 38.9276 86.815 38.8276 86.845C38.7226 86.875 38.6326 86.915 38.5576 86.975C38.4776 87.035 38.4176 87.115 38.3726 87.205C38.3226 87.3 38.2976 87.41 38.2926 87.54H39.9576ZM40.9712 86.5L40.9962 86.95H41.0562C41.1662 86.76 41.3012 86.625 41.4662 86.545C41.6262 86.47 41.8062 86.43 41.9962 86.43C42.1612 86.43 42.3162 86.46 42.4612 86.52C42.6012 86.58 42.7262 86.665 42.8312 86.775C42.9312 86.89 43.0112 87.03 43.0712 87.19C43.1312 87.35 43.1612 87.535 43.1612 87.745C43.1612 87.965 43.1312 88.155 43.0712 88.32C43.0112 88.485 42.9262 88.625 42.8212 88.735C42.7112 88.845 42.5862 88.93 42.4412 88.985C42.2962 89.045 42.1362 89.07 41.9662 89.07C41.7962 89.07 41.6312 89.035 41.4662 88.96C41.3012 88.885 41.1662 88.76 41.0562 88.58H40.9962L41.0162 88.95V89.9H40.5862V86.5H40.9712ZM42.7312 87.755C42.7312 87.585 42.7062 87.44 42.6662 87.315C42.6262 87.195 42.5662 87.09 42.4912 87.01C42.4162 86.93 42.3262 86.875 42.2262 86.835C42.1212 86.8 42.0112 86.78 41.8912 86.78C41.7712 86.78 41.6612 86.8 41.5562 86.83C41.4462 86.865 41.3562 86.92 41.2762 86.995C41.1962 87.075 41.1312 87.175 41.0862 87.295C41.0362 87.42 41.0162 87.575 41.0162 87.755C41.0162 87.935 41.0362 88.09 41.0862 88.21C41.1312 88.33 41.1962 88.43 41.2762 88.505C41.3562 88.585 41.4462 88.64 41.5562 88.67C41.6612 88.705 41.7712 88.72 41.8912 88.72C42.0112 88.72 42.1212 88.705 42.2262 88.665C42.3262 88.63 42.4162 88.575 42.4912 88.495C42.5662 88.415 42.6262 88.315 42.6662 88.195C42.7062 88.075 42.7312 87.925 42.7312 87.755ZM44.5342 86.5C44.8342 86.5 45.0542 86.565 45.1892 86.685C45.3192 86.805 45.3892 86.96 45.3892 87.15C45.3892 87.21 45.3792 87.265 45.3592 87.32C45.3392 87.38 45.3092 87.43 45.2742 87.48C45.2342 87.53 45.1892 87.575 45.1392 87.61C45.0892 87.65 45.0292 87.67 44.9642 87.68V87.75C45.0592 87.77 45.1392 87.8 45.2042 87.84C45.2692 87.88 45.3192 87.925 45.3592 87.975C45.3992 88.025 45.4242 88.085 45.4442 88.145C45.4592 88.21 45.4692 88.275 45.4692 88.335C45.4692 88.54 45.3992 88.7 45.2692 88.82C45.1392 88.94 44.9292 89 44.6492 89H43.3842V86.5H44.5342ZM43.8142 86.87V87.55H44.6342C44.7592 87.55 44.8492 87.52 44.8992 87.45C44.9492 87.38 44.9792 87.3 44.9792 87.2C44.9792 87.1 44.9442 87.02 44.8792 86.96C44.8092 86.9 44.7142 86.87 44.5842 86.87H43.8142ZM43.8142 87.905V88.63H44.6242C44.7692 88.63 44.8742 88.6 44.9392 88.53C44.9992 88.465 45.0342 88.38 45.0342 88.27C45.0342 88.16 44.9992 88.07 44.9342 88.005C44.8692 87.94 44.7792 87.905 44.6592 87.905H43.8142ZM46.2021 86.5V88.605H46.2571L47.3121 86.5H47.9421V89H47.5121V86.97H47.4571L46.4321 89H45.7721V86.5H46.2021ZM48.1664 87.75C48.1664 87.54 48.1964 87.35 48.2614 87.185C48.3214 87.025 48.4114 86.885 48.5264 86.775C48.6414 86.665 48.7764 86.58 48.9364 86.52C49.0964 86.46 49.2714 86.43 49.4614 86.43C49.6314 86.43 49.7914 86.45 49.9364 86.49C50.0814 86.53 50.2064 86.585 50.3114 86.665C50.4114 86.745 50.4914 86.84 50.5514 86.96C50.6064 87.08 50.6364 87.225 50.6364 87.385H50.2164C50.2164 87.205 50.1464 87.06 50.0114 86.955C49.8714 86.855 49.6964 86.8 49.4764 86.8C49.3564 86.8 49.2414 86.82 49.1364 86.86C49.0264 86.9 48.9364 86.955 48.8564 87.035C48.7764 87.115 48.7114 87.215 48.6664 87.335C48.6164 87.455 48.5964 87.595 48.5964 87.755C48.5964 87.915 48.6164 88.055 48.6614 88.175C48.7064 88.295 48.7664 88.39 48.8464 88.47C48.9214 88.55 49.0114 88.605 49.1114 88.645C49.2114 88.685 49.3164 88.7 49.4264 88.7C49.5764 88.7 49.7014 88.685 49.8014 88.645C49.9014 88.61 49.9864 88.565 50.0464 88.505C50.1064 88.445 50.1514 88.38 50.1764 88.31C50.2014 88.24 50.2164 88.165 50.2164 88.095H50.6364C50.6364 88.265 50.6014 88.415 50.5414 88.535C50.4764 88.655 50.3914 88.755 50.2864 88.835C50.1764 88.915 50.0564 88.975 49.9164 89.015C49.7764 89.055 49.6264 89.07 49.4764 89.07C49.2864 89.07 49.1064 89.045 48.9464 88.99C48.7864 88.94 48.6464 88.855 48.5314 88.745C48.4164 88.635 48.3264 88.5 48.2614 88.335C48.1964 88.17 48.1664 87.975 48.1664 87.75ZM50.7154 87.745C50.7154 87.54 50.7454 87.355 50.8154 87.19C50.8804 87.03 50.9704 86.89 51.0904 86.78C51.2054 86.67 51.3454 86.58 51.5054 86.52C51.6654 86.46 51.8454 86.43 52.0354 86.43C52.2254 86.43 52.4004 86.46 52.5604 86.52C52.7204 86.58 52.8604 86.67 52.9804 86.78C53.0954 86.89 53.1854 87.03 53.2554 87.19C53.3204 87.355 53.3554 87.54 53.3554 87.745C53.3554 87.965 53.3204 88.155 53.2554 88.32C53.1854 88.485 53.0954 88.625 52.9804 88.735C52.8604 88.845 52.7204 88.93 52.5604 88.985C52.4004 89.045 52.2254 89.07 52.0354 89.07C51.8454 89.07 51.6654 89.045 51.5054 88.985C51.3454 88.93 51.2054 88.845 51.0904 88.735C50.9704 88.625 50.8804 88.485 50.8154 88.32C50.7454 88.155 50.7154 87.965 50.7154 87.745ZM52.9254 87.755C52.9254 87.59 52.9004 87.445 52.8504 87.325C52.8004 87.205 52.7354 87.11 52.6554 87.03C52.5754 86.95 52.4804 86.895 52.3754 86.855C52.2654 86.82 52.1554 86.8 52.0354 86.8C51.9154 86.8 51.8004 86.82 51.6954 86.855C51.5854 86.895 51.4904 86.95 51.4104 87.03C51.3304 87.11 51.2654 87.205 51.2154 87.325C51.1654 87.445 51.1454 87.59 51.1454 87.755C51.1454 87.925 51.1654 88.065 51.2154 88.185C51.2654 88.305 51.3304 88.4 51.4104 88.475C51.4904 88.555 51.5854 88.61 51.6954 88.645C51.8004 88.685 51.9154 88.7 52.0354 88.7C52.1554 88.7 52.2654 88.685 52.3754 88.645C52.4804 88.61 52.5754 88.555 52.6554 88.475C52.7354 88.4 52.8004 88.305 52.8504 88.185C52.9004 88.065 52.9254 87.925 52.9254 87.755ZM54.7303 86.5C55.0303 86.5 55.2503 86.565 55.3853 86.685C55.5153 86.805 55.5853 86.96 55.5853 87.15C55.5853 87.21 55.5753 87.265 55.5553 87.32C55.5353 87.38 55.5053 87.43 55.4703 87.48C55.4303 87.53 55.3853 87.575 55.3353 87.61C55.2853 87.65 55.2253 87.67 55.1603 87.68V87.75C55.2553 87.77 55.3353 87.8 55.4003 87.84C55.4653 87.88 55.5153 87.925 55.5553 87.975C55.5953 88.025 55.6203 88.085 55.6403 88.145C55.6553 88.21 55.6653 88.275 55.6653 88.335C55.6653 88.54 55.5953 88.7 55.4653 88.82C55.3353 88.94 55.1253 89 54.8453 89H53.5803V86.5H54.7303ZM54.0103 86.87V87.55H54.8303C54.9553 87.55 55.0453 87.52 55.0953 87.45C55.1453 87.38 55.1753 87.3 55.1753 87.2C55.1753 87.1 55.1403 87.02 55.0753 86.96C55.0053 86.9 54.9103 86.87 54.7803 86.87H54.0103ZM54.0103 87.905V88.63H54.8203C54.9653 88.63 55.0703 88.6 55.1353 88.53C55.1953 88.465 55.2303 88.38 55.2303 88.27C55.2303 88.16 55.1953 88.07 55.1303 88.005C55.0653 87.94 54.9753 87.905 54.8553 87.905H54.0103ZM55.9232 88.7C55.9232 88.6 55.9532 88.515 56.0182 88.445C56.0832 88.38 56.1732 88.345 56.2932 88.345C56.4082 88.345 56.4982 88.38 56.5632 88.445C56.6282 88.515 56.6632 88.595 56.6632 88.695C56.6632 88.815 56.6282 88.905 56.5632 88.97C56.4982 89.04 56.4082 89.07 56.2932 89.07C56.1732 89.07 56.0832 89.04 56.0182 88.97C55.9532 88.905 55.9232 88.815 55.9232 88.7ZM58.9035 85.5C59.2535 85.5 59.5335 85.575 59.7335 85.725C59.9335 85.875 60.0335 86.1 60.0335 86.4C60.0335 86.51 60.0185 86.6 59.9885 86.68C59.9585 86.76 59.9185 86.83 59.8685 86.89C59.8185 86.95 59.7635 87 59.7035 87.04C59.6435 87.08 59.5835 87.11 59.5235 87.13V87.22C59.5985 87.245 59.6735 87.28 59.7435 87.32C59.8135 87.36 59.8785 87.415 59.9335 87.48C59.9885 87.545 60.0335 87.62 60.0685 87.71C60.0985 87.8 60.1185 87.905 60.1185 88.02C60.1185 88.35 60.0085 88.595 59.7985 88.755C59.5885 88.92 59.2985 89 58.9385 89H57.6385V85.5H58.9035ZM59.0085 87.005C59.1685 87.005 59.3085 86.965 59.4185 86.875C59.5285 86.79 59.5835 86.645 59.5835 86.445C59.5835 86.345 59.5635 86.255 59.5335 86.185C59.5035 86.115 59.4585 86.06 59.3985 86.02C59.3385 85.98 59.2735 85.95 59.1985 85.93C59.1185 85.91 59.0385 85.9 58.9485 85.9H58.0885V87.005H59.0085ZM58.9835 88.6C59.0785 88.6 59.1685 88.59 59.2535 88.57C59.3335 88.55 59.4085 88.515 59.4685 88.465C59.5285 88.415 59.5735 88.355 59.6085 88.275C59.6435 88.195 59.6635 88.1 59.6635 87.98C59.6635 87.88 59.6435 87.79 59.6135 87.715C59.5785 87.645 59.5335 87.585 59.4785 87.535C59.4235 87.49 59.3585 87.455 59.2885 87.43C59.2135 87.41 59.1335 87.395 59.0535 87.395H58.0885V88.6H58.9835ZM61.0827 89.07C60.9727 89.07 60.8677 89.06 60.7677 89.03C60.6677 89.005 60.5777 88.965 60.5077 88.905C60.4327 88.85 60.3727 88.78 60.3327 88.69C60.2877 88.605 60.2677 88.5 60.2677 88.38C60.2677 88.29 60.2877 88.19 60.3277 88.08C60.3677 87.975 60.4577 87.875 60.5877 87.785C60.7177 87.695 60.9027 87.62 61.1427 87.56C61.3827 87.5 61.6977 87.47 62.0927 87.47V87.38C62.0927 87.31 62.0777 87.235 62.0527 87.165C62.0277 87.095 61.9877 87.035 61.9377 86.98C61.8827 86.925 61.8127 86.88 61.7227 86.85C61.6327 86.82 61.5277 86.8 61.4077 86.8C61.1727 86.8 60.9977 86.855 60.8827 86.965C60.7677 87.075 60.7127 87.215 60.7127 87.385H60.2827C60.2827 87.225 60.3127 87.08 60.3777 86.96C60.4377 86.84 60.5227 86.745 60.6277 86.665C60.7277 86.585 60.8477 86.53 60.9827 86.49C61.1127 86.45 61.2527 86.43 61.3927 86.43C61.5977 86.43 61.7727 86.455 61.9177 86.505C62.0577 86.555 62.1777 86.625 62.2677 86.715C62.3577 86.805 62.4227 86.915 62.4627 87.035C62.5027 87.16 62.5227 87.295 62.5227 87.445V88.1C62.5227 88.225 62.5227 88.33 62.5277 88.42C62.5327 88.51 62.5427 88.59 62.5527 88.66C62.5627 88.73 62.5727 88.795 62.5877 88.845C62.5977 88.9 62.6127 88.95 62.6277 89H62.1877C62.1577 88.935 62.1377 88.855 62.1277 88.765C62.1177 88.675 62.1077 88.595 62.1077 88.525H62.0527C61.9727 88.68 61.8477 88.81 61.6777 88.915C61.5077 89.02 61.3077 89.07 61.0827 89.07ZM61.1427 88.71C61.2727 88.71 61.3927 88.69 61.5127 88.645C61.6277 88.6 61.7277 88.54 61.8127 88.465C61.8977 88.395 61.9677 88.315 62.0177 88.225C62.0677 88.135 62.0927 88.045 62.0927 87.955V87.78C61.8127 87.79 61.5877 87.81 61.4077 87.84C61.2277 87.875 61.0877 87.92 60.9827 87.97C60.8777 88.02 60.8027 88.08 60.7627 88.15C60.7227 88.22 60.7027 88.29 60.7027 88.36C60.7027 88.48 60.7427 88.57 60.8277 88.625C60.9077 88.685 61.0127 88.71 61.1427 88.71ZM63.3277 86.5V88.63H64.2977V86.5H64.7177V88.63H65.6877V86.5H66.1177V89H62.8977V86.5H63.3277ZM66.9168 86.5V88.605H66.9718L68.0268 86.5H68.6568V89H68.2268V86.97H68.1718L67.1468 89H66.4868V86.5H66.9168ZM69.981 88.095H70.401V88.115C70.401 88.225 70.416 88.32 70.456 88.39C70.496 88.465 70.546 88.525 70.616 88.57C70.681 88.615 70.756 88.645 70.846 88.665C70.936 88.685 71.026 88.695 71.126 88.695C71.256 88.695 71.366 88.685 71.446 88.655C71.526 88.63 71.586 88.595 71.631 88.555C71.671 88.515 71.701 88.47 71.716 88.42C71.726 88.37 71.736 88.325 71.736 88.275C71.736 88.22 71.726 88.17 71.706 88.12C71.686 88.07 71.656 88.03 71.611 87.995C71.566 87.96 71.506 87.935 71.431 87.915C71.351 87.9 71.256 87.895 71.146 87.895L70.821 87.91V87.525L71.141 87.54C71.246 87.55 71.336 87.54 71.406 87.52C71.476 87.5 71.531 87.475 71.571 87.44C71.611 87.405 71.636 87.365 71.656 87.315C71.671 87.265 71.681 87.215 71.681 87.16C71.681 87.06 71.631 86.975 71.541 86.905C71.451 86.835 71.291 86.8 71.061 86.8C70.941 86.8 70.841 86.82 70.761 86.85C70.676 86.88 70.606 86.925 70.551 86.98C70.496 87.035 70.456 87.095 70.431 87.165C70.401 87.235 70.391 87.31 70.391 87.385H69.971C69.971 87.225 70.001 87.09 70.061 86.97C70.121 86.85 70.201 86.75 70.301 86.67C70.401 86.59 70.516 86.53 70.646 86.49C70.776 86.45 70.916 86.43 71.066 86.43C71.251 86.43 71.411 86.45 71.541 86.49C71.671 86.53 71.781 86.585 71.866 86.65C71.946 86.715 72.006 86.79 72.046 86.875C72.086 86.965 72.106 87.05 72.106 87.14C72.106 87.28 72.066 87.4 71.991 87.495C71.911 87.595 71.796 87.655 71.636 87.68V87.745C71.826 87.785 71.961 87.85 72.046 87.95C72.126 88.05 72.171 88.17 72.171 88.305C72.171 88.415 72.146 88.52 72.106 88.61C72.066 88.705 72.001 88.785 71.916 88.855C71.826 88.925 71.716 88.975 71.586 89.015C71.451 89.055 71.291 89.07 71.111 89.07C70.961 89.07 70.821 89.055 70.686 89.02C70.546 88.985 70.426 88.93 70.321 88.855C70.216 88.78 70.131 88.68 70.071 88.56C70.011 88.44 69.981 88.29 69.981 88.115V88.095ZM73.1687 89.07C73.0587 89.07 72.9537 89.06 72.8537 89.03C72.7537 89.005 72.6637 88.965 72.5937 88.905C72.5187 88.85 72.4587 88.78 72.4187 88.69C72.3737 88.605 72.3537 88.5 72.3537 88.38C72.3537 88.29 72.3737 88.19 72.4137 88.08C72.4537 87.975 72.5437 87.875 72.6737 87.785C72.8037 87.695 72.9887 87.62 73.2287 87.56C73.4687 87.5 73.7837 87.47 74.1787 87.47V87.38C74.1787 87.31 74.1637 87.235 74.1387 87.165C74.1137 87.095 74.0737 87.035 74.0237 86.98C73.9687 86.925 73.8987 86.88 73.8087 86.85C73.7187 86.82 73.6137 86.8 73.4937 86.8C73.2587 86.8 73.0837 86.855 72.9687 86.965C72.8537 87.075 72.7987 87.215 72.7987 87.385H72.3687C72.3687 87.225 72.3987 87.08 72.4637 86.96C72.5237 86.84 72.6087 86.745 72.7137 86.665C72.8137 86.585 72.9337 86.53 73.0687 86.49C73.1987 86.45 73.3387 86.43 73.4787 86.43C73.6837 86.43 73.8587 86.455 74.0037 86.505C74.1437 86.555 74.2637 86.625 74.3537 86.715C74.4437 86.805 74.5087 86.915 74.5487 87.035C74.5887 87.16 74.6087 87.295 74.6087 87.445V88.1C74.6087 88.225 74.6087 88.33 74.6137 88.42C74.6187 88.51 74.6287 88.59 74.6387 88.66C74.6487 88.73 74.6587 88.795 74.6737 88.845C74.6837 88.9 74.6987 88.95 74.7137 89H74.2737C74.2437 88.935 74.2237 88.855 74.2137 88.765C74.2037 88.675 74.1937 88.595 74.1937 88.525H74.1387C74.0587 88.68 73.9337 88.81 73.7637 88.915C73.5937 89.02 73.3937 89.07 73.1687 89.07ZM73.2287 88.71C73.3587 88.71 73.4787 88.69 73.5987 88.645C73.7137 88.6 73.8137 88.54 73.8987 88.465C73.9837 88.395 74.0537 88.315 74.1037 88.225C74.1537 88.135 74.1787 88.045 74.1787 87.955V87.78C73.8987 87.79 73.6737 87.81 73.4937 87.84C73.3137 87.875 73.1737 87.92 73.0687 87.97C72.9637 88.02 72.8887 88.08 72.8487 88.15C72.8087 88.22 72.7887 88.29 72.7887 88.36C72.7887 88.48 72.8287 88.57 72.9137 88.625C72.9937 88.685 73.0987 88.71 73.2287 88.71ZM75.0736 88.63C75.1336 88.535 75.1886 88.395 75.2386 88.205C75.2836 88.015 75.3186 87.75 75.3486 87.41L75.3886 86.87L75.4036 86.5H77.1836V88.63H77.5336V89.615H77.1036V89H75.1836V89.615H74.7536V88.63H75.0736ZM76.7536 86.87H75.7836L75.7386 87.435C75.7136 87.705 75.6836 87.94 75.6536 88.14C75.6236 88.34 75.5736 88.505 75.5086 88.63H76.7536V86.87ZM78.4572 89.07C78.3472 89.07 78.2422 89.06 78.1421 89.03C78.0421 89.005 77.9521 88.965 77.8821 88.905C77.8071 88.85 77.7471 88.78 77.7071 88.69C77.6621 88.605 77.6421 88.5 77.6421 88.38C77.6421 88.29 77.6621 88.19 77.7021 88.08C77.7421 87.975 77.8321 87.875 77.9621 87.785C78.0921 87.695 78.2772 87.62 78.5171 87.56C78.7572 87.5 79.0721 87.47 79.4672 87.47V87.38C79.4672 87.31 79.4522 87.235 79.4272 87.165C79.4022 87.095 79.3621 87.035 79.3122 86.98C79.2571 86.925 79.1872 86.88 79.0971 86.85C79.0072 86.82 78.9022 86.8 78.7822 86.8C78.5472 86.8 78.3721 86.855 78.2571 86.965C78.1421 87.075 78.0872 87.215 78.0872 87.385H77.6571C77.6571 87.225 77.6871 87.08 77.7521 86.96C77.8121 86.84 77.8971 86.745 78.0021 86.665C78.1021 86.585 78.2221 86.53 78.3572 86.49C78.4871 86.45 78.6271 86.43 78.7672 86.43C78.9722 86.43 79.1472 86.455 79.2921 86.505C79.4322 86.555 79.5522 86.625 79.6422 86.715C79.7322 86.805 79.7972 86.915 79.8372 87.035C79.8772 87.16 79.8972 87.295 79.8972 87.445V88.1C79.8972 88.225 79.8972 88.33 79.9022 88.42C79.9072 88.51 79.9172 88.59 79.9272 88.66C79.9372 88.73 79.9472 88.795 79.9622 88.845C79.9722 88.9 79.9872 88.95 80.0021 89H79.5622C79.5322 88.935 79.5121 88.855 79.5022 88.765C79.4922 88.675 79.4822 88.595 79.4822 88.525H79.4272C79.3472 88.68 79.2221 88.81 79.0522 88.915C78.8822 89.02 78.6822 89.07 78.4572 89.07ZM78.5171 88.71C78.6472 88.71 78.7672 88.69 78.8871 88.645C79.0021 88.6 79.1022 88.54 79.1872 88.465C79.2722 88.395 79.3422 88.315 79.3922 88.225C79.4421 88.135 79.4672 88.045 79.4672 87.955V87.78C79.1872 87.79 78.9622 87.81 78.7822 87.84C78.6022 87.875 78.4622 87.92 78.3572 87.97C78.2521 88.02 78.1771 88.08 78.1371 88.15C78.0971 88.22 78.0771 88.29 78.0771 88.36C78.0771 88.48 78.1171 88.57 78.2022 88.625C78.2822 88.685 78.3872 88.71 78.5171 88.71ZM80.1633 86.5H80.5933V87.255C80.5933 87.465 80.6383 87.62 80.7383 87.71C80.8383 87.805 80.9833 87.85 81.1783 87.85C81.4133 87.85 81.6233 87.805 81.8133 87.71V86.5H82.2433V89H81.8133V88.06C81.7333 88.1 81.6383 88.14 81.5233 88.17C81.4033 88.2 81.2733 88.215 81.1233 88.215C80.9433 88.215 80.7933 88.195 80.6733 88.145C80.5483 88.095 80.4483 88.03 80.3733 87.945C80.2983 87.86 80.2433 87.76 80.2133 87.64C80.1783 87.525 80.1633 87.4 80.1633 87.26V86.5ZM83.0412 86.5V88.605H83.0962L84.1512 86.5H84.7812V89H84.3512V86.97H84.2962L83.2712 89H82.6112V86.5H83.0412ZM85.4754 88.395C85.5754 88.395 85.6554 88.42 85.7054 88.465C85.7554 88.51 85.7854 88.57 85.7854 88.645C85.7854 88.705 85.7704 88.78 85.7404 88.88C85.7104 88.98 85.6804 89.08 85.6504 89.17L85.5104 89.615H85.2154V88.395H85.4754ZM87.2507 86.5V87.535H88.5107V86.5H88.9407V89H88.5107V87.905H87.2507V89H86.8207V86.5H87.2507ZM90.0062 89.07C89.8962 89.07 89.7912 89.06 89.6912 89.03C89.5912 89.005 89.5012 88.965 89.4312 88.905C89.3562 88.85 89.2962 88.78 89.2562 88.69C89.2112 88.605 89.1912 88.5 89.1912 88.38C89.1912 88.29 89.2112 88.19 89.2512 88.08C89.2912 87.975 89.3812 87.875 89.5112 87.785C89.6412 87.695 89.8262 87.62 90.0662 87.56C90.3062 87.5 90.6212 87.47 91.0162 87.47V87.38C91.0162 87.31 91.0012 87.235 90.9762 87.165C90.9512 87.095 90.9112 87.035 90.8612 86.98C90.8062 86.925 90.7362 86.88 90.6462 86.85C90.5562 86.82 90.4512 86.8 90.3312 86.8C90.0962 86.8 89.9212 86.855 89.8062 86.965C89.6912 87.075 89.6362 87.215 89.6362 87.385H89.2062C89.2062 87.225 89.2362 87.08 89.3012 86.96C89.3612 86.84 89.4462 86.745 89.5512 86.665C89.6512 86.585 89.7712 86.53 89.9062 86.49C90.0362 86.45 90.1762 86.43 90.3162 86.43C90.5212 86.43 90.6962 86.455 90.8412 86.505C90.9812 86.555 91.1012 86.625 91.1912 86.715C91.2812 86.805 91.3462 86.915 91.3862 87.035C91.4262 87.16 91.4462 87.295 91.4462 87.445V88.1C91.4462 88.225 91.4462 88.33 91.4512 88.42C91.4562 88.51 91.4662 88.59 91.4762 88.66C91.4862 88.73 91.4962 88.795 91.5112 88.845C91.5212 88.9 91.5362 88.95 91.5512 89H91.1112C91.0812 88.935 91.0612 88.855 91.0512 88.765C91.0412 88.675 91.0312 88.595 91.0312 88.525H90.9762C90.8962 88.68 90.7712 88.81 90.6012 88.915C90.4312 89.02 90.2312 89.07 90.0062 89.07ZM90.0662 88.71C90.1962 88.71 90.3162 88.69 90.4362 88.645C90.5512 88.6 90.6512 88.54 90.7362 88.465C90.8212 88.395 90.8912 88.315 90.9412 88.225C90.9912 88.135 91.0162 88.045 91.0162 87.955V87.78C90.7362 87.79 90.5112 87.81 90.3312 87.84C90.1512 87.875 90.0112 87.92 89.9062 87.97C89.8012 88.02 89.7262 88.08 89.6862 88.15C89.6462 88.22 89.6262 88.29 89.6262 88.36C89.6262 88.48 89.6662 88.57 89.7512 88.625C89.8312 88.685 89.9362 88.71 90.0662 88.71ZM92.2511 86.5V88.63H93.2211V86.5H93.6411V88.63H94.6111V86.5H95.0411V89H91.8211V86.5H92.2511ZM96.8452 86.5L96.8702 86.95H96.9302C97.0402 86.76 97.1752 86.625 97.3402 86.545C97.5002 86.47 97.6802 86.43 97.8702 86.43C98.0352 86.43 98.1902 86.46 98.3352 86.52C98.4752 86.58 98.6002 86.665 98.7052 86.775C98.8052 86.89 98.8852 87.03 98.9452 87.19C99.0052 87.35 99.0352 87.535 99.0352 87.745C99.0352 87.965 99.0052 88.155 98.9452 88.32C98.8852 88.485 98.8002 88.625 98.6952 88.735C98.5852 88.845 98.4602 88.93 98.3152 88.985C98.1702 89.045 98.0102 89.07 97.8402 89.07C97.6702 89.07 97.5052 89.035 97.3402 88.96C97.1752 88.885 97.0402 88.76 96.9302 88.58H96.8702L96.8902 88.95V89.9H96.4602V86.5H96.8452ZM98.6052 87.755C98.6052 87.585 98.5802 87.44 98.5402 87.315C98.5002 87.195 98.4402 87.09 98.3652 87.01C98.2902 86.93 98.2002 86.875 98.1002 86.835C97.9952 86.8 97.8852 86.78 97.7652 86.78C97.6452 86.78 97.5352 86.8 97.4302 86.83C97.3202 86.865 97.2302 86.92 97.1502 86.995C97.0702 87.075 97.0052 87.175 96.9602 87.295C96.9102 87.42 96.8902 87.575 96.8902 87.755C96.8902 87.935 96.9102 88.09 96.9602 88.21C97.0052 88.33 97.0702 88.43 97.1502 88.505C97.2302 88.585 97.3202 88.64 97.4302 88.67C97.5352 88.705 97.6452 88.72 97.7652 88.72C97.8852 88.72 97.9952 88.705 98.1002 88.665C98.2002 88.63 98.2902 88.575 98.3652 88.495C98.4402 88.415 98.5002 88.315 98.5402 88.195C98.5802 88.075 98.6052 87.925 98.6052 87.755ZM100.393 89.07C100.198 89.07 100.023 89.045 99.8632 88.99C99.7032 88.94 99.5682 88.855 99.4582 88.745C99.3482 88.635 99.2632 88.5 99.2032 88.335C99.1432 88.17 99.1132 87.975 99.1132 87.75C99.1132 87.54 99.1432 87.35 99.2032 87.185C99.2632 87.025 99.3532 86.885 99.4632 86.775C99.5732 86.665 99.7132 86.58 99.8732 86.52C100.033 86.46 100.208 86.43 100.408 86.43C100.568 86.43 100.718 86.455 100.863 86.505C101.008 86.555 101.138 86.625 101.248 86.725C101.358 86.825 101.443 86.945 101.508 87.09C101.568 87.24 101.603 87.41 101.603 87.6C101.603 87.65 101.598 87.695 101.598 87.745C101.593 87.795 101.588 87.845 101.583 87.885H99.5332C99.5332 88.025 99.5532 88.145 99.6032 88.245C99.6482 88.35 99.7082 88.435 99.7882 88.5C99.8682 88.57 99.9582 88.62 100.058 88.65C100.158 88.685 100.268 88.7 100.383 88.7C100.513 88.7 100.623 88.685 100.718 88.655C100.808 88.625 100.888 88.585 100.948 88.535C101.008 88.485 101.053 88.43 101.083 88.37C101.113 88.31 101.138 88.245 101.153 88.185H101.573C101.543 88.345 101.493 88.485 101.423 88.595C101.353 88.705 101.263 88.795 101.163 88.865C101.063 88.935 100.943 88.99 100.813 89.02C100.683 89.055 100.543 89.07 100.393 89.07ZM101.198 87.54C101.198 87.44 101.178 87.34 101.148 87.25C101.113 87.16 101.063 87.085 100.998 87.015C100.928 86.95 100.848 86.9 100.748 86.86C100.648 86.82 100.528 86.8 100.398 86.8C100.278 86.8 100.168 86.815 100.068 86.845C99.9632 86.875 99.8732 86.915 99.7982 86.975C99.7182 87.035 99.6582 87.115 99.6132 87.205C99.5632 87.3 99.5382 87.41 99.5332 87.54H101.198ZM101.732 88.095H102.152V88.115C102.152 88.225 102.167 88.32 102.207 88.39C102.247 88.465 102.297 88.525 102.367 88.57C102.432 88.615 102.507 88.645 102.597 88.665C102.687 88.685 102.777 88.695 102.877 88.695C103.007 88.695 103.117 88.685 103.197 88.655C103.277 88.63 103.337 88.595 103.382 88.555C103.422 88.515 103.452 88.47 103.467 88.42C103.477 88.37 103.487 88.325 103.487 88.275C103.487 88.22 103.477 88.17 103.457 88.12C103.437 88.07 103.407 88.03 103.362 87.995C103.317 87.96 103.257 87.935 103.182 87.915C103.102 87.9 103.007 87.895 102.897 87.895L102.572 87.91V87.525L102.892 87.54C102.997 87.55 103.087 87.54 103.157 87.52C103.227 87.5 103.282 87.475 103.322 87.44C103.362 87.405 103.387 87.365 103.407 87.315C103.422 87.265 103.432 87.215 103.432 87.16C103.432 87.06 103.382 86.975 103.292 86.905C103.202 86.835 103.042 86.8 102.812 86.8C102.692 86.8 102.592 86.82 102.512 86.85C102.427 86.88 102.357 86.925 102.302 86.98C102.247 87.035 102.207 87.095 102.182 87.165C102.152 87.235 102.142 87.31 102.142 87.385H101.722C101.722 87.225 101.752 87.09 101.812 86.97C101.872 86.85 101.952 86.75 102.052 86.67C102.152 86.59 102.267 86.53 102.397 86.49C102.527 86.45 102.667 86.43 102.817 86.43C103.002 86.43 103.162 86.45 103.292 86.49C103.422 86.53 103.532 86.585 103.617 86.65C103.697 86.715 103.757 86.79 103.797 86.875C103.837 86.965 103.857 87.05 103.857 87.14C103.857 87.28 103.817 87.4 103.742 87.495C103.662 87.595 103.547 87.655 103.387 87.68V87.745C103.577 87.785 103.712 87.85 103.797 87.95C103.877 88.05 103.922 88.17 103.922 88.305C103.922 88.415 103.897 88.52 103.857 88.61C103.817 88.705 103.752 88.785 103.667 88.855C103.577 88.925 103.467 88.975 103.337 89.015C103.202 89.055 103.042 89.07 102.862 89.07C102.712 89.07 102.572 89.055 102.437 89.02C102.297 88.985 102.177 88.93 102.072 88.855C101.967 88.78 101.882 88.68 101.822 88.56C101.762 88.44 101.732 88.29 101.732 88.115V88.095ZM104.876 89L103.931 86.5H104.386L105.161 88.63H105.231L105.996 86.5H106.451L105.161 89.9H104.731L105.091 89H104.876ZM106.192 88.64C106.262 88.64 106.322 88.635 106.377 88.62C106.432 88.605 106.482 88.565 106.522 88.505C106.562 88.445 106.592 88.35 106.622 88.225C106.647 88.1 106.667 87.93 106.687 87.71L106.752 86.87L106.767 86.5H108.502V89H108.072V86.87H107.152L107.047 88.005C107.012 88.365 106.937 88.625 106.817 88.775C106.697 88.925 106.532 89 106.317 89H106.192V88.64ZM109.303 86.5V87.4H109.968C110.308 87.4 110.558 87.475 110.713 87.615C110.863 87.755 110.943 87.95 110.943 88.2C110.943 88.435 110.863 88.625 110.703 88.775C110.543 88.925 110.313 89 110.008 89H108.873V86.5H109.303ZM109.303 87.77V88.63H110.018C110.163 88.63 110.283 88.6 110.373 88.535C110.463 88.47 110.513 88.355 110.513 88.19C110.513 88.045 110.468 87.94 110.378 87.87C110.288 87.805 110.168 87.77 110.018 87.77H109.303ZM110.749 86.87V86.5H113.019V86.87H112.099V89H111.669V86.87H110.749ZM113.851 89.07C113.741 89.07 113.636 89.06 113.536 89.03C113.436 89.005 113.346 88.965 113.276 88.905C113.201 88.85 113.141 88.78 113.101 88.69C113.056 88.605 113.036 88.5 113.036 88.38C113.036 88.29 113.056 88.19 113.096 88.08C113.136 87.975 113.226 87.875 113.356 87.785C113.486 87.695 113.671 87.62 113.911 87.56C114.151 87.5 114.466 87.47 114.861 87.47V87.38C114.861 87.31 114.846 87.235 114.821 87.165C114.796 87.095 114.756 87.035 114.706 86.98C114.651 86.925 114.581 86.88 114.491 86.85C114.401 86.82 114.296 86.8 114.176 86.8C113.941 86.8 113.766 86.855 113.651 86.965C113.536 87.075 113.481 87.215 113.481 87.385H113.051C113.051 87.225 113.081 87.08 113.146 86.96C113.206 86.84 113.291 86.745 113.396 86.665C113.496 86.585 113.616 86.53 113.751 86.49C113.881 86.45 114.021 86.43 114.161 86.43C114.366 86.43 114.541 86.455 114.686 86.505C114.826 86.555 114.946 86.625 115.036 86.715C115.126 86.805 115.191 86.915 115.231 87.035C115.271 87.16 115.291 87.295 115.291 87.445V88.1C115.291 88.225 115.291 88.33 115.296 88.42C115.301 88.51 115.311 88.59 115.321 88.66C115.331 88.73 115.341 88.795 115.356 88.845C115.366 88.9 115.381 88.95 115.396 89H114.956C114.926 88.935 114.906 88.855 114.896 88.765C114.886 88.675 114.876 88.595 114.876 88.525H114.821C114.741 88.68 114.616 88.81 114.446 88.915C114.276 89.02 114.076 89.07 113.851 89.07ZM113.911 88.71C114.041 88.71 114.161 88.69 114.281 88.645C114.396 88.6 114.496 88.54 114.581 88.465C114.666 88.395 114.736 88.315 114.786 88.225C114.836 88.135 114.861 88.045 114.861 87.955V87.78C114.581 87.79 114.356 87.81 114.176 87.84C113.996 87.875 113.856 87.92 113.751 87.97C113.646 88.02 113.571 88.08 113.531 88.15C113.491 88.22 113.471 88.29 113.471 88.36C113.471 88.48 113.511 88.57 113.596 88.625C113.676 88.685 113.781 88.71 113.911 88.71ZM115.432 86.87V86.5H117.702V86.87H116.782V89H116.352V86.87H115.432ZM117.345 88.7C117.345 88.6 117.375 88.515 117.44 88.445C117.505 88.38 117.595 88.345 117.715 88.345C117.83 88.345 117.92 88.38 117.985 88.445C118.05 88.515 118.085 88.595 118.085 88.695C118.085 88.815 118.05 88.905 117.985 88.97C117.92 89.04 117.83 89.07 117.715 89.07C117.595 89.07 117.505 89.04 117.44 88.97C117.375 88.905 117.345 88.815 117.345 88.7Z" fill="url(#paint4_linear_370_156)"/>
<defs>
<linearGradient id="paint0_linear_370_156" x1="148.974" y1="-8.89849e-07" x2="40.0996" y2="67.6333" gradientUnits="userSpaceOnUse">
<stop stop-color="white"/>
<stop offset="1" stop-color="white" stop-opacity="0"/>
</linearGradient>
<linearGradient id="paint1_linear_370_156" x1="148.974" y1="-8.89849e-07" x2="40.0996" y2="67.6333" gradientUnits="userSpaceOnUse">
<stop stop-color="white"/>
<stop offset="1" stop-color="white" stop-opacity="0"/>
</linearGradient>
<linearGradient id="paint2_linear_370_156" x1="148.974" y1="-8.89849e-07" x2="40.0996" y2="67.6333" gradientUnits="userSpaceOnUse">
<stop stop-color="white"/>
<stop offset="1" stop-color="white" stop-opacity="0"/>
</linearGradient>
<linearGradient id="paint3_linear_370_156" x1="136.96" y1="79.2612" x2="-35.8181" y2="-38.4776" gradientUnits="userSpaceOnUse">
<stop stop-color="white"/>
<stop offset="1" stop-color="#1E1E1E"/>
</linearGradient>
<linearGradient id="paint4_linear_370_156" x1="59.5" y1="73.9999" x2="-39.7297" y2="28.0755" gradientUnits="userSpaceOnUse">
<stop stop-color="white"/>
<stop offset="1" stop-color="#1E1E1E"/>
</linearGradient>
</defs>
</svg>
